Amstelvar-Roman-opsz8-wght900-wdth50.ufo
<glyph name="exclam" format="2">
  <advance width="789"/>
  <unicode hex="0021"/>
  <outline>
    <contour>
      <point x="177.0" y="171.0" type="qcurve" smooth="yes"/>
      <point x="177.0" y="251.0"/>
      <point x="299.0" y="364.0"/>
      <point x="394.0" y="364.0" type="qcurve" smooth="yes"/>
      <point x="490.0" y="364.0"/>
      <point x="612.0" y="251.0"/>
      <point x="612.0" y="171.0" type="qcurve" smooth="yes"/>
      <point x="612.0" y="91.0"/>
      <point x="490.0" y="-22.0"/>
      <point x="394.0" y="-22.0" type="qcurve" smooth="yes"/>
      <point x="299.0" y="-22.0"/>
      <point x="177.0" y="91.0"/>
    </contour>
    <contour>
      <point x="129.0" y="1288.0" type="line" smooth="yes"/>
      <point x="120.0" y="1373.0"/>
      <point x="296.0" y="1488.0"/>
      <point x="388.0" y="1488.0" type="qcurve" smooth="yes"/>
      <point x="481.0" y="1489.0"/>
      <point x="663.0" y="1373.0"/>
      <point x="654.0" y="1288.0" type="qcurve" smooth="yes"/>
      <point x="622.0" y="1078.0" type="line"/>
      <point x="531.0" y="770.0" type="line"/>
      <point x="478.0" y="475.0" type="line"/>
      <point x="304.0" y="475.0" type="line"/>
      <point x="251.0" y="770.0" type="line"/>
      <point x="161.0" y="1078.0" type="line"/>
    </contour>
  </outline>
</glyph>
<glyph name="numbersign" format="2">
  <advance width="1186"/>
  <unicode hex="0023"/>
  <outline>
    <contour>
      <point x="60.0" y="328.0" type="line"/>
      <point x="60.0" y="590.0" type="line"/>
      <point x="994.0" y="590.0" type="line"/>
      <point x="994.0" y="328.0" type="line"/>
    </contour>
    <contour>
      <point x="156.0" y="904.0" type="line"/>
      <point x="156.0" y="1166.0" type="line"/>
      <point x="1126.0" y="1166.0" type="line"/>
      <point x="1126.0" y="904.0" type="line"/>
    </contour>
    <contour>
      <point x="109.0" y="-35.0" type="line"/>
      <point x="483.0" y="1483.0" type="line"/>
      <point x="623.0" y="1463.0" type="line"/>
      <point x="247.0" y="-55.0" type="line"/>
    </contour>
    <contour>
      <point x="521.0" y="-35.0" type="line"/>
      <point x="898.0" y="1483.0" type="line"/>
      <point x="1035.0" y="1463.0" type="line"/>
      <point x="658.0" y="-55.0" type="line"/>
    </contour>
  </outline>
</glyph>
<glyph name="dollar" format="2">
  <advance width="1055"/>
  <unicode hex="0024"/>
  <outline>
    <contour>
      <point x="22" y="236" type="qcurve"/>
      <point x="162" y="431" type="line"/>
      <point x="217" y="346"/>
      <point x="388" y="245"/>
      <point x="490" y="245" type="qcurve" smooth="yes"/>
      <point x="578" y="245"/>
      <point x="656" y="306"/>
      <point x="656" y="373" type="qcurve" smooth="yes"/>
      <point x="656" y="440"/>
      <point x="566" y="532"/>
      <point x="421" y="601" type="qcurve" smooth="yes"/>
      <point x="241" y="687"/>
      <point x="60" y="936"/>
      <point x="60" y="1111" type="qcurve" smooth="yes"/>
      <point x="60" y="1294"/>
      <point x="346" y="1500"/>
      <point x="539" y="1500" type="qcurve" smooth="yes"/>
      <point x="682" y="1500"/>
      <point x="892" y="1431"/>
      <point x="975" y="1354" type="qcurve"/>
      <point x="862" y="1128" type="line"/>
      <point x="791" y="1186"/>
      <point x="643" y="1235"/>
      <point x="556" y="1235" type="qcurve" smooth="yes"/>
      <point x="483" y="1235"/>
      <point x="401" y="1193"/>
      <point x="401" y="1142" type="qcurve" smooth="yes"/>
      <point x="401" y="1091"/>
      <point x="469" y="1044"/>
      <point x="642" y="951" type="qcurve" smooth="yes"/>
      <point x="822" y="854"/>
      <point x="1048" y="631"/>
      <point x="1048" y="420" type="qcurve" smooth="yes"/>
      <point x="1048" y="208"/>
      <point x="757" y="1"/>
      <point x="515" y="1" type="qcurve" smooth="yes"/>
      <point x="350" y="1"/>
      <point x="84" y="115"/>
    </contour>
    <contour>
      <point x="442" y="-222" type="line"/>
      <point x="442" y="58" type="line"/>
      <point x="462" y="58" type="line"/>
      <point x="462" y="147" type="line"/>
      <point x="607" y="139" type="line"/>
      <point x="607" y="58" type="line"/>
      <point x="630" y="58" type="line"/>
      <point x="630" y="-194" type="line"/>
    </contour>
    <contour>
      <point x="443" y="1618" type="line"/>
      <point x="633" y="1645" type="line"/>
      <point x="633" y="1421" type="line"/>
      <point x="610" y="1421" type="line"/>
      <point x="610" y="1377" type="line"/>
      <point x="466" y="1390" type="line"/>
      <point x="466" y="1421" type="line"/>
      <point x="443" y="1421" type="line"/>
    </contour>
  </outline>
</glyph>
<glyph name="ampersand" format="2">
  <advance width="1413"/>
  <unicode hex="0026"/>
  <outline>
    <contour>
      <point x="462.0" y="-27.0" type="qcurve" smooth="yes"/>
      <point x="274.0" y="-27.0"/>
      <point x="21.0" y="172.0"/>
      <point x="26.0" y="399.0" type="qcurve" smooth="yes"/>
      <point x="32.0" y="628.0"/>
      <point x="252.0" y="827.0"/>
      <point x="395.0" y="849.0" type="qcurve"/>
      <point x="586.0" y="937.0"/>
      <point x="646.0" y="1067.0"/>
      <point x="646.0" y="1176.0" type="qcurve" smooth="yes"/>
      <point x="646.0" y="1244.0"/>
      <point x="602.0" y="1356.0"/>
      <point x="543.0" y="1356.0" type="qcurve" smooth="yes"/>
      <point x="492.0" y="1356.0"/>
      <point x="437.0" y="1277.0"/>
      <point x="435.0" y="1202.0" type="qcurve" smooth="yes"/>
      <point x="433.0" y="1111.0"/>
      <point x="527.0" y="940.0"/>
      <point x="632.0" y="870.0" type="qcurve"/>
      <point x="988.0" y="299.0" type="line" smooth="yes"/>
      <point x="1033.0" y="228.0"/>
      <point x="1106.0" y="204.0"/>
      <point x="1139.0" y="204.0" type="qcurve" smooth="yes"/>
      <point x="1178.0" y="204.0"/>
      <point x="1224.0" y="234.0"/>
      <point x="1255.0" y="283.0" type="qcurve"/>
      <point x="1358.0" y="159.0" type="line"/>
      <point x="1321.0" y="101.0"/>
      <point x="1137.0" y="-23.0"/>
      <point x="992.0" y="-34.0" type="qcurve" smooth="yes"/>
      <point x="897.0" y="-45.0"/>
      <point x="668.0" y="121.0"/>
      <point x="678.0" y="121.0" type="qcurve" smooth="yes"/>
      <point x="258.0" y="768.0" type="line"/>
      <point x="173.0" y="841.0"/>
      <point x="129.0" y="1069.0"/>
      <point x="127.0" y="1188.0" type="qcurve" smooth="yes"/>
      <point x="124.0" y="1337.0"/>
      <point x="419.0" y="1534.0"/>
      <point x="585.0" y="1533.0" type="qcurve" smooth="yes"/>
      <point x="756.0" y="1533.0"/>
      <point x="915.0" y="1331.0"/>
      <point x="907.0" y="1195.0" type="qcurve" smooth="yes"/>
      <point x="899.0" y="1019.0"/>
      <point x="677.0" y="785.0"/>
      <point x="504.0" y="700.0" type="qcurve"/>
      <point x="460.0" y="696.0"/>
      <point x="422.0" y="577.0"/>
      <point x="431.0" y="419.0" type="qcurve" smooth="yes"/>
      <point x="444.0" y="309.0"/>
      <point x="494.0" y="184.0"/>
      <point x="583.0" y="183.0" type="qcurve" smooth="yes"/>
      <point x="694.0" y="181.0"/>
      <point x="963.0" y="544.0"/>
      <point x="1032.0" y="803.0" type="qcurve"/>
      <point x="1271.0" y="780.0" type="line"/>
      <point x="1156.0" y="471.0"/>
      <point x="729.0" y="-27.0"/>
    </contour>
    <contour>
      <point x="842.0" y="846.0" type="line"/>
      <point x="871.0" y="926.0"/>
      <point x="984.0" y="1003.0"/>
      <point x="1028.0" y="1003.0" type="qcurve" smooth="yes"/>
      <point x="1070.0" y="1003.0"/>
      <point x="1133.0" y="948.0"/>
      <point x="1184.0" y="948.0" type="qcurve" smooth="yes"/>
      <point x="1213.0" y="948.0"/>
      <point x="1276.0" y="976.0"/>
      <point x="1299.0" y="1025.0" type="qcurve"/>
      <point x="1428.0" y="885.0" type="line"/>
      <point x="1373.0" y="794.0"/>
      <point x="1283.0" y="700.0"/>
      <point x="1239.0" y="700.0" type="qcurve" smooth="yes"/>
      <point x="1186.0" y="700.0"/>
      <point x="1074.0" y="792.0"/>
      <point x="1037.0" y="792.0" type="qcurve" smooth="yes"/>
      <point x="999.0" y="792.0"/>
      <point x="948.0" y="767.0"/>
      <point x="925.0" y="745.0" type="qcurve"/>
    </contour>
  </outline>
</glyph>
<glyph name="quotesingle" format="2">
  <advance width="591"/>
  <unicode hex="0027"/>
  <outline>
    <contour>
      <point x="237" y="786" type="line"/>
      <point x="90" y="1345" type="line"/>
      <point x="90" y="1428"/>
      <point x="188" y="1558"/>
      <point x="296" y="1558" type="qcurve" smooth="yes"/>
      <point x="402" y="1558"/>
      <point x="501" y="1428"/>
      <point x="501" y="1345" type="qcurve"/>
      <point x="351" y="786" type="line"/>
    </contour>
  </outline>
</glyph>
<glyph name="asterisk" format="2">
  <advance width="929"/>
  <unicode hex="002A"/>
  <outline>
    <contour>
      <point x="477.0" y="663.0" type="qcurve" smooth="yes"/>
      <point x="417.0" y="663.0"/>
      <point x="350.0" y="740.0"/>
      <point x="363.0" y="799.0" type="qcurve" smooth="yes"/>
      <point x="426.0" y="998.0" type="line"/>
      <point x="415.0" y="1004.0" type="line"/>
      <point x="272.0" y="852.0" type="line" smooth="yes"/>
      <point x="233.0" y="817.0"/>
      <point x="133.0" y="827.0"/>
      <point x="102.0" y="883.0" type="qcurve" smooth="yes"/>
      <point x="70.0" y="938.0"/>
      <point x="114.0" y="1034.0"/>
      <point x="164.0" y="1052.0" type="qcurve" smooth="yes"/>
      <point x="362.0" y="1098.0" type="line"/>
      <point x="361.0" y="1105.0" type="line"/>
      <point x="164.0" y="1151.0" type="line" smooth="yes"/>
      <point x="115.0" y="1168.0"/>
      <point x="70.0" y="1265.0"/>
      <point x="102.0" y="1321.0" type="qcurve" smooth="yes"/>
      <point x="133.0" y="1375.0"/>
      <point x="234.0" y="1389.0"/>
      <point x="272.0" y="1354.0" type="qcurve" smooth="yes"/>
      <point x="415.0" y="1198.0" type="line"/>
      <point x="424.0" y="1204.0" type="line"/>
      <point x="363.0" y="1404.0" type="line" smooth="yes"/>
      <point x="350.0" y="1465.0"/>
      <point x="420.0" y="1539.0"/>
      <point x="477.0" y="1539.0" type="qcurve" smooth="yes"/>
      <point x="538.0" y="1539.0"/>
      <point x="606.0" y="1463.0"/>
      <point x="592.0" y="1404.0" type="qcurve" smooth="yes"/>
      <point x="530.0" y="1206.0" type="line"/>
      <point x="541.0" y="1200.0" type="line"/>
      <point x="683.0" y="1354.0" type="line" smooth="yes"/>
      <point x="723.0" y="1389.0"/>
      <point x="824.0" y="1375.0"/>
      <point x="853.0" y="1321.0" type="qcurve" smooth="yes"/>
      <point x="886.0" y="1265.0"/>
      <point x="841.0" y="1168.0"/>
      <point x="792.0" y="1151.0" type="qcurve" smooth="yes"/>
      <point x="593.0" y="1106.0" type="line"/>
      <point x="595.0" y="1099.0" type="line"/>
      <point x="792.0" y="1053.0" type="line" smooth="yes"/>
      <point x="840.0" y="1034.0"/>
      <point x="886.0" y="938.0"/>
      <point x="853.0" y="883.0" type="qcurve" smooth="yes"/>
      <point x="824.0" y="827.0"/>
      <point x="723.0" y="815.0"/>
      <point x="683.0" y="851.0" type="qcurve" smooth="yes"/>
      <point x="542.0" y="1004.0" type="line"/>
      <point x="532.0" y="998.0" type="line"/>
      <point x="594.0" y="799.0" type="line" smooth="yes"/>
      <point x="608.0" y="740.0"/>
      <point x="542.0" y="663.0"/>
    </contour>
  </outline>
</glyph>
<glyph name="plus" format="2">
  <advance width="926"/>
  <unicode hex="002B"/>
  <outline>
    <contour>
      <point x="48.0" y="490.0" type="line"/>
      <point x="48.0" y="774.0" type="line"/>
      <point x="878.0" y="774.0" type="line"/>
      <point x="878.0" y="490.0" type="line"/>
    </contour>
    <contour>
      <point x="292.0" y="173.0" type="line"/>
      <point x="292.0" y="1091.0" type="line"/>
      <point x="635.0" y="1091.0" type="line"/>
      <point x="635.0" y="173.0" type="line"/>
    </contour>
  </outline>
</glyph>
<glyph name="comma" format="2">
  <advance width="580"/>
  <unicode hex="002C"/>
  <outline>
    <contour>
      <point x="59.0" y="-216.0" type="line"/>
      <point x="124.0" y="-183.0"/>
      <point x="254.0" y="-78.0"/>
      <point x="297.0" y="10.0" type="qcurve"/>
      <point x="162.0" y="17.0"/>
      <point x="60.0" y="134.0"/>
      <point x="60.0" y="219.0" type="qcurve" smooth="yes"/>
      <point x="60.0" y="302.0"/>
      <point x="190.0" y="432.0"/>
      <point x="292.0" y="432.0" type="qcurve" smooth="yes"/>
      <point x="392.0" y="432.0"/>
      <point x="526.0" y="314.0"/>
      <point x="526.0" y="199.0" type="qcurve" smooth="yes"/>
      <point x="526.0" y="50.0"/>
      <point x="284.0" y="-248.0"/>
      <point x="133.0" y="-300.0" type="qcurve"/>
    </contour>
  </outline>
</glyph>
<glyph name="period" format="2">
  <advance width="690"/>
  <unicode hex="002E"/>
  <outline>
    <contour>
      <point x="103.0" y="221" type="qcurve" smooth="yes"/>
      <point x="103.0" y="319"/>
      <point x="240.0" y="463"/>
      <point x="344.0" y="463" type="qcurve" smooth="yes"/>
      <point x="450.0" y="463"/>
      <point x="587.0" y="319"/>
      <point x="587.0" y="221" type="qcurve" smooth="yes"/>
      <point x="587.0" y="124"/>
      <point x="450.0" y="-22.0"/>
      <point x="344.0" y="-22.0" type="qcurve"/>
      <point x="240.0" y="-22.0"/>
      <point x="103.0" y="124"/>
    </contour>
  </outline>
</glyph>
<glyph name="slash" format="2">
  <advance width="908"/>
  <unicode hex="002F"/>
  <outline>
    <contour>
      <point x="60.0" y="-103.0" type="line"/>
      <point x="554.0" y="1575.0" type="line"/>
      <point x="871.0" y="1462.0" type="line"/>
      <point x="378.0" y="-214.0" type="line"/>
    </contour>
  </outline>
</glyph>
<glyph name="zero" format="2">
  <advance width="1207"/>
  <unicode hex="0030"/>
  <outline>
    <contour>
      <point x="48" y="753" type="qcurve" smooth="yes"/>
      <point x="48" y="1125"/>
      <point x="352" y="1525"/>
      <point x="606" y="1525" type="qcurve" smooth="yes"/>
      <point x="864" y="1525"/>
      <point x="1159" y="1130"/>
      <point x="1159" y="756" type="qcurve" smooth="yes"/>
      <point x="1159" y="395"/>
      <point x="870" y="-24"/>
      <point x="612" y="-24" type="qcurve" smooth="yes"/>
      <point x="355" y="-24"/>
      <point x="48" y="373"/>
    </contour>
    <contour>
      <point x="545.0" y="770" type="qcurve" smooth="yes"/>
      <point x="545.0" y="319"/>
      <point x="555.0" y="183"/>
      <point x="603.0" y="183" type="qcurve" smooth="yes"/>
      <point x="651.0" y="183"/>
      <point x="662.0" y="322"/>
      <point x="662.0" y="756" type="qcurve" smooth="yes"/>
      <point x="662.0" y="1191"/>
      <point x="646.0" y="1314"/>
      <point x="603.0" y="1314" type="qcurve" smooth="yes"/>
      <point x="560.0" y="1314"/>
      <point x="545.0" y="1185"/>
    </contour>
  </outline>
</glyph>
<glyph name="one" format="2">
  <advance width="885"/>
  <unicode hex="0031"/>
  <outline>
    <contour>
      <point x="16" y="0" type="line"/>
      <point x="16" y="177" type="line"/>
      <point x="174" y="212" type="line"/>
      <point x="174" y="754" type="line"/>
      <point x="172" y="1275" type="line"/>
      <point x="14" y="1295" type="line"/>
      <point x="14" y="1483" type="line"/>
      <point x="665" y="1506" type="line"/>
      <point x="697" y="1471" type="line"/>
      <point x="691" y="754" type="line"/>
      <point x="691" y="212" type="line"/>
      <point x="869" y="177" type="line"/>
      <point x="869" y="0" type="line"/>
    </contour>
  </outline>
</glyph>
<glyph name="two" format="2">
  <advance width="1213"/>
  <unicode hex="0032"/>
  <outline>
    <contour>
      <point x="110.0" y="0.0" type="line"/>
      <point x="110.0" y="162.0" type="line"/>
      <point x="101.0" y="295.0"/>
      <point x="229.0" y="599.0"/>
      <point x="334.0" y="709.0" type="qcurve" smooth="yes"/>
      <point x="416.0" y="801.0"/>
      <point x="483.0" y="967.0"/>
      <point x="483.0" y="1057.0" type="qcurve" smooth="yes"/>
      <point x="483.0" y="1146.0"/>
      <point x="412.0" y="1215.0"/>
      <point x="345.0" y="1215.0" type="qcurve" smooth="yes"/>
      <point x="338.0" y="1215.0"/>
      <point x="251.0" y="1145.0"/>
      <point x="225.0" y="1108.0" type="qcurve"/>
      <point x="122.0" y="1305.0" type="line"/>
      <point x="180.0" y="1387.0"/>
      <point x="452.0" y="1526.0"/>
      <point x="597.0" y="1526.0" type="qcurve" smooth="yes"/>
      <point x="813.0" y="1526.0"/>
      <point x="1032.0" y="1318.0"/>
      <point x="1037.0" y="1143.0" type="qcurve" smooth="yes"/>
      <point x="1043.0" y="969.0"/>
      <point x="973.0" y="749.0"/>
      <point x="720.0" y="587.0" type="qcurve" smooth="yes"/>
      <point x="518.0" y="461.0"/>
      <point x="470.0" y="420.0"/>
      <point x="453.0" y="363.0" type="qcurve"/>
      <point x="452.0" y="344.0" type="line"/>
      <point x="1029.0" y="344.0" type="line"/>
      <point x="1029.0" y="0.0" type="line"/>
    </contour>
  </outline>
</glyph>
<glyph name="four" format="2">
  <advance width="929"/>
  <unicode hex="0034"/>
  <outline>
    <contour>
      <point x="-24" y="575" type="line"/>
      <point x="430" y="1528" type="line"/>
      <point x="782" y="1510" type="line"/>
      <point x="852" y="1440" type="line"/>
      <point x="836" y="523" type="line"/>
      <point x="838" y="204" type="line"/>
      <point x="933" y="169" type="line"/>
      <point x="933" y="0" type="line"/>
      <point x="214" y="0" type="line"/>
      <point x="214" y="169" type="line"/>
      <point x="345" y="204" type="line"/>
      <point x="347" y="521" type="line"/>
      <point x="341" y="1036" type="line"/>
      <point x="160" y="646" type="line"/>
      <point x="158" y="627" type="line"/>
      <point x="930" y="624" type="line"/>
      <point x="930" y="422" type="line"/>
      <point x="-8" y="420" type="line"/>
    </contour>
  </outline>
</glyph>
<glyph name="five" format="2">
  <advance width="1029"/>
  <unicode hex="0035"/>
  <outline>
    <contour>
      <point x="38.0" y="83.0" type="qcurve"/>
      <point x="112.0" y="270.0" type="line"/>
      <point x="180.0" y="198.0"/>
      <point x="225.0" y="196.0"/>
      <point x="246.0" y="196.0" type="qcurve" smooth="yes"/>
      <point x="330.0" y="196.0"/>
      <point x="371.0" y="342.0"/>
      <point x="371.0" y="491.0" type="qcurve" smooth="yes"/>
      <point x="371.0" y="622.0"/>
      <point x="396.0" y="746.0"/>
      <point x="242.0" y="726.0" type="qcurve" smooth="yes"/>
      <point x="248.0" y="722.0" type="line"/>
      <point x="186.0" y="806.0" type="line"/>
      <point x="195.0" y="1467.0" type="line"/>
      <point x="216.0" y="1500.0" type="line"/>
      <point x="922.0" y="1500.0" type="line"/>
      <point x="906.0" y="1146.0" type="line"/>
      <point x="375.0" y="1146.0" type="line"/>
      <point x="363.0" y="1128.0" type="line"/>
      <point x="409.0" y="899.0" type="line"/>
      <point x="477.0" y="906.0" type="line"/>
      <point x="812.0" y="927.0"/>
      <point x="934.0" y="639.0"/>
      <point x="934.0" y="420.0" type="qcurve" smooth="yes"/>
      <point x="934.0" y="187.0"/>
      <point x="670.0" y="-30.0"/>
      <point x="402.0" y="-30.0" type="qcurve" smooth="yes"/>
      <point x="239.0" y="-30.0"/>
      <point x="79.0" y="35.0"/>
    </contour>
  </outline>
</glyph>
<glyph name="six" format="2">
  <advance width="1163"/>
  <unicode hex="0036"/>
  <outline>
    <contour>
      <point x="47" y="665" type="qcurve" smooth="yes"/>
      <point x="47" y="1103"/>
      <point x="517" y="1543"/>
      <point x="857" y="1543" type="qcurve"/>
      <point x="931" y="1316" type="line"/>
      <point x="726" y="1316"/>
      <point x="542" y="1078"/>
      <point x="542" y="691" type="qcurve" smooth="yes"/>
      <point x="542" y="284"/>
      <point x="560" y="184"/>
      <point x="601" y="184" type="qcurve" smooth="yes"/>
      <point x="653" y="184"/>
      <point x="674" y="293"/>
      <point x="674" y="473" type="qcurve" smooth="yes"/>
      <point x="674" y="668"/>
      <point x="646" y="765"/>
      <point x="612" y="765" type="qcurve" smooth="yes"/>
      <point x="587" y="765"/>
      <point x="535" y="737"/>
      <point x="509" y="698" type="qcurve"/>
      <point x="509" y="834" type="line"/>
      <point x="550" y="901"/>
      <point x="685" y="971"/>
      <point x="791" y="971.0" type="qcurve" smooth="yes"/>
      <point x="928" y="971"/>
      <point x="1136" y="762"/>
      <point x="1136" y="539" type="qcurve" smooth="yes"/>
      <point x="1136" y="264"/>
      <point x="863" y="-24"/>
      <point x="611" y="-24" type="qcurve" smooth="yes"/>
      <point x="359" y="-24"/>
      <point x="47" y="330"/>
    </contour>
  </outline>
</glyph>
<glyph name="seven" format="2">
  <advance width="1110"/>
  <unicode hex="0037"/>
  <outline>
    <contour>
      <point x="101.0" y="951.0" type="line"/>
      <point x="75.0" y="1500.0" type="line"/>
      <point x="1032.0" y="1500.0" type="line"/>
      <point x="1032.0" y="1321.0" type="line"/>
      <point x="781.0" y="640.0" type="line"/>
      <point x="546.0" y="-22.0" type="line"/>
      <point x="207.0" y="-22.0" type="line"/>
      <point x="207.0" y="60.0" type="line"/>
      <point x="564.0" y="762.0" type="line"/>
      <point x="693.0" y="1126.0" type="line"/>
      <point x="678.0" y="1161.0" type="line"/>
      <point x="284.0" y="1161.0" type="line"/>
      <point x="251.0" y="951.0" type="line"/>
    </contour>
  </outline>
</glyph>
<glyph name="nine" format="2">
  <advance width="967"/>
  <unicode hex="0039"/>
  <outline>
    <contour>
      <point x="27.0" y="994.0" type="qcurve" smooth="yes"/>
      <point x="27.0" y="1248.0"/>
      <point x="288.0" y="1531.0"/>
      <point x="519.0" y="1531.0" type="qcurve" smooth="yes"/>
      <point x="739.0" y="1531.0"/>
      <point x="956.0" y="1222.0"/>
      <point x="956.0" y="832.0" type="qcurve" smooth="yes"/>
      <point x="956.0" y="433.0"/>
      <point x="528.0" y="-45.0"/>
      <point x="116.0" y="-31.0" type="qcurve"/>
      <point x="162.0" y="196.0" type="line"/>
      <point x="294.0" y="185.0"/>
      <point x="435.0" y="549.0"/>
      <point x="433.0" y="881.0" type="qcurve" smooth="yes"/>
      <point x="431.0" y="1188.0"/>
      <point x="530.0" y="1344.0"/>
      <point x="497.0" y="1344.0" type="qcurve" smooth="yes"/>
      <point x="535.0" y="1344.0"/>
      <point x="501.0" y="1217.0"/>
      <point x="501.0" y="1029.0" type="qcurve" smooth="yes"/>
      <point x="501.0" y="834.0"/>
      <point x="427.0" y="737.0"/>
      <point x="367.0" y="737.0" type="qcurve" smooth="yes"/>
      <point x="427.0" y="737.0"/>
      <point x="444.0" y="747.0"/>
      <point x="450.0" y="764.0" type="qcurve"/>
      <point x="481.0" y="615.0" type="line"/>
      <point x="474.0" y="590.0"/>
      <point x="339.0" y="531.0"/>
      <point x="290.0" y="531.0" type="qcurve" smooth="yes"/>
      <point x="148.0" y="531.0"/>
      <point x="27.0" y="750.0"/>
    </contour>
  </outline>
</glyph>
<glyph name="colon" format="2">
  <advance width="559"/>
  <unicode hex="003A"/>
  <outline>
    <contour>
      <point x="40.0" y="204.0" type="qcurve" smooth="yes"/>
      <point x="40.0" y="292.0"/>
      <point x="176.0" y="427.0"/>
      <point x="279.0" y="427.0" type="qcurve" smooth="yes"/>
      <point x="385.0" y="427.0"/>
      <point x="519.0" y="292.0"/>
      <point x="519.0" y="204.0" type="qcurve" smooth="yes"/>
      <point x="519.0" y="116.0"/>
      <point x="386.0" y="-22.0"/>
      <point x="279.0" y="-22.0" type="qcurve" smooth="yes"/>
      <point x="174.0" y="-22.0"/>
      <point x="40.0" y="116.0"/>
    </contour>
    <contour>
      <point x="40.0" y="768.0" type="qcurve" smooth="yes"/>
      <point x="40.0" y="857.0"/>
      <point x="174.0" y="993.0"/>
      <point x="279.0" y="993.0" type="qcurve" smooth="yes"/>
      <point x="384.0" y="993.0"/>
      <point x="519.0" y="857.0"/>
      <point x="519.0" y="768.0" type="qcurve" smooth="yes"/>
      <point x="519.0" y="681.0"/>
      <point x="383.0" y="545.0"/>
      <point x="279.0" y="545.0" type="qcurve" smooth="yes"/>
      <point x="176.0" y="545.0"/>
      <point x="40.0" y="681.0"/>
    </contour>
  </outline>
</glyph>
<glyph name="semicolon" format="2">
  <advance width="552"/>
  <unicode hex="003B"/>
  <outline>
    <contour>
      <point x="29.0" y="-207.0" type="line"/>
      <point x="91.0" y="-173.0"/>
      <point x="220.0" y="-79.0"/>
      <point x="263.0" y="9.0" type="qcurve"/>
      <point x="137.0" y="17.0"/>
      <point x="39.0" y="130.0"/>
      <point x="39.0" y="215.0" type="qcurve" smooth="yes"/>
      <point x="39.0" y="294.0"/>
      <point x="168.0" y="424.0"/>
      <point x="272.0" y="424.0" type="qcurve" smooth="yes"/>
      <point x="373.0" y="424.0"/>
      <point x="506.0" y="305.0"/>
      <point x="506.0" y="196.0" type="qcurve" smooth="yes"/>
      <point x="506.0" y="51.0"/>
      <point x="260.0" y="-248.0"/>
      <point x="109.0" y="-300.0" type="qcurve"/>
    </contour>
    <contour>
      <point x="40.0" y="767.0" type="qcurve" smooth="yes"/>
      <point x="40.0" y="857.0"/>
      <point x="174.0" y="993.0"/>
      <point x="279.0" y="993.0" type="qcurve" smooth="yes"/>
      <point x="384.0" y="993.0"/>
      <point x="519.0" y="857.0"/>
      <point x="519.0" y="767.0" type="qcurve" smooth="yes"/>
      <point x="519.0" y="681.0"/>
      <point x="383.0" y="545.0"/>
      <point x="279.0" y="545.0" type="qcurve" smooth="yes"/>
      <point x="176.0" y="545.0"/>
      <point x="40.0" y="681.0"/>
    </contour>
  </outline>
</glyph>
<glyph name="at" format="2">
  <advance width="1353"/>
  <unicode hex="0040"/>
  <outline>
    <contour>
      <point x="41.0" y="705.0" type="qcurve" smooth="yes"/>
      <point x="41.0" y="1191.0"/>
      <point x="402.0" y="1529.0"/>
      <point x="650.0" y="1529.0" type="qcurve" smooth="yes"/>
      <point x="898" y="1529"/>
      <point x="1243.0" y="1197.0"/>
      <point x="1243.0" y="822" type="qcurve" smooth="yes"/>
      <point x="1243" y="527"/>
      <point x="1031.0" y="306.0"/>
      <point x="878" y="306" type="qcurve" smooth="yes"/>
      <point x="815.0" y="306.0"/>
      <point x="728.0" y="356.0"/>
      <point x="702.0" y="410.0" type="qcurve"/>
      <point x="680.0" y="373.0"/>
      <point x="590" y="323"/>
      <point x="531" y="323.0" type="qcurve" smooth="yes"/>
      <point x="457" y="323"/>
      <point x="330" y="425"/>
      <point x="330.0" y="522" type="qcurve" smooth="yes"/>
      <point x="330.0" y="645"/>
      <point x="486.0" y="818.0"/>
      <point x="723.0" y="900.0" type="qcurve"/>
      <point x="729.0" y="785.0" type="line"/>
      <point x="648.0" y="749.0"/>
      <point x="589" y="630"/>
      <point x="589.0" y="565" type="qcurve" smooth="yes"/>
      <point x="589" y="508"/>
      <point x="620" y="466.0"/>
      <point x="645.0" y="466.0" type="qcurve" smooth="yes"/>
      <point x="668" y="466"/>
      <point x="690" y="491"/>
      <point x="690.0" y="522.0" type="qcurve" smooth="yes"/>
      <point x="692.0" y="837.0" type="line" smooth="yes"/>
      <point x="693" y="937"/>
      <point x="644" y="1005"/>
      <point x="598" y="1005.0" type="qcurve" smooth="yes"/>
      <point x="563" y="1005"/>
      <point x="509" y="969"/>
      <point x="494.0" y="950.0" type="qcurve" smooth="yes"/>
      <point x="484" y="937"/>
      <point x="458" y="908"/>
      <point x="438" y="908.0" type="qcurve" smooth="yes"/>
      <point x="406" y="908"/>
      <point x="340.0" y="965"/>
      <point x="340.0" y="990" type="qcurve" smooth="yes"/>
      <point x="340" y="1018"/>
      <point x="368" y="1050"/>
      <point x="382.0" y="1063.0" type="qcurve" smooth="yes"/>
      <point x="416" y="1095"/>
      <point x="551" y="1173"/>
      <point x="665.0" y="1173.0" type="qcurve" smooth="yes"/>
      <point x="790.0" y="1173.0"/>
      <point x="966.0" y="1020.0"/>
      <point x="966.0" y="858.0" type="qcurve" smooth="yes"/>
      <point x="966.0" y="535.0" type="line" smooth="yes"/>
      <point x="966" y="506"/>
      <point x="974" y="473.0"/>
      <point x="1004.0" y="473.0" type="qcurve" smooth="yes"/>
      <point x="1042" y="473"/>
      <point x="1081" y="568"/>
      <point x="1081.0" y="797" type="qcurve" smooth="yes"/>
      <point x="1081.0" y="1113.0"/>
      <point x="856.0" y="1360.0"/>
      <point x="657.0" y="1360.0" type="qcurve" smooth="yes"/>
      <point x="458" y="1360"/>
      <point x="205.0" y="1127.0"/>
      <point x="207.0" y="752.0" type="qcurve" smooth="yes"/>
      <point x="209" y="343"/>
      <point x="423" y="84"/>
      <point x="612.0" y="84.0" type="qcurve" smooth="yes"/>
      <point x="688" y="84.0"/>
      <point x="831.0" y="114.0"/>
      <point x="883.0" y="150.0" type="qcurve"/>
      <point x="944.0" y="30.0" type="line"/>
      <point x="881.0" y="-20.0"/>
      <point x="712" y="-71.0"/>
      <point x="599.0" y="-71.0" type="qcurve" smooth="yes"/>
      <point x="358" y="-71"/>
      <point x="41" y="255"/>
    </contour>
  </outline>
</glyph>
<glyph name="A" format="2">
  <advance width="1184"/>
  <unicode hex="0041"/>
  <outline>
    <contour>
      <point x="-11" y="0" type="line"/>
      <point x="-11" y="174" type="line"/>
      <point x="97" y="208" type="line"/>
      <point x="347" y="1500" type="line"/>
      <point x="894" y="1500" type="line"/>
      <point x="1133" y="207" type="line"/>
      <point x="1218" y="174" type="line"/>
      <point x="1218" y="0" type="line"/>
      <point x="462" y="0" type="line"/>
      <point x="462" y="174" type="line"/>
      <point x="554" y="211" type="line"/>
      <point x="452" y="1074" type="line"/>
      <point x="305" y="212" type="line"/>
      <point x="404" y="174" type="line"/>
      <point x="404" y="0" type="line"/>
    </contour>
    <contour>
      <point x="429" y="565" type="line"/>
      <point x="681" y="571" type="line"/>
      <point x="682" y="418" type="line"/>
      <point x="429" y="418" type="line"/>
    </contour>
    <contour>
      <point x="201" y="418" type="line"/>
      <point x="231" y="570" type="line"/>
      <point x="429" y="565" type="line"/>
      <point x="429" y="418" type="line"/>
    </contour>
  </outline>
</glyph>
<glyph name="C" format="2">
  <advance width="1220"/>
  <unicode hex="0043"/>
  <outline>
    <contour>
      <point x="49" y="704" type="qcurve" smooth="yes"/>
      <point x="49" y="1109"/>
      <point x="434" y="1518"/>
      <point x="651" y="1518" type="qcurve" smooth="yes"/>
      <point x="757" y="1518"/>
      <point x="876" y="1452"/>
      <point x="912" y="1386" type="qcurve"/>
      <point x="938" y="1500" type="line"/>
      <point x="1103" y="1500" type="line"/>
      <point x="1103" y="1003" type="line"/>
      <point x="892" y="1003" type="line"/>
      <point x="869" y="1162" type="line" smooth="yes"/>
      <point x="860" y="1225"/>
      <point x="803" y="1296"/>
      <point x="748" y="1296" type="qcurve" smooth="yes"/>
      <point x="686" y="1296"/>
      <point x="643" y="1170"/>
      <point x="641" y="731" type="qcurve" smooth="yes"/>
      <point x="639" y="363"/>
      <point x="716" y="206"/>
      <point x="803" y="206" type="qcurve" smooth="yes"/>
      <point x="863" y="206"/>
      <point x="954" y="261"/>
      <point x="1008" y="344" type="qcurve"/>
      <point x="1151" y="251" type="line"/>
      <point x="1093" y="127"/>
      <point x="873" y="-15"/>
      <point x="733" y="-15" type="qcurve" smooth="yes"/>
      <point x="418" y="-15"/>
      <point x="49" y="369"/>
    </contour>
  </outline>
</glyph>
<glyph name="D" format="2">
  <advance width="1360"/>
  <unicode hex="0044"/>
  <outline>
    <contour>
      <point x="-4.0" y="0.0" type="line"/>
      <point x="-4.0" y="175.0" type="line"/>
      <point x="124.0" y="210.0" type="line"/>
      <point x="126.0" y="754.0" type="line"/>
      <point x="124.0" y="1278.0" type="line"/>
      <point x="-4.0" y="1312.0" type="line"/>
      <point x="-4.0" y="1500.0" type="line"/>
      <point x="702.0" y="1500.0" type="line" smooth="yes"/>
      <point x="973.0" y="1502.0"/>
      <point x="1306.0" y="1119.0"/>
      <point x="1306.0" y="778.0" type="qcurve" smooth="yes"/>
      <point x="1306.0" y="410.0"/>
      <point x="970.0" y="0.0"/>
      <point x="665.0" y="0.0" type="qcurve" smooth="yes"/>
    </contour>
    <contour>
      <point x="657.0" y="202.0" type="line"/>
      <point x="662.0" y="196.0"/>
      <point x="684.0" y="183.0"/>
      <point x="694.0" y="183.0" type="qcurve" smooth="yes"/>
      <point x="751.0" y="183.0"/>
      <point x="751.0" y="470.0"/>
      <point x="753.0" y="752.0" type="qcurve" smooth="yes"/>
      <point x="754.0" y="1010.0"/>
      <point x="722.0" y="1291.0"/>
      <point x="689.0" y="1291.0" type="qcurve" smooth="yes"/>
      <point x="683.0" y="1291.0"/>
      <point x="663.0" y="1278.0"/>
      <point x="658.0" y="1273.0" type="qcurve"/>
      <point x="655.0" y="747.0" type="line"/>
    </contour>
  </outline>
</glyph>
<glyph name="E" format="2">
  <advance width="1128"/>
  <unicode hex="0045"/>
  <outline>
    <contour>
      <point x="-4.0" y="0.0" type="line"/>
      <point x="-4.0" y="176.0" type="line"/>
      <point x="124.0" y="209.0" type="line"/>
      <point x="126.0" y="725.0" type="line"/>
      <point x="124.0" y="1278.0" type="line"/>
      <point x="-4.0" y="1312.0" type="line"/>
      <point x="-4.0" y="1500.0" type="line"/>
      <point x="1079.0" y="1500.0" type="line"/>
      <point x="1079.0" y="1128.0" type="line"/>
      <point x="883.0" y="1128.0" type="line"/>
      <point x="858.0" y="1292.0" type="line"/>
      <point x="745.0" y="1292.0" type="line"/>
      <point x="659.0" y="1268.0" type="line"/>
      <point x="658.0" y="783.0" type="line"/>
      <point x="659.0" y="233.0" type="line"/>
      <point x="739.0" y="208.0" type="line"/>
      <point x="891.0" y="208.0" type="line"/>
      <point x="941.0" y="422.0" type="line"/>
      <point x="1136.0" y="422.0" type="line"/>
      <point x="1110.0" y="0.0" type="line"/>
    </contour>
    <contour>
      <point x="412.0" y="693.0" type="line"/>
      <point x="412.0" y="875.0" type="line"/>
      <point x="837.0" y="885.0" type="line"/>
      <point x="854.0" y="1026.0" type="line"/>
      <point x="1030.0" y="1026.0" type="line"/>
      <point x="1030.0" y="539.0" type="line"/>
      <point x="854.0" y="539.0" type="line"/>
      <point x="837.0" y="683.0" type="line"/>
    </contour>
  </outline>
</glyph>
<glyph name="F" format="2">
  <advance width="1115"/>
  <unicode hex="0046"/>
  <outline>
    <contour>
      <point x="-4.0" y="0.0" type="line"/>
      <point x="-4.0" y="176.0" type="line"/>
      <point x="124.0" y="209.0" type="line"/>
      <point x="126.0" y="748.0" type="line"/>
      <point x="124.0" y="1278.0" type="line"/>
      <point x="-4.0" y="1312.0" type="line"/>
      <point x="-4.0" y="1500.0" type="line"/>
      <point x="1130.0" y="1500.0" type="line"/>
      <point x="1130.0" y="1128.0" type="line"/>
      <point x="934.0" y="1128.0" type="line"/>
      <point x="909.0" y="1292.0" type="line"/>
      <point x="715.0" y="1292.0" type="line"/>
      <point x="660.0" y="1268.0" type="line"/>
      <point x="664.0" y="760.0" type="line"/>
      <point x="666.0" y="213.0" type="line"/>
      <point x="779.0" y="177.0" type="line"/>
      <point x="779.0" y="0.0" type="line"/>
    </contour>
    <contour>
      <point x="415.0" y="673.0" type="line"/>
      <point x="415.0" y="859.0" type="line"/>
      <point x="892.0" y="869.0" type="line"/>
      <point x="909.0" y="995.0" type="line"/>
      <point x="1081.0" y="995.0" type="line"/>
      <point x="1081.0" y="540.0" type="line"/>
      <point x="909.0" y="540.0" type="line"/>
      <point x="892.0" y="663.0" type="line"/>
    </contour>
  </outline>
</glyph>
<glyph name="H" format="2">
  <advance width="1474"/>
  <unicode hex="0048"/>
  <outline>
    <contour>
      <point x="14" y="0" type="line"/>
      <point x="14" y="176" type="line"/>
      <point x="132" y="211" type="line"/>
      <point x="134" y="754" type="line"/>
      <point x="132" y="1278" type="line"/>
      <point x="14" y="1312" type="line"/>
      <point x="14" y="1500" type="line"/>
      <point x="708" y="1500" type="line"/>
      <point x="708" y="1312" type="line"/>
      <point x="667" y="1278" type="line"/>
      <point x="665" y="754" type="line"/>
      <point x="667" y="211" type="line"/>
      <point x="708" y="176" type="line"/>
      <point x="708" y="0" type="line"/>
    </contour>
    <contour>
      <point x="407" y="673" type="line"/>
      <point x="407" y="881" type="line"/>
      <point x="744" y="873" type="line"/>
      <point x="1099" y="881" type="line"/>
      <point x="1099" y="673" type="line"/>
      <point x="744" y="673" type="line"/>
    </contour>
    <contour>
      <point x="766" y="0" type="line"/>
      <point x="766" y="176" type="line"/>
      <point x="807" y="211" type="line"/>
      <point x="809" y="754" type="line"/>
      <point x="807" y="1278" type="line"/>
      <point x="766" y="1312" type="line"/>
      <point x="766" y="1500" type="line"/>
      <point x="1460" y="1500" type="line"/>
      <point x="1460" y="1312" type="line"/>
      <point x="1342" y="1278" type="line"/>
      <point x="1340" y="754" type="line"/>
      <point x="1342" y="211" type="line"/>
      <point x="1460" y="176" type="line"/>
      <point x="1460" y="0" type="line"/>
    </contour>
  </outline>
</glyph>
<glyph name="K" format="2">
  <advance width="1545"/>
  <unicode hex="004B"/>
  <outline>
    <contour>
      <point x="-4.0" y="0.0" type="line"/>
      <point x="-4.0" y="176.0" type="line"/>
      <point x="124.0" y="211.0" type="line"/>
      <point x="126.0" y="754.0" type="line"/>
      <point x="124.0" y="1278.0" type="line"/>
      <point x="-4.0" y="1312.0" type="line"/>
      <point x="-4.0" y="1500.0" type="line"/>
      <point x="795.0" y="1500.0" type="line"/>
      <point x="795.0" y="1312.0" type="line"/>
      <point x="659.0" y="1278.0" type="line"/>
      <point x="657.0" y="754.0" type="line"/>
      <point x="659.0" y="211.0" type="line"/>
      <point x="755.0" y="176.0" type="line"/>
      <point x="755.0" y="0.0" type="line"/>
    </contour>
    <contour>
      <point x="387.0" y="169.0" type="line"/>
      <point x="390.0" y="447.0" type="line"/>
      <point x="1021.0" y="1304.0" type="line"/>
      <point x="918.0" y="1313.0" type="line"/>
      <point x="918.0" y="1500.0" type="line"/>
      <point x="1399.0" y="1500.0" type="line"/>
      <point x="1399.0" y="1313.0" type="line"/>
      <point x="1254.0" y="1294.0" type="line"/>
      <point x="949.0" y="832.0" type="line"/>
      <point x="904.0" y="790.0" type="line"/>
    </contour>
    <contour>
      <point x="698.0" y="723.0" type="line"/>
      <point x="1076.0" y="1128.0" type="line"/>
      <point x="1404.0" y="210.0" type="line"/>
      <point x="1502.0" y="176.0" type="line"/>
      <point x="1502.0" y="0.0" type="line"/>
      <point x="768.0" y="0.0" type="line"/>
      <point x="768.0" y="176.0" type="line"/>
      <point x="826.0" y="210.0" type="line"/>
    </contour>
  </outline>
</glyph>
<glyph name="L" format="2">
  <advance width="1099"/>
  <unicode hex="004C"/>
  <outline>
    <contour>
      <point x="28" y="0" type="line"/>
      <point x="28" y="176" type="line"/>
      <point x="134" y="214" type="line"/>
      <point x="136" y="754" type="line"/>
      <point x="134" y="1278" type="line"/>
      <point x="14" y="1312" type="line"/>
      <point x="14" y="1500" type="line"/>
      <point x="778" y="1500" type="line"/>
      <point x="778" y="1312" type="line"/>
      <point x="663" y="1278" type="line"/>
      <point x="659" y="754" type="line"/>
      <point x="664" y="206" type="line"/>
      <point x="684" y="183" type="line"/>
      <point x="837" y="183" type="line"/>
      <point x="891" y="430" type="line"/>
      <point x="1094" y="430" type="line"/>
      <point x="1070" y="0" type="line"/>
    </contour>
  </outline>
</glyph>
<glyph name="N" format="2">
  <advance width="1270"/>
  <unicode hex="004E"/>
  <outline>
    <contour>
      <point x="-4.0" y="0.0" type="line"/>
      <point x="-4.0" y="176.0" type="line"/>
      <point x="95.0" y="210.0" type="line"/>
      <point x="96.0" y="754.0" type="line"/>
      <point x="95.0" y="1279.0" type="line"/>
      <point x="-4.0" y="1313.0" type="line"/>
      <point x="-4.0" y="1500.0" type="line"/>
      <point x="640.0" y="1500.0" type="line"/>
      <point x="869.0" y="933.0" type="line"/>
      <point x="987.0" y="573.0" type="line"/>
      <point x="978.0" y="803.0" type="line"/>
      <point x="975.0" y="1279.0" type="line"/>
      <point x="908.0" y="1313.0" type="line"/>
      <point x="908.0" y="1500.0" type="line"/>
      <point x="1269.0" y="1500.0" type="line"/>
      <point x="1269.0" y="1313.0" type="line"/>
      <point x="1174.0" y="1279.0" type="line"/>
      <point x="1172.0" y="779.0" type="line"/>
      <point x="1169.0" y="-4.0" type="line"/>
      <point x="675.0" y="-4.0" type="line"/>
      <point x="424.0" y="653.0" type="line"/>
      <point x="283.0" y="1026.0" type="line"/>
      <point x="292.0" y="701.0" type="line"/>
      <point x="294.0" y="210.0" type="line"/>
      <point x="361.0" y="176.0" type="line"/>
      <point x="361.0" y="0.0" type="line"/>
    </contour>
  </outline>
</glyph>
<glyph name="O" format="2">
  <advance width="1429"/>
  <unicode hex="004F"/>
  <outline>
    <contour>
      <point x="49.0" y="747.0" type="qcurve" smooth="yes"/>
      <point x="49.0" y="1076.0"/>
      <point x="412.0" y="1527.0"/>
      <point x="715.0" y="1527.0" type="qcurve" smooth="yes"/>
      <point x="1019.0" y="1527.0"/>
      <point x="1380.0" y="1105.0"/>
      <point x="1380.0" y="762.0" type="qcurve" smooth="yes"/>
      <point x="1380.0" y="435.0"/>
      <point x="1023.0" y="-16.0"/>
      <point x="718.0" y="-16.0" type="qcurve" smooth="yes"/>
      <point x="411.0" y="-16.0"/>
      <point x="49.0" y="409.0"/>
    </contour>
    <contour>
      <point x="629.0" y="755" type="qcurve" smooth="yes"/>
      <point x="629.0" y="306.0"/>
      <point x="655.0" y="201.0"/>
      <point x="716.0" y="201.0" type="qcurve" smooth="yes"/>
      <point x="777" y="201"/>
      <point x="802.0" y="310.0"/>
      <point x="802.0" y="759.0" type="qcurve" smooth="yes"/>
      <point x="802" y="1208"/>
      <point x="764" y="1308"/>
      <point x="714" y="1308.0" type="qcurve" smooth="yes"/>
      <point x="664.0" y="1308.0"/>
      <point x="629" y="1204"/>
    </contour>
  </outline>
</glyph>
<glyph name="Q" format="2">
  <advance width="1429"/>
  <unicode hex="0051"/>
  <outline>
    <contour>
      <point x="49.0" y="738.0" type="qcurve" smooth="yes"/>
      <point x="49.0" y="1078.0"/>
      <point x="399.0" y="1527.0"/>
      <point x="715.0" y="1527.0" type="qcurve" smooth="yes"/>
      <point x="1035.0" y="1527.0"/>
      <point x="1380.0" y="1107.0"/>
      <point x="1380.0" y="760.0" type="qcurve" smooth="yes"/>
      <point x="1380.0" y="453.0"/>
      <point x="1051.0" y="-19.0"/>
      <point x="722.0" y="-19.0" type="qcurve" smooth="yes"/>
      <point x="430.0" y="-19.0"/>
      <point x="49.0" y="384.0"/>
    </contour>
    <contour>
      <point x="626.0" y="783.0" type="qcurve" smooth="yes"/>
      <point x="624.0" y="485.0"/>
      <point x="680.0" y="221.0"/>
      <point x="717.0" y="221.0" type="qcurve" smooth="yes"/>
      <point x="762.0" y="221.0"/>
      <point x="801.0" y="440.0"/>
      <point x="799.0" y="760.0" type="qcurve" smooth="yes"/>
      <point x="797.0" y="1054.0"/>
      <point x="751.0" y="1308.0"/>
      <point x="713.0" y="1308.0" type="qcurve" smooth="yes"/>
      <point x="672.0" y="1308.0"/>
      <point x="628.0" y="1084.0"/>
    </contour>
    <contour>
      <point x="243.0" y="-503.0" type="qcurve"/>
      <point x="128.0" y="-399.0" type="line"/>
      <point x="180.0" y="-227.0"/>
      <point x="350.0" y="-56.0"/>
      <point x="432.0" y="-42.0" type="qcurve"/>
      <point x="629.0" y="128.0" type="line"/>
      <point x="718.0" y="26.0" type="line"/>
      <point x="583.0" y="-62.0" type="line"/>
      <point x="944.0" y="-170.0" type="line"/>
      <point x="1052.0" y="-170.0"/>
      <point x="1166.0" y="-90.0"/>
      <point x="1192.0" y="-4.0" type="qcurve"/>
      <point x="1332.0" y="-75.0" type="line"/>
      <point x="1308.0" y="-254.0"/>
      <point x="1157.0" y="-507.0"/>
      <point x="1036.0" y="-507.0" type="qcurve"/>
      <point x="535.0" y="-353.0" type="line"/>
      <point x="397.0" y="-347.0"/>
      <point x="284.0" y="-401.0"/>
    </contour>
  </outline>
</glyph>
<glyph name="R" format="2">
  <advance width="1584"/>
  <unicode hex="0052"/>
  <outline>
    <contour>
      <point x="-4.0" y="0.0" type="line"/>
      <point x="-4.0" y="175.0" type="line"/>
      <point x="124.0" y="209.0" type="line"/>
      <point x="126.0" y="674.0" type="line"/>
      <point x="124.0" y="1278.0" type="line"/>
      <point x="-4.0" y="1312.0" type="line"/>
      <point x="-4.0" y="1500.0" type="line"/>
      <point x="991.0" y="1500.0" type="line" smooth="yes"/>
      <point x="1153.0" y="1499.0"/>
      <point x="1365.0" y="1264.0"/>
      <point x="1365.0" y="1073.0" type="qcurve" smooth="yes"/>
      <point x="1365.0" y="891.0"/>
      <point x="1144.0" y="631.0"/>
      <point x="946.0" y="631.0" type="qcurve" smooth="yes"/>
      <point x="898.0" y="631.0"/>
      <point x="440.0" y="635.0"/>
      <point x="407.0" y="641.0" type="qcurve"/>
      <point x="406.0" y="845.0" type="line"/>
      <point x="700.0" y="845.0" type="line" smooth="yes"/>
      <point x="766.0" y="845.0"/>
      <point x="821.0" y="926.0"/>
      <point x="821.0" y="1062.0" type="qcurve" smooth="yes"/>
      <point x="821.0" y="1171.0"/>
      <point x="752.0" y="1282.0"/>
      <point x="701.0" y="1282.0" type="qcurve" smooth="yes"/>
      <point x="671.0" y="1282.0" type="line"/>
      <point x="658.0" y="1266.0" type="line"/>
      <point x="657.0" y="692.0" type="line"/>
      <point x="658.0" y="209.0" type="line"/>
      <point x="781.0" y="176.0" type="line"/>
      <point x="781.0" y="0.0" type="line"/>
    </contour>
    <contour>
      <point x="727.0" y="726.0" type="line"/>
      <point x="1180.0" y="846.0" type="line"/>
      <point x="1294.0" y="412.0" type="line" smooth="yes"/>
      <point x="1325.0" y="292.0"/>
      <point x="1398.0" y="185.0"/>
      <point x="1489.0" y="180.0" type="qcurve"/>
      <point x="1489.0" y="0.0" type="line"/>
      <point x="949.0" y="0.0" type="line"/>
      <point x="850.0" y="111.0" type="line"/>
    </contour>
  </outline>
</glyph>
<glyph name="T" format="2">
  <advance width="1317"/>
  <unicode hex="0054"/>
  <outline>
    <contour>
      <point x="33.0" y="1062.0" type="line"/>
      <point x="33.0" y="1500.0" type="line"/>
      <point x="1284.0" y="1500.0" type="line"/>
      <point x="1284.0" y="1062.0" type="line"/>
      <point x="1088.0" y="1062.0" type="line"/>
      <point x="1048.0" y="1296.0" type="line"/>
      <point x="941.0" y="1296.0" type="line"/>
      <point x="923.0" y="1280.0" type="line"/>
      <point x="924.0" y="754.0" type="line"/>
      <point x="925.0" y="209.0" type="line"/>
      <point x="1063.0" y="175.0" type="line"/>
      <point x="1063.0" y="0.0" type="line"/>
      <point x="252.0" y="0.0" type="line"/>
      <point x="252.0" y="175.0" type="line"/>
      <point x="390.0" y="209.0" type="line"/>
      <point x="392.0" y="754.0" type="line"/>
      <point x="393.0" y="1280.0" type="line"/>
      <point x="383.0" y="1296.0" type="line"/>
      <point x="268.0" y="1296.0" type="line"/>
      <point x="228.0" y="1062.0" type="line"/>
    </contour>
  </outline>
</glyph>
<glyph name="V" format="2">
  <advance width="1428"/>
  <unicode hex="0056"/>
  <outline>
    <contour>
      <point x="50.0" y="1314.0" type="line"/>
      <point x="50.0" y="1500.0" type="line"/>
      <point x="847.0" y="1500.0" type="line"/>
      <point x="847.0" y="1314.0" type="line"/>
      <point x="730.0" y="1286.0" type="line"/>
      <point x="797.0" y="852.0" type="line"/>
      <point x="895.0" y="399.0" type="line"/>
      <point x="972.0" y="837.0" type="line"/>
      <point x="1028.0" y="1280.0" type="line"/>
      <point x="898.0" y="1314.0" type="line"/>
      <point x="898.0" y="1500.0" type="line"/>
      <point x="1358.0" y="1500.0" type="line"/>
      <point x="1358.0" y="1314.0" type="line"/>
      <point x="1253.0" y="1284.0" type="line"/>
      <point x="1156.0" y="807.0" type="line"/>
      <point x="986.0" y="0.0" type="line"/>
      <point x="438.0" y="0.0" type="line"/>
      <point x="265.0" y="787.0" type="line"/>
      <point x="157.0" y="1284.0" type="line"/>
    </contour>
  </outline>
</glyph>
<glyph name="W" format="2">
  <advance width="1915"/>
  <unicode hex="0057"/>
  <outline>
    <contour>
      <point x="50.0" y="1314.0" type="line"/>
      <point x="50.0" y="1500.0" type="line"/>
      <point x="723.0" y="1500.0" type="line"/>
      <point x="723.0" y="1314.0" type="line"/>
      <point x="691.0" y="1286.0" type="line"/>
      <point x="730.0" y="840.0" type="line"/>
      <point x="770.0" y="508.0" type="line"/>
      <point x="872.0" y="941.0" type="line"/>
      <point x="941.0" y="1275.0" type="line"/>
      <point x="1065.0" y="982.0" type="line"/>
      <point x="1028.0" y="804.0" type="line"/>
      <point x="843.0" y="0.0" type="line"/>
      <point x="359.0" y="0.0" type="line"/>
      <point x="232.0" y="739.0" type="line"/>
      <point x="149.0" y="1283.0" type="line"/>
    </contour>
    <contour>
      <point x="812.0" y="1308.0" type="line"/>
      <point x="812.0" y="1500.0" type="line"/>
      <point x="1458.0" y="1500.0" type="line"/>
      <point x="1458.0" y="1308.0" type="line"/>
      <point x="1396.0" y="1281.0" type="line"/>
      <point x="1432.0" y="858.0" type="line"/>
      <point x="1479.0" y="533.0" type="line"/>
      <point x="1505.0" y="866.0" type="line"/>
      <point x="1543.0" y="1279.0" type="line"/>
      <point x="1457.0" y="1313.0" type="line"/>
      <point x="1457.0" y="1500.0" type="line"/>
      <point x="1845.0" y="1500.0" type="line"/>
      <point x="1845.0" y="1313.0" type="line"/>
      <point x="1752.0" y="1284.0" type="line"/>
      <point x="1691.0" y="810.0" type="line"/>
      <point x="1563.0" y="0.0" type="line"/>
      <point x="1088.0" y="0.0" type="line"/>
      <point x="987.0" y="700.0" type="line"/>
      <point x="888.0" y="1278.0" type="line"/>
    </contour>
  </outline>
</glyph>
<glyph name="X" format="2">
  <advance width="1486"/>
  <unicode hex="0058"/>
  <outline>
    <contour>
      <point x="50.0" y="0.0" type="line"/>
      <point x="50.0" y="177.0" type="line"/>
      <point x="151.0" y="211.0" type="line"/>
      <point x="644.0" y="852.0" type="line"/>
      <point x="778.0" y="852.0" type="line"/>
      <point x="1039.0" y="1275.0" type="line"/>
      <point x="977.0" y="1313.0" type="line"/>
      <point x="977.0" y="1500.0" type="line"/>
      <point x="1380.0" y="1500.0" type="line"/>
      <point x="1380.0" y="1313.0" type="line"/>
      <point x="1276.0" y="1276.0" type="line"/>
      <point x="878.0" y="708.0" type="line"/>
      <point x="741.0" y="708.0" type="line"/>
      <point x="390.0" y="212.0" type="line"/>
      <point x="471.0" y="177.0" type="line"/>
      <point x="471.0" y="0.0" type="line"/>
    </contour>
    <contour>
      <point x="65.0" y="1313.0" type="line"/>
      <point x="65.0" y="1500.0" type="line"/>
      <point x="899.0" y="1500.0" type="line"/>
      <point x="899.0" y="1313.0" type="line"/>
      <point x="822.0" y="1277.0" type="line"/>
      <point x="983.0" y="864.0" type="line"/>
      <point x="1291.0" y="210.0" type="line"/>
      <point x="1416.0" y="177.0" type="line"/>
      <point x="1416.0" y="0.0" type="line"/>
      <point x="582.0" y="0.0" type="line"/>
      <point x="582.0" y="177.0" type="line"/>
      <point x="655.0" y="210.0" type="line"/>
      <point x="482.0" y="704.0" type="line"/>
      <point x="195.0" y="1276.0" type="line"/>
    </contour>
  </outline>
</glyph>
<glyph name="backslash" format="2">
  <advance width="908"/>
  <unicode hex="005C"/>
  <outline>
    <contour>
      <point x="51.0" y="1502.0" type="line"/>
      <point x="368.0" y="1615.0" type="line"/>
      <point x="862.0" y="-63.0" type="line"/>
      <point x="544.0" y="-174.0" type="line"/>
    </contour>
  </outline>
</glyph>
<glyph name="asciicircum" format="2">
  <advance width="1021"/>
  <unicode hex="005E"/>
  <outline>
    <contour>
      <point x="56.0" y="943.0" type="line"/>
      <point x="95.0" y="1005.0"/>
      <point x="504.0" y="1524.0"/>
      <point x="497.0" y="1524.0" type="qcurve"/>
      <point x="496.0" y="1524.0"/>
      <point x="921.0" y="1000.0"/>
      <point x="965.0" y="938.0" type="qcurve"/>
      <point x="815.0" y="828.0" type="line"/>
      <point x="714.0" y="932.0"/>
      <point x="495.0" y="1145.0"/>
      <point x="499.0" y="1145.0" type="qcurve"/>
      <point x="505.0" y="1145.0"/>
      <point x="299.0" y="932.0"/>
      <point x="205.0" y="828.0" type="qcurve"/>
    </contour>
  </outline>
</glyph>
<glyph name="grave" format="2">
  <advance width="1024"/>
  <unicode hex="0060"/>
  <outline>
    <contour>
      <point x="259.0" y="1471.0" type="qcurve" smooth="yes"/>
      <point x="261.0" y="1508.0"/>
      <point x="336.0" y="1595.0"/>
      <point x="397.0" y="1595.0" type="qcurve" smooth="yes"/>
      <point x="442.0" y="1595.0"/>
      <point x="520.0" y="1527.0"/>
      <point x="560.0" y="1469.0" type="qcurve" smooth="yes"/>
      <point x="765.0" y="1203.0" type="line"/>
      <point x="675.0" y="1096.0" type="line"/>
      <point x="344.0" y="1318.0" type="line" smooth="yes"/>
      <point x="295.0" y="1351.0"/>
      <point x="257.0" y="1443.0"/>
    </contour>
  </outline>
</glyph>
<glyph name="a" format="2">
  <advance width="1199"/>
  <unicode hex="0061"/>
  <outline>
    <contour>
      <point x="-6.0" y="297.0" type="qcurve" smooth="yes"/>
      <point x="-6.0" y="486.0"/>
      <point x="231.0" y="694.0"/>
      <point x="532.0" y="678.0" type="qcurve"/>
      <point x="538.0" y="505.0" type="line"/>
      <point x="481.0" y="532.0"/>
      <point x="473.0" y="392.0"/>
      <point x="475.0" y="355.0" type="qcurve" smooth="yes"/>
      <point x="476.0" y="263.0"/>
      <point x="513" y="199"/>
      <point x="527" y="199.0" type="qcurve" smooth="yes"/>
      <point x="548" y="199.0"/>
      <point x="561.0" y="242.0"/>
      <point x="562.0" y="275.0" type="qcurve"/>
      <point x="563.0" y="736.0" type="line" smooth="yes"/>
      <point x="563.0" y="806.0"/>
      <point x="508.0" y="908.0"/>
      <point x="407.0" y="908.0" type="qcurve" smooth="yes"/>
      <point x="412.0" y="908.0"/>
      <point x="339.0" y="909.0"/>
      <point x="346.0" y="906.0" type="qcurve"/>
      <point x="366.0" y="901.0"/>
      <point x="411.0" y="852.0"/>
      <point x="408.0" y="791.0" type="qcurve" smooth="yes"/>
      <point x="400.0" y="738.0"/>
      <point x="319.0" y="672.0"/>
      <point x="246.0" y="667.0" type="qcurve" smooth="yes"/>
      <point x="172.0" y="662.0"/>
      <point x="68.0" y="728.0"/>
      <point x="68.0" y="814.0" type="qcurve" smooth="yes"/>
      <point x="68.0" y="967.0"/>
      <point x="316.0" y="1122.0"/>
      <point x="586.0" y="1122.0" type="qcurve" smooth="yes"/>
      <point x="825.0" y="1122.0"/>
      <point x="1074.0" y="950.0"/>
      <point x="1078.0" y="800.0" type="qcurve" smooth="yes"/>
      <point x="1086.0" y="212.0" type="line"/>
      <point x="1186.0" y="177.0" type="line"/>
      <point x="1186.0" y="0.0" type="line"/>
      <point x="610.0" y="0.0" type="line"/>
      <point x="582.0" y="40.0" type="line"/>
      <point x="581.0" y="86.0" type="line"/>
      <point x="557.0" y="39.0"/>
      <point x="480.0" y="-19.0"/>
      <point x="345.0" y="-19.0" type="qcurve" smooth="yes"/>
      <point x="167.0" y="-19.0"/>
      <point x="-6.0" y="110.0"/>
    </contour>
  </outline>
</glyph>
<glyph name="d" format="2">
  <advance width="1308"/>
  <unicode hex="0064"/>
  <outline>
    <contour>
      <point x="39.0" y="547.0" type="qcurve" smooth="yes"/>
      <point x="39.0" y="832.0"/>
      <point x="313.0" y="1116.0"/>
      <point x="503.0" y="1116.0" type="qcurve" smooth="yes"/>
      <point x="567.0" y="1116.0"/>
      <point x="644.0" y="1093.0"/>
      <point x="675.0" y="1069.0" type="qcurve"/>
      <point x="680.0" y="1282.0" type="line"/>
      <point x="584.0" y="1316.0" type="line"/>
      <point x="584.0" y="1500.0" type="line"/>
      <point x="1108.0" y="1534.0" type="line"/>
      <point x="1141.0" y="1534.0" type="line"/>
      <point x="1198.0" y="1487.0" type="line"/>
      <point x="1196.0" y="526.0" type="line"/>
      <point x="1201.0" y="212.0" type="line"/>
      <point x="1308.0" y="177.0" type="line"/>
      <point x="1308.0" y="0.0" type="line"/>
      <point x="736.0" y="0.0" type="line"/>
      <point x="693.0" y="49.0" type="line"/>
      <point x="689.0" y="37.0" type="line"/>
      <point x="655.0" y="7.0"/>
      <point x="511.0" y="-18.0"/>
      <point x="429.0" y="-18.0" type="qcurve" smooth="yes"/>
      <point x="261.0" y="-18.0"/>
      <point x="39.0" y="275.0"/>
    </contour>
    <contour>
      <point x="586.0" y="547.0" type="qcurve" smooth="yes"/>
      <point x="586.0" y="347.0"/>
      <point x="598.0" y="213.0"/>
      <point x="620.0" y="213.0" type="qcurve" smooth="yes"/>
      <point x="616.0" y="213.0"/>
      <point x="662.0" y="235.0"/>
      <point x="678.0" y="257.0" type="qcurve"/>
      <point x="670.0" y="538.0" type="line"/>
      <point x="662.0" y="829.0" type="line"/>
      <point x="677.0" y="844.0"/>
      <point x="654.0" y="866.0"/>
      <point x="646.0" y="866.0" type="qcurve" smooth="yes"/>
      <point x="612.0" y="866.0"/>
      <point x="586.0" y="753.0"/>
    </contour>
  </outline>
</glyph>
<glyph name="e" format="2">
  <advance width="1012"/>
  <unicode hex="0065"/>
  <outline>
    <contour>
      <point x="40.0" y="541.0" type="qcurve" smooth="yes"/>
      <point x="40.0" y="824.0"/>
      <point x="328.0" y="1124.0"/>
      <point x="585.0" y="1124.0" type="qcurve" smooth="yes"/>
      <point x="818.0" y="1124.0"/>
      <point x="1060.0" y="881.0"/>
      <point x="1062.0" y="647.0" type="qcurve"/>
      <point x="1062.0" y="495.0" type="line"/>
      <point x="479.0" y="495.0" type="line"/>
      <point x="479.0" y="675.0" type="line"/>
      <point x="646.0" y="675.0" type="line"/>
      <point x="653.0" y="821.0"/>
      <point x="670.0" y="921.0"/>
      <point x="625.0" y="921.0" type="qcurve" smooth="yes"/>
      <point x="591.0" y="921.0"/>
      <point x="569.0" y="796.0"/>
      <point x="570.0" y="584.0" type="qcurve" smooth="yes"/>
      <point x="570.0" y="389.0"/>
      <point x="630.0" y="211.0"/>
      <point x="718.0" y="211.0" type="qcurve" smooth="yes"/>
      <point x="805.0" y="211.0"/>
      <point x="913.0" y="291.0"/>
      <point x="956.0" y="340.0" type="qcurve"/>
      <point x="1061.0" y="210.0" type="line"/>
      <point x="1016.0" y="122.0"/>
      <point x="790.0" y="-22.0"/>
      <point x="605.0" y="-22.0" type="qcurve" smooth="yes"/>
      <point x="359.0" y="-22.0"/>
      <point x="40.0" y="283.0"/>
    </contour>
  </outline>
</glyph>
<glyph name="g" format="2">
  <advance width="1050"/>
  <unicode hex="0067"/>
  <outline>
    <contour>
      <point x="-23.0" y="-224.0" type="qcurve" smooth="yes"/>
      <point x="-23.0" y="-124.0"/>
      <point x="190.0" y="21.0"/>
      <point x="384.0" y="40.0" type="qcurve"/>
      <point x="416.0" y="-18.0" type="line"/>
      <point x="331.0" y="-45.0"/>
      <point x="228.0" y="-149.0"/>
      <point x="228.0" y="-203.0" type="qcurve" smooth="yes"/>
      <point x="228.0" y="-261.0"/>
      <point x="337" y="-332"/>
      <point x="447.0" y="-332.0" type="qcurve" smooth="yes"/>
      <point x="567" y="-332"/>
      <point x="683" y="-271"/>
      <point x="683.0" y="-222.0" type="qcurve" smooth="yes"/>
      <point x="683.0" y="-183.0"/>
      <point x="617.0" y="-144.0"/>
      <point x="477.0" y="-143.0" type="qcurve" smooth="yes"/>
      <point x="250" y="-141"/>
      <point x="23.0" y="42.0"/>
      <point x="23.0" y="160.0" type="qcurve" smooth="yes"/>
      <point x="23.0" y="242.0"/>
      <point x="123.0" y="368.0"/>
      <point x="212.0" y="415.0" type="qcurve"/>
      <point x="310.0" y="341.0" type="line"/>
      <point x="273.0" y="317.0"/>
      <point x="240.0" y="270.0"/>
      <point x="240.0" y="238" type="qcurve" smooth="yes"/>
      <point x="240.0" y="211.0"/>
      <point x="293" y="185"/>
      <point x="515.0" y="181.0" type="qcurve" smooth="yes"/>
      <point x="832" y="176"/>
      <point x="1081.0" y="19.0"/>
      <point x="1081.0" y="-133.0" type="qcurve" smooth="yes"/>
      <point x="1081.0" y="-293.0"/>
      <point x="809.0" y="-496.0"/>
      <point x="513.0" y="-496.0" type="qcurve" smooth="yes"/>
      <point x="237" y="-496"/>
      <point x="-23.0" y="-342.0"/>
    </contour>
    <contour>
      <point x="58.0" y="686.0" type="qcurve" smooth="yes"/>
      <point x="58.0" y="890.0"/>
      <point x="307" y="1119"/>
      <point x="531.0" y="1119.0" type="qcurve" smooth="yes"/>
      <point x="740" y="1119.0"/>
      <point x="1008.0" y="869"/>
      <point x="1008.0" y="691.0" type="qcurve" smooth="yes"/>
      <point x="1008" y="500"/>
      <point x="755.0" y="256.0"/>
      <point x="536.0" y="256.0" type="qcurve" smooth="yes"/>
      <point x="317" y="256"/>
      <point x="58.0" y="490.0"/>
    </contour>
    <contour>
      <point x="479.0" y="687.0" type="qcurve" smooth="yes"/>
      <point x="479" y="522"/>
      <point x="494" y="438"/>
      <point x="529.0" y="438.0" type="qcurve" smooth="yes"/>
      <point x="574" y="438.0"/>
      <point x="592" y="519"/>
      <point x="592.0" y="682.0" type="qcurve" smooth="yes"/>
      <point x="592" y="858"/>
      <point x="574.0" y="935.0"/>
      <point x="536.0" y="935.0" type="qcurve" smooth="yes"/>
      <point x="502" y="935"/>
      <point x="479" y="864"/>
    </contour>
    <contour>
      <point x="621.0" y="956.0" type="line"/>
      <point x="610.0" y="1093.0" type="line"/>
      <point x="1050.0" y="1101.0" type="line"/>
      <point x="1050.0" y="905.0" type="line"/>
    </contour>
  </outline>
</glyph>
<glyph name="h" format="2">
  <advance width="1354"/>
  <unicode hex="0068"/>
  <outline>
    <contour>
      <point x="3.0" y="0.0" type="line"/>
      <point x="3.0" y="177.0" type="line"/>
      <point x="109.0" y="212.0" type="line"/>
      <point x="111.0" y="587.0" type="line"/>
      <point x="109.0" y="1275.0" type="line"/>
      <point x="10.0" y="1309.0" type="line"/>
      <point x="10.0" y="1500.0" type="line"/>
      <point x="536.0" y="1534.0" type="line"/>
      <point x="568.0" y="1534.0" type="line"/>
      <point x="625.0" y="1487.0" type="line"/>
      <point x="623.0" y="996.0" type="line"/>
      <point x="673.0" y="1038.0"/>
      <point x="843.0" y="1116.0"/>
      <point x="974.0" y="1116.0" type="qcurve" smooth="yes"/>
      <point x="1117.0" y="1116.0"/>
      <point x="1245.0" y="964.0"/>
      <point x="1245.0" y="843.0" type="qcurve" smooth="yes"/>
      <point x="1245.0" y="797.0"/>
      <point x="1247.0" y="627.0"/>
      <point x="1247.0" y="621.0" type="qcurve"/>
      <point x="1251.0" y="212.0" type="line"/>
      <point x="1356.0" y="177.0" type="line"/>
      <point x="1356.0" y="0.0" type="line"/>
      <point x="690.0" y="0.0" type="line"/>
      <point x="690.0" y="177.0" type="line"/>
      <point x="726.0" y="212.0" type="line"/>
      <point x="728.0" y="570.0" type="line"/>
      <point x="728.0" y="694.0" type="line" smooth="yes"/>
      <point x="728.0" y="781.0"/>
      <point x="695.0" y="816.0"/>
      <point x="681.0" y="816.0" type="qcurve" smooth="yes"/>
      <point x="655.0" y="816.0"/>
      <point x="629.0" y="767.0"/>
      <point x="626.0" y="745.0" type="qcurve"/>
      <point x="623.0" y="570.0" type="line"/>
      <point x="624.0" y="212.0" type="line"/>
      <point x="682.0" y="177.0" type="line"/>
      <point x="682.0" y="0.0" type="line"/>
    </contour>
  </outline>
</glyph>
<glyph name="i" format="2">
  <advance width="714"/>
  <unicode hex="0069"/>
  <outline>
    <contour>
      <point x="21.0" y="0.0" type="line"/>
      <point x="21.0" y="177.0" type="line"/>
      <point x="120.0" y="212.0" type="line"/>
      <point x="122.0" y="577.0" type="line"/>
      <point x="120.0" y="850.0" type="line"/>
      <point x="18.0" y="880.0" type="line"/>
      <point x="18.0" y="1071.0" type="line"/>
      <point x="518.0" y="1102.0" type="line"/>
      <point x="596.0" y="1102.0" type="line"/>
      <point x="639.0" y="1058.0" type="line"/>
      <point x="633.0" y="577.0" type="line"/>
      <point x="635.0" y="212.0" type="line"/>
      <point x="712.0" y="177.0" type="line"/>
      <point x="712.0" y="0.0" type="line"/>
    </contour>
    <contour>
      <point x="96" y="1362.0" type="qcurve" smooth="yes"/>
      <point x="96" y="1457.0"/>
      <point x="239" y="1584.0"/>
      <point x="370" y="1584.0" type="qcurve" smooth="yes"/>
      <point x="496" y="1584.0"/>
      <point x="650" y="1462.0"/>
      <point x="649" y="1362.0" type="qcurve" smooth="yes"/>
      <point x="649" y="1275.0"/>
      <point x="506" y="1158.0"/>
      <point x="372" y="1158.0" type="qcurve" smooth="yes"/>
      <point x="247" y="1158.0"/>
      <point x="96" y="1278.0"/>
    </contour>
  </outline>
</glyph>
<glyph name="j" format="2">
  <advance width="710"/>
  <unicode hex="006A"/>
  <outline>
    <contour>
      <point x="-75" y="-480" type="qcurve"/>
      <point x="-75" y="-279" type="line"/>
      <point x="27" y="-286"/>
      <point x="99" y="-148"/>
      <point x="99" y="-15" type="qcurve" smooth="yes"/>
      <point x="99" y="577" type="line"/>
      <point x="100" y="850" type="line"/>
      <point x="3" y="880" type="line"/>
      <point x="3" y="1070" type="line"/>
      <point x="499" y="1102" type="line"/>
      <point x="577" y="1102" type="line"/>
      <point x="620" y="1058" type="line"/>
      <point x="613" y="577" type="line"/>
      <point x="616" y="-24" type="line" smooth="yes"/>
      <point x="617" y="-247"/>
      <point x="329" y="-502"/>
    </contour>
    <contour>
      <point x="67" y="1346" type="qcurve" smooth="yes"/>
      <point x="67" y="1428"/>
      <point x="219" y="1535"/>
      <point x="360" y="1535" type="qcurve" smooth="yes"/>
      <point x="495" y="1535"/>
      <point x="658" y="1431"/>
      <point x="657" y="1346" type="qcurve" smooth="yes"/>
      <point x="657" y="1275"/>
      <point x="512" y="1164"/>
      <point x="362" y="1164" type="qcurve" smooth="yes"/>
      <point x="221" y="1164"/>
      <point x="67" y="1277"/>
    </contour>
  </outline>
</glyph>
<glyph name="m" format="2">
  <advance width="1897"/>
  <unicode hex="006D"/>
  <outline>
    <contour>
      <point x="3.0" y="0.0" type="line"/>
      <point x="3.0" y="177.0" type="line"/>
      <point x="103.0" y="212.0" type="line"/>
      <point x="105.0" y="577.0" type="line"/>
      <point x="103.0" y="850.0" type="line"/>
      <point x="3.0" y="880.0" type="line"/>
      <point x="3.0" y="1070.0" type="line"/>
      <point x="550.0" y="1112.0" type="line"/>
      <point x="585.0" y="1085.0" type="line"/>
      <point x="598.0" y="981.0" type="line"/>
      <point x="644.0" y="1046.0"/>
      <point x="801.0" y="1117.0"/>
      <point x="937.0" y="1117.0" type="qcurve" smooth="yes"/>
      <point x="1037.0" y="1117.0"/>
      <point x="1156.0" y="1041.0"/>
      <point x="1182.0" y="975.0" type="qcurve"/>
      <point x="1230.0" y="1045.0"/>
      <point x="1375.0" y="1116.0"/>
      <point x="1516.0" y="1116.0" type="qcurve" smooth="yes"/>
      <point x="1660.0" y="1116.0"/>
      <point x="1788.0" y="965.0"/>
      <point x="1788.0" y="843.0" type="qcurve" smooth="yes"/>
      <point x="1787.0" y="785.0"/>
      <point x="1790.0" y="570.0"/>
      <point x="1790.0" y="621.0" type="qcurve" smooth="yes"/>
      <point x="1794.0" y="211.0" type="line"/>
      <point x="1899.0" y="177.0" type="line"/>
      <point x="1899.0" y="0.0" type="line"/>
      <point x="1254.0" y="0.0" type="line"/>
      <point x="1254.0" y="177.0" type="line"/>
      <point x="1270.0" y="212.0" type="line"/>
      <point x="1271.0" y="574.0" type="line"/>
      <point x="1271.0" y="697.0" type="line" smooth="yes"/>
      <point x="1271.0" y="772.0"/>
      <point x="1246.0" y="819.0"/>
      <point x="1228.0" y="819.0" type="qcurve" smooth="yes"/>
      <point x="1225.0" y="819.0"/>
      <point x="1206.0" y="793.0"/>
      <point x="1202.0" y="759.0" type="qcurve"/>
      <point x="1207.0" y="690.0"/>
      <point x="1203.0" y="618.0"/>
      <point x="1203.0" y="584.0" type="qcurve" smooth="yes"/>
      <point x="1202.0" y="212.0" type="line"/>
      <point x="1235.0" y="177.0" type="line"/>
      <point x="1235.0" y="0.0" type="line"/>
      <point x="660.0" y="0.0" type="line"/>
      <point x="660.0" y="177.0" type="line"/>
      <point x="686.0" y="212.0" type="line"/>
      <point x="686.0" y="610.0" type="line"/>
      <point x="686.0" y="730.0" type="line" smooth="yes"/>
      <point x="686.0" y="788.0"/>
      <point x="674.0" y="818.0"/>
      <point x="654.0" y="819.0" type="qcurve" smooth="yes"/>
      <point x="647.0" y="820.0"/>
      <point x="622.0" y="792.0"/>
      <point x="618.0" y="757.0" type="qcurve"/>
      <point x="618.0" y="570.0" type="line"/>
      <point x="618.0" y="212.0" type="line"/>
      <point x="653.0" y="177.0" type="line"/>
      <point x="653.0" y="0.0" type="line"/>
    </contour>
  </outline>
</glyph>
<glyph name="n" format="2">
  <advance width="1337"/>
  <unicode hex="006E"/>
  <outline>
    <contour>
      <point x="3.0" y="0.0" type="line"/>
      <point x="3.0" y="177.0" type="line"/>
      <point x="103.0" y="212.0" type="line"/>
      <point x="105.0" y="587.0" type="line"/>
      <point x="103.0" y="850.0" type="line"/>
      <point x="3.0" y="880.0" type="line"/>
      <point x="3.0" y="1070.0" type="line"/>
      <point x="549.0" y="1112.0" type="line"/>
      <point x="584.0" y="1085.0" type="line"/>
      <point x="599.0" y="963.0" type="line"/>
      <point x="648.0" y="1021.0"/>
      <point x="819.0" y="1117.0"/>
      <point x="967.0" y="1117.0" type="qcurve" smooth="yes"/>
      <point x="1111.0" y="1117.0"/>
      <point x="1244.0" y="965.0"/>
      <point x="1244.0" y="844.0" type="qcurve" smooth="yes"/>
      <point x="1244.0" y="796.0"/>
      <point x="1240.0" y="609.0"/>
      <point x="1240.0" y="621.0" type="qcurve" smooth="yes"/>
      <point x="1244.0" y="211.0" type="line"/>
      <point x="1349.0" y="177.0" type="line"/>
      <point x="1349.0" y="0.0" type="line"/>
      <point x="678.0" y="0.0" type="line"/>
      <point x="678.0" y="177.0" type="line"/>
      <point x="719.0" y="212.0" type="line"/>
      <point x="721.0" y="570.0" type="line"/>
      <point x="721.0" y="695.0" type="line" smooth="yes"/>
      <point x="721.0" y="765.0"/>
      <point x="694.0" y="818.0"/>
      <point x="674.0" y="818.0" type="qcurve" smooth="yes"/>
      <point x="659.0" y="818.0"/>
      <point x="629.0" y="777.0"/>
      <point x="618.0" y="746.0" type="qcurve"/>
      <point x="616.0" y="570.0" type="line"/>
      <point x="617.0" y="212.0" type="line"/>
      <point x="675.0" y="177.0" type="line"/>
      <point x="675.0" y="0.0" type="line"/>
    </contour>
  </outline>
</glyph>
<glyph name="o" format="2">
  <advance width="1240"/>
  <unicode hex="006F"/>
  <outline>
    <contour>
      <point x="38.0" y="550.0" type="qcurve" smooth="yes"/>
      <point x="38.0" y="820.0"/>
      <point x="354.0" y="1123.0"/>
      <point x="621.0" y="1123.0" type="qcurve" smooth="yes"/>
      <point x="891.0" y="1123.0"/>
      <point x="1202.0" y="841.0"/>
      <point x="1202.0" y="556.0" type="qcurve" smooth="yes"/>
      <point x="1202.0" y="287.0"/>
      <point x="892.0" y="-22.0"/>
      <point x="623.0" y="-22.0" type="qcurve" smooth="yes"/>
      <point x="355.0" y="-22.0"/>
      <point x="38.0" y="264.0"/>
    </contour>
    <contour>
      <point x="583.0" y="562.0" type="qcurve" smooth="yes"/>
      <point x="584.0" y="340.0"/>
      <point x="592.0" y="177.0"/>
      <point x="622.0" y="177.0" type="qcurve" smooth="yes"/>
      <point x="654.0" y="177.0"/>
      <point x="658.0" y="321.0"/>
      <point x="658.0" y="549.0" type="qcurve" smooth="yes"/>
      <point x="658.0" y="764.0"/>
      <point x="651.0" y="906.0"/>
      <point x="621.0" y="906.0" type="qcurve" smooth="yes"/>
      <point x="588.0" y="906.0"/>
      <point x="582.0" y="782.0"/>
    </contour>
  </outline>
</glyph>
<glyph name="t" format="2">
  <advance width="857"/>
  <unicode hex="0074"/>
  <outline>
    <contour>
      <point x="12.0" y="867.0" type="line"/>
      <point x="12.0" y="1056.0" type="line"/>
      <point x="148.0" y="1086.0"/>
      <point x="283.0" y="1189.0"/>
      <point x="315.0" y="1369.0" type="qcurve"/>
      <point x="611.0" y="1369.0" type="line"/>
      <point x="658.0" y="1318.0" type="line"/>
      <point x="653.0" y="1074.0" type="line"/>
      <point x="840.0" y="1074.0" type="line"/>
      <point x="840.0" y="865.0" type="line"/>
      <point x="647.0" y="865.0" type="line"/>
      <point x="645.0" y="577.0" type="line"/>
      <point x="655.0" y="323.0" type="line" smooth="yes"/>
      <point x="657.0" y="274.0"/>
      <point x="698.0" y="223.0"/>
      <point x="735.0" y="223.0" type="qcurve" smooth="yes"/>
      <point x="881.0" y="223.0" type="line"/>
      <point x="881.0" y="31.0" type="line"/>
      <point x="385.0" y="-15.0" type="line"/>
      <point x="252.0" y="-15.0"/>
      <point x="113.0" y="92.0"/>
      <point x="115.0" y="208.0" type="qcurve" smooth="yes"/>
      <point x="130.0" y="577.0" type="line"/>
      <point x="129.0" y="849.0" type="line"/>
    </contour>
  </outline>
</glyph>
<glyph name="w" format="2">
  <advance width="1683"/>
  <unicode hex="0077"/>
  <outline>
    <contour>
      <point x="10.0" y="910.0" type="line"/>
      <point x="10.0" y="1100.0" type="line"/>
      <point x="640.0" y="1100.0" type="line"/>
      <point x="640.0" y="923.0" type="line"/>
      <point x="624.0" y="878.0" type="line"/>
      <point x="653.0" y="626.0" type="line"/>
      <point x="675.0" y="436.0" type="line"/>
      <point x="701.0" y="588.0" type="line"/>
      <point x="772.0" y="927.0" type="line"/>
      <point x="916.0" y="834.0" type="line"/>
      <point x="852.0" y="527.0" type="line"/>
      <point x="739.0" y="0.0" type="line"/>
      <point x="279.0" y="0.0" type="line"/>
      <point x="160.0" y="553.0" type="line"/>
      <point x="104.0" y="875.0" type="line"/>
    </contour>
    <contour>
      <point x="739.0" y="923.0" type="line"/>
      <point x="739.0" y="1100.0" type="line"/>
      <point x="1335.0" y="1100.0" type="line"/>
      <point x="1335.0" y="923.0" type="line"/>
      <point x="1284.0" y="878.0" type="line"/>
      <point x="1311.0" y="611.0" type="line"/>
      <point x="1318.0" y="444.0" type="line"/>
      <point x="1335.0" y="631.0" type="line"/>
      <point x="1363.0" y="879.0" type="line"/>
      <point x="1309.0" y="923.0" type="line"/>
      <point x="1309.0" y="1100.0" type="line"/>
      <point x="1623.0" y="1100.0" type="line"/>
      <point x="1623.0" y="910.0" type="line"/>
      <point x="1553.0" y="875.0" type="line"/>
      <point x="1517.0" y="594.0" type="line"/>
      <point x="1403.0" y="0.0" type="line"/>
      <point x="936.0" y="0.0" type="line"/>
      <point x="818.0" y="570.0" type="line"/>
      <point x="786.0" y="878.0" type="line"/>
    </contour>
  </outline>
</glyph>
<glyph name="y" format="2">
  <advance width="1239"/>
  <unicode hex="0079"/>
  <outline>
    <contour>
      <point x="9.0" y="907.0" type="line"/>
      <point x="10.0" y="1100.0" type="line"/>
      <point x="764.0" y="1100.0" type="line"/>
      <point x="764.0" y="913.0" type="line"/>
      <point x="686.0" y="877.0" type="line"/>
      <point x="749.0" y="619.0" type="line"/>
      <point x="796.0" y="407.0" type="line"/>
      <point x="839.0" y="634.0" type="line"/>
      <point x="871.0" y="878.0" type="line"/>
      <point x="797.0" y="913.0" type="line"/>
      <point x="797.0" y="1100.0" type="line"/>
      <point x="1179.0" y="1100.0" type="line"/>
      <point x="1179.0" y="907.0" type="line"/>
      <point x="1087.0" y="872.0" type="line"/>
      <point x="1021.0" y="588.0" type="line"/>
      <point x="885.0" y="49.0" type="line" smooth="yes"/>
      <point x="780.0" y="-292.0"/>
      <point x="450.0" y="-502.0"/>
      <point x="255.0" y="-502.0" type="qcurve"/>
      <point x="90.0" y="-434.0" type="line"/>
      <point x="90.0" y="-241.0" type="line"/>
      <point x="278.0" y="-249.0" type="line" smooth="yes"/>
      <point x="394.0" y="-254.0"/>
      <point x="538.0" y="-175.0"/>
      <point x="596.0" y="-53.0" type="qcurve" smooth="yes"/>
      <point x="621.0" y="12.0" type="line"/>
      <point x="408.0" y="12.0" type="line"/>
      <point x="236.0" y="507.0" type="line"/>
      <point x="119.0" y="872.0" type="line"/>
    </contour>
  </outline>
</glyph>
<glyph name="z" format="2">
  <advance width="981"/>
  <unicode hex="007A"/>
  <outline>
    <contour>
      <point x="42.0" y="0.0" type="line"/>
      <point x="42.0" y="176.0" type="line"/>
      <point x="400.0" y="884.0" type="line"/>
      <point x="259.0" y="884.0" type="line"/>
      <point x="235.0" y="715.0" type="line"/>
      <point x="58.0" y="715.0" type="line"/>
      <point x="58.0" y="1100.0" type="line"/>
      <point x="947.0" y="1100.0" type="line"/>
      <point x="947.0" y="925.0" type="line"/>
      <point x="627.0" y="209.0" type="line"/>
      <point x="752.0" y="209.0" type="line"/>
      <point x="776.0" y="375.0" type="line"/>
      <point x="959.0" y="375.0" type="line"/>
      <point x="959.0" y="0.0" type="line"/>
    </contour>
  </outline>
</glyph>
<glyph name="braceleft" format="2">
  <advance width="774"/>
  <unicode hex="007B"/>
  <outline>
    <contour>
      <point x="64.0" y="446.0" type="line"/>
      <point x="64.0" y="624.0" type="line"/>
      <point x="123.0" y="634.0" type="line" smooth="yes"/>
      <point x="149.0" y="640.0"/>
      <point x="257.0" y="667.0"/>
      <point x="257.0" y="741.0" type="qcurve" smooth="yes"/>
      <point x="257.0" y="839.0"/>
      <point x="77.0" y="1086.0"/>
      <point x="77.0" y="1194.0" type="qcurve" smooth="yes"/>
      <point x="77.0" y="1353.0"/>
      <point x="272.0" y="1510.0"/>
      <point x="404.0" y="1510.0" type="qcurve" smooth="yes"/>
      <point x="431.0" y="1510.0"/>
      <point x="683.0" y="1504.0"/>
      <point x="708.0" y="1500.0" type="qcurve"/>
      <point x="708.0" y="1341.0" type="line"/>
      <point x="667.0" y="1343.0"/>
      <point x="654.0" y="1343.0"/>
      <point x="614.0" y="1343.0" type="qcurve" smooth="yes"/>
      <point x="549.0" y="1343.0"/>
      <point x="503.0" y="1314.0"/>
      <point x="503.0" y="1228.0" type="qcurve" smooth="yes"/>
      <point x="503.0" y="1107.0"/>
      <point x="708.0" y="883.0"/>
      <point x="708.0" y="792.0" type="qcurve" smooth="yes"/>
      <point x="708.0" y="697.0"/>
      <point x="567.0" y="576.0"/>
      <point x="418.0" y="554.0" type="qcurve"/>
      <point x="572.0" y="531.0"/>
      <point x="708.0" y="408.0"/>
      <point x="708.0" y="331.0" type="qcurve" smooth="yes"/>
      <point x="708.0" y="230.0"/>
      <point x="493.0" y="-84.0"/>
      <point x="493.0" y="-204.0" type="qcurve" smooth="yes"/>
      <point x="493.0" y="-300.0"/>
      <point x="535.0" y="-317.0"/>
      <point x="602.0" y="-317.0" type="qcurve" smooth="yes"/>
      <point x="642.0" y="-317.0"/>
      <point x="663.0" y="-317.0"/>
      <point x="705.0" y="-315.0" type="qcurve"/>
      <point x="705.0" y="-482.0" type="line"/>
      <point x="675.0" y="-488.0"/>
      <point x="455.0" y="-495.0"/>
      <point x="418.0" y="-495.0" type="qcurve" smooth="yes"/>
      <point x="253.0" y="-495.0"/>
      <point x="67.0" y="-337.0"/>
      <point x="67.0" y="-178.0" type="qcurve" smooth="yes"/>
      <point x="67.0" y="-60.0"/>
      <point x="256.0" y="246.0"/>
      <point x="256.0" y="364.0" type="qcurve"/>
      <point x="256.0" y="446.0" type="line"/>
    </contour>
  </outline>
</glyph>
<glyph name="bar" format="2">
  <advance width="634"/>
  <unicode hex="007C"/>
  <outline>
    <contour>
      <point x="89.0" y="-466.0" type="line"/>
      <point x="110.0" y="-8.0" type="line"/>
      <point x="124.0" y="300.0" type="line"/>
      <point x="122.0" y="880.0" type="line"/>
      <point x="113.0" y="1188.0" type="line"/>
      <point x="91.0" y="1554.0" type="line"/>
      <point x="535.0" y="1576.0" type="line"/>
      <point x="516.0" y="1188.0" type="line"/>
      <point x="506.0" y="880.0" type="line"/>
      <point x="508.0" y="300.0" type="line"/>
      <point x="515.0" y="-8.0" type="line"/>
      <point x="537.0" y="-444.0" type="line"/>
    </contour>
  </outline>
</glyph>
<glyph name="braceright" format="2">
  <advance width="774"/>
  <unicode hex="007D"/>
  <outline>
    <contour>
      <point x="69.0" y="-482.0" type="qcurve"/>
      <point x="69.0" y="-315.0" type="line"/>
      <point x="111.0" y="-317.0"/>
      <point x="172.0" y="-317.0"/>
      <point x="212.0" y="-317.0" type="qcurve" smooth="yes"/>
      <point x="279.0" y="-317.0"/>
      <point x="321.0" y="-277.0"/>
      <point x="321.0" y="-204.0" type="qcurve" smooth="yes"/>
      <point x="321.0" y="-84.0"/>
      <point x="66.0" y="230.0"/>
      <point x="66.0" y="331.0" type="qcurve" smooth="yes"/>
      <point x="66.0" y="408.0"/>
      <point x="197.0" y="531.0"/>
      <point x="351.0" y="554.0" type="qcurve"/>
      <point x="202.0" y="576.0"/>
      <point x="66.0" y="697.0"/>
      <point x="66.0" y="792.0" type="qcurve" smooth="yes"/>
      <point x="66.0" y="883.0"/>
      <point x="231.0" y="1107.0"/>
      <point x="231.0" y="1228.0" type="qcurve" smooth="yes"/>
      <point x="231.0" y="1297.0"/>
      <point x="190.0" y="1343.0"/>
      <point x="125.0" y="1343.0" type="qcurve" smooth="yes"/>
      <point x="85.0" y="1343.0"/>
      <point x="108.0" y="1343.0"/>
      <point x="66.0" y="1341.0" type="qcurve"/>
      <point x="66.0" y="1500.0" type="line"/>
      <point x="92.0" y="1504.0"/>
      <point x="303.0" y="1510.0"/>
      <point x="330.0" y="1510.0" type="qcurve" smooth="yes"/>
      <point x="462.0" y="1510.0"/>
      <point x="657.0" y="1353.0"/>
      <point x="657.0" y="1194.0" type="qcurve" smooth="yes"/>
      <point x="657.0" y="1086.0"/>
      <point x="518.0" y="839.0"/>
      <point x="518.0" y="741.0" type="qcurve" smooth="yes"/>
      <point x="518.0" y="677.0"/>
      <point x="625.0" y="638.0"/>
      <point x="651.0" y="634.0" type="qcurve" smooth="yes"/>
      <point x="711.0" y="624.0" type="line"/>
      <point x="711.0" y="446.0" type="line"/>
      <point x="519.0" y="446.0" type="line"/>
      <point x="519.0" y="364.0" type="line"/>
      <point x="519.0" y="246.0"/>
      <point x="747.0" y="-60.0"/>
      <point x="747.0" y="-178.0" type="qcurve" smooth="yes"/>
      <point x="747.0" y="-337.0"/>
      <point x="561.0" y="-495.0"/>
      <point x="396.0" y="-495.0" type="qcurve" smooth="yes"/>
      <point x="359.0" y="-495.0"/>
      <point x="99.0" y="-488.0"/>
    </contour>
  </outline>
</glyph>
<glyph name="asciitilde" format="2">
  <advance width="737"/>
  <unicode hex="007E"/>
  <outline>
    <contour>
      <point x="-1.0" y="620.0" type="line"/>
      <point x="29.0" y="710.0"/>
      <point x="199.0" y="865.0"/>
      <point x="257.0" y="865.0" type="qcurve"/>
      <point x="474.0" y="766.0" type="line"/>
      <point x="524.0" y="766.0"/>
      <point x="574.0" y="830.0"/>
      <point x="597.0" y="877.0" type="qcurve"/>
      <point x="728.0" y="743.0" type="line"/>
      <point x="698.0" y="640.0"/>
      <point x="537.0" y="467.0"/>
      <point x="470.0" y="467.0" type="qcurve"/>
      <point x="260.0" y="565.0" type="line"/>
      <point x="213.0" y="565.0"/>
      <point x="132.0" y="499.0"/>
      <point x="93.0" y="455.0" type="qcurve"/>
    </contour>
  </outline>
</glyph>
<glyph name="exclamdown" format="2">
  <advance width="789"/>
  <unicode hex="00A1"/>
  <outline>
    <contour>
      <point x="607.0" y="1135.0" type="qcurve" smooth="yes"/>
      <point x="607.0" y="1055.0"/>
      <point x="485.0" y="942.0"/>
      <point x="390.0" y="942.0" type="qcurve" smooth="yes"/>
      <point x="294.0" y="942.0"/>
      <point x="172.0" y="1055.0"/>
      <point x="172.0" y="1135.0" type="qcurve" smooth="yes"/>
      <point x="172.0" y="1215.0"/>
      <point x="294.0" y="1328.0"/>
      <point x="390.0" y="1328.0" type="qcurve" smooth="yes"/>
      <point x="485.0" y="1328.0"/>
      <point x="607.0" y="1215.0"/>
    </contour>
    <contour>
      <point x="655.0" y="18.0" type="line" smooth="yes"/>
      <point x="662.0" y="-67.0"/>
      <point x="488.0" y="-182.0"/>
      <point x="396.0" y="-182.0" type="qcurve" smooth="yes"/>
      <point x="303.0" y="-183.0"/>
      <point x="123.0" y="-67.0"/>
      <point x="130.0" y="18.0" type="qcurve" smooth="yes"/>
      <point x="156.0" y="228.0" type="line"/>
      <point x="253.0" y="536.0" type="line"/>
      <point x="306.0" y="831.0" type="line"/>
      <point x="480.0" y="831.0" type="line"/>
      <point x="533.0" y="536.0" type="line"/>
      <point x="629.0" y="228.0" type="line"/>
    </contour>
  </outline>
</glyph>
<glyph name="brokenbar" format="2">
  <advance width="634"/>
  <unicode hex="00A6"/>
  <outline>
    <contour>
      <point x="132.0" y="744.0" type="line"/>
      <point x="112.0" y="960.0" type="line"/>
      <point x="123.0" y="1268.0" type="line"/>
      <point x="121.0" y="1554.0" type="line"/>
      <point x="513.0" y="1576.0" type="line"/>
      <point x="509.0" y="1268.0" type="line"/>
      <point x="517.0" y="960.0" type="line"/>
      <point x="514.0" y="768.0" type="line"/>
    </contour>
    <contour>
      <point x="123.0" y="-466.0" type="line"/>
      <point x="125.0" y="-38.0" type="line"/>
      <point x="115.0" y="270.0" type="line"/>
      <point x="115.0" y="498.0" type="line"/>
      <point x="498.0" y="514.0" type="line"/>
      <point x="518.0" y="270.0" type="line"/>
      <point x="509.0" y="-38.0" type="line"/>
      <point x="511.0" y="-482.0" type="line"/>
    </contour>
  </outline>
</glyph>
<glyph name="copyright" format="2">
  <advance width="1789"/>
  <unicode hex="00A9"/>
  <outline>
    <contour>
      <point x="453.0" y="641.0" type="qcurve" smooth="yes"/>
      <point x="453.0" y="891.0"/>
      <point x="729.0" y="1176.0"/>
      <point x="954.0" y="1176.0" type="qcurve" smooth="yes"/>
      <point x="1030.0" y="1176.0"/>
      <point x="1123.0" y="1146.0"/>
      <point x="1149.0" y="1125.0" type="qcurve"/>
      <point x="1160.0" y="1168.0" type="line"/>
      <point x="1271.0" y="1144.0" type="line"/>
      <point x="1277.0" y="837.0" type="line"/>
      <point x="1138.0" y="818.0" type="line"/>
      <point x="1139.0" y="848.0" type="line"/>
      <point x="1138.0" y="908.0"/>
      <point x="1067.0" y="977.0"/>
      <point x="1011.0" y="977.0" type="qcurve" smooth="yes"/>
      <point x="925.0" y="977.0"/>
      <point x="837.0" y="816.0"/>
      <point x="837.0" y="647.0" type="qcurve" smooth="yes"/>
      <point x="837.0" y="513.0"/>
      <point x="932.0" y="367.0"/>
      <point x="1044.0" y="367.0" type="qcurve" smooth="yes"/>
      <point x="1090.0" y="367.0"/>
      <point x="1194.0" y="410.0"/>
      <point x="1224.0" y="454.0" type="qcurve"/>
      <point x="1302.0" y="333.0" type="line"/>
      <point x="1261.0" y="255.0"/>
      <point x="1080.0" y="138.0"/>
      <point x="903.0" y="138.0" type="qcurve" smooth="yes"/>
      <point x="753.0" y="138.0"/>
      <point x="453.0" y="388.0"/>
    </contour>
    <contour>
      <point x="72.0" y="686.0" type="qcurve" smooth="yes"/>
      <point x="72.0" y="1074.0"/>
      <point x="537.0" y="1599.0"/>
      <point x="896.0" y="1599.0" type="qcurve" smooth="yes"/>
      <point x="1255.0" y="1599.0"/>
      <point x="1717.0" y="1100.0"/>
      <point x="1717.0" y="707.0" type="qcurve" smooth="yes"/>
      <point x="1717.0" y="276.0"/>
      <point x="1261.0" y="-271.0"/>
      <point x="907.0" y="-271.0" type="qcurve" smooth="yes"/>
      <point x="543.0" y="-271.0"/>
      <point x="72.0" y="264.0"/>
    </contour>
    <contour>
      <point x="295.0" y="680.0" type="qcurve" smooth="yes"/>
      <point x="295.0" y="355.0"/>
      <point x="657.0" y="-71.0"/>
      <point x="918.0" y="-71.0" type="qcurve" smooth="yes"/>
      <point x="1172.0" y="-71.0"/>
      <point x="1494.0" y="378.0"/>
      <point x="1494.0" y="696.0" type="qcurve" smooth="yes"/>
      <point x="1494.0" y="986.0"/>
      <point x="1153.0" y="1399.0"/>
      <point x="880.0" y="1399.0" type="qcurve" smooth="yes"/>
      <point x="621.0" y="1399.0"/>
      <point x="295.0" y="978.0"/>
    </contour>
  </outline>
</glyph>
<glyph name="guillemetleft" format="2">
  <advance width="1430"/>
  <unicode hex="00AB"/>
  <outline>
    <contour>
      <point x="40.0" y="651.0" type="line"/>
      <point x="40.0" y="651.0"/>
      <point x="496.0" y="1020.0"/>
      <point x="562.0" y="1062.0" type="qcurve" smooth="yes"/>
      <point x="655.0" y="1123.0"/>
      <point x="746.0" y="914.0"/>
      <point x="664.0" y="843.0" type="qcurve" smooth="yes"/>
      <point x="600.0" y="771.0"/>
      <point x="396.0" y="614.0"/>
      <point x="396.0" y="614.0" type="qcurve"/>
      <point x="396.0" y="614.0"/>
      <point x="600.0" y="445.0"/>
      <point x="667.0" y="378.0" type="qcurve" smooth="yes"/>
      <point x="746.0" y="306.0"/>
      <point x="648.0" y="114.0"/>
      <point x="568.0" y="167.0" type="qcurve" smooth="yes"/>
      <point x="507.0" y="212.0"/>
      <point x="100.0" y="531.0"/>
      <point x="39.0" y="576.0" type="qcurve"/>
    </contour>
    <contour>
      <point x="622.0" y="662.0" type="line"/>
      <point x="622.0" y="662.0"/>
      <point x="1078.0" y="1014.0"/>
      <point x="1144.0" y="1061.0" type="qcurve" smooth="yes"/>
      <point x="1233.0" y="1127.0"/>
      <point x="1328.0" y="915.0"/>
      <point x="1246.0" y="843.0" type="qcurve" smooth="yes"/>
      <point x="1196.0" y="784.0"/>
      <point x="998.0" y="613.0"/>
      <point x="998.0" y="613.0" type="qcurve"/>
      <point x="998.0" y="613.0"/>
      <point x="1179.0" y="446.0"/>
      <point x="1249.0" y="377.0" type="qcurve" smooth="yes"/>
      <point x="1330.0" y="306.0"/>
      <point x="1227.0" y="112.0"/>
      <point x="1150.0" y="167.0" type="qcurve" smooth="yes"/>
      <point x="1089.0" y="214.0"/>
      <point x="682.0" y="523.0"/>
      <point x="622.0" y="566.0" type="qcurve"/>
    </contour>
  </outline>
</glyph>
<glyph name="twosuperior" format="2">
  <advance width="756"/>
  <unicode hex="00B2"/>
  <outline>
    <contour>
      <point x="68.0" y="620.0" type="line"/>
      <point x="70.0" y="737.0" type="line"/>
      <point x="61.0" y="845.0"/>
      <point x="203.0" y="1027.0"/>
      <point x="295.0" y="1088.0" type="qcurve" smooth="yes"/>
      <point x="351.0" y="1125.0"/>
      <point x="382.0" y="1206.0"/>
      <point x="388.0" y="1244.0" type="qcurve" smooth="yes"/>
      <point x="394.0" y="1277.0"/>
      <point x="372.0" y="1334.0"/>
      <point x="307.0" y="1334.0" type="qcurve" smooth="yes"/>
      <point x="274.0" y="1334.0"/>
      <point x="169.0" y="1260.0"/>
      <point x="133.0" y="1221.0" type="qcurve"/>
      <point x="77.0" y="1335.0" type="line"/>
      <point x="110.0" y="1402.0"/>
      <point x="306.0" y="1520.0"/>
      <point x="419.0" y="1520.0" type="qcurve" smooth="yes"/>
      <point x="594.0" y="1520.0"/>
      <point x="694.0" y="1384.0"/>
      <point x="697.0" y="1282.0" type="qcurve" smooth="yes"/>
      <point x="700.0" y="1176.0"/>
      <point x="634.0" y="1030.0"/>
      <point x="459.0" y="967.0" type="qcurve" smooth="yes"/>
      <point x="328.0" y="929.0"/>
      <point x="285.0" y="890.0"/>
      <point x="283.0" y="825.0" type="qcurve"/>
      <point x="291.0" y="844.0" type="line"/>
      <point x="717.0" y="843.0" type="line"/>
      <point x="717.0" y="620.0" type="line"/>
    </contour>
  </outline>
</glyph>
<glyph name="acute" format="2">
  <advance width="1024"/>
  <unicode hex="00B4"/>
  <outline>
    <contour>
      <point x="832.0" y="1466.0" type="qcurve" smooth="yes"/>
      <point x="832.0" y="1416"/>
      <point x="794.0" y="1353.0"/>
      <point x="745.0" y="1323.0" type="qcurve" smooth="yes"/>
      <point x="425.0" y="1108.0" type="line"/>
      <point x="335.0" y="1215.0" type="line"/>
      <point x="534.0" y="1469.0" type="line" smooth="yes"/>
      <point x="576.0" y="1525.0"/>
      <point x="652.0" y="1595.0"/>
      <point x="697.0" y="1595.0" type="qcurve" smooth="yes"/>
      <point x="758.0" y="1595.0"/>
      <point x="832" y="1510"/>
    </contour>
  </outline>
</glyph>
<glyph name="ordmasculine" format="2">
  <advance width="911"/>
  <unicode hex="00BA"/>
  <outline>
    <contour>
      <point x="40.0" y="1072.0" type="qcurve" smooth="yes"/>
      <point x="40.0" y="1288.0"/>
      <point x="258.0" y="1529.0"/>
      <point x="457.0" y="1529.0" type="qcurve" smooth="yes"/>
      <point x="656.0" y="1529.0"/>
      <point x="871.0" y="1306.0"/>
      <point x="871.0" y="1078.0" type="qcurve" smooth="yes"/>
      <point x="871.0" y="864.0"/>
      <point x="654.0" y="618.0"/>
      <point x="458.0" y="618.0" type="qcurve" smooth="yes"/>
      <point x="259.0" y="618.0"/>
      <point x="40.0" y="844.0"/>
    </contour>
    <contour>
      <point x="453.0" y="1083.0" type="qcurve" smooth="yes"/>
      <point x="455.0" y="905.0"/>
      <point x="443.0" y="787.0"/>
      <point x="457.0" y="787.0" type="qcurve" smooth="yes"/>
      <point x="471.0" y="787.0"/>
      <point x="459.0" y="892.0"/>
      <point x="459.0" y="1074.0" type="qcurve" smooth="yes"/>
      <point x="459.0" y="1245.0"/>
      <point x="470.0" y="1346.0"/>
      <point x="457.0" y="1346.0" type="qcurve" smooth="yes"/>
      <point x="440.0" y="1346.0"/>
      <point x="452.0" y="1257.0"/>
    </contour>
  </outline>
</glyph>
<glyph name="guillemetright" format="2">
  <advance width="1430"/>
  <unicode hex="00BB"/>
  <outline>
    <contour>
      <point x="1390.0" y="571.0" type="line"/>
      <point x="1255.0" y="480.0"/>
      <point x="893.0" y="169.0"/>
      <point x="835.0" y="143.0" type="qcurve" smooth="yes"/>
      <point x="749.0" y="104.0"/>
      <point x="683.0" y="303.0"/>
      <point x="761.0" y="373.0" type="qcurve" smooth="yes"/>
      <point x="740.0" y="387.0"/>
      <point x="1036.0" y="628.0"/>
      <point x="1036.0" y="628.0" type="qcurve"/>
      <point x="1036.0" y="628.0"/>
      <point x="924.0" y="713.0"/>
      <point x="772.0" y="840.0" type="qcurve" smooth="yes"/>
      <point x="689.0" y="911.0"/>
      <point x="812.0" y="1113.0"/>
      <point x="899.0" y="1038.0" type="qcurve" smooth="yes"/>
      <point x="966.0" y="977.0"/>
      <point x="1465.0" y="602.0"/>
      <point x="1389.0" y="648.0" type="qcurve"/>
    </contour>
    <contour>
      <point x="812.0" y="562.0" type="line"/>
      <point x="677.0" y="471.0"/>
      <point x="313.0" y="173.0"/>
      <point x="253.0" y="142.0" type="qcurve" smooth="yes"/>
      <point x="171.0" y="100.0"/>
      <point x="101.0" y="302.0"/>
      <point x="179.0" y="373.0" type="qcurve" smooth="yes"/>
      <point x="144.0" y="376.0"/>
      <point x="434.0" y="627.0"/>
      <point x="434.0" y="627.0" type="qcurve"/>
      <point x="434.0" y="627.0"/>
      <point x="345.0" y="714.0"/>
      <point x="190.0" y="839.0" type="qcurve" smooth="yes"/>
      <point x="105.0" y="909.0"/>
      <point x="231.0" y="1115.0"/>
      <point x="317.0" y="1038.0" type="qcurve" smooth="yes"/>
      <point x="384.0" y="975.0"/>
      <point x="885.0" y="610.0"/>
      <point x="810.0" y="658.0" type="qcurve"/>
    </contour>
  </outline>
</glyph>
<glyph name="questiondown" format="2">
  <advance width="1136"/>
  <unicode hex="00BF"/>
  <outline>
    <contour>
      <point x="962.0" y="1136.0" type="qcurve" smooth="yes"/>
      <point x="962.0" y="1056.0"/>
      <point x="843.0" y="943.0"/>
      <point x="748.0" y="943.0" type="qcurve" smooth="yes"/>
      <point x="653.0" y="943.0"/>
      <point x="534.0" y="1056.0"/>
      <point x="534.0" y="1136.0" type="qcurve" smooth="yes"/>
      <point x="534.0" y="1216.0"/>
      <point x="653.0" y="1329.0"/>
      <point x="748.0" y="1329.0" type="qcurve" smooth="yes"/>
      <point x="843.0" y="1329.0"/>
      <point x="962.0" y="1216.0"/>
    </contour>
    <contour>
      <point x="1092.0" y="170.0" type="qcurve" smooth="yes"/>
      <point x="1092.0" y="22.0"/>
      <point x="874.0" y="-217.0"/>
      <point x="661.0" y="-217.0" type="qcurve" smooth="yes"/>
      <point x="394.0" y="-217.0"/>
      <point x="118.0" y="-25.0"/>
      <point x="118.0" y="144.0" type="qcurve" smooth="yes"/>
      <point x="118.0" y="263.0"/>
      <point x="149.0" y="449.0"/>
      <point x="359.0" y="560.0" type="qcurve" smooth="yes"/>
      <point x="438.0" y="610.0"/>
      <point x="664.0" y="692.0"/>
      <point x="665.0" y="775.0" type="qcurve" smooth="yes"/>
      <point x="665.0" y="862.0" type="line"/>
      <point x="841.0" y="862.0" type="line"/>
      <point x="845.0" y="728.0" type="line" smooth="yes"/>
      <point x="854.0" y="598.0"/>
      <point x="793.0" y="408.0"/>
      <point x="678.0" y="333.0" type="qcurve" smooth="yes"/>
      <point x="616.0" y="293.0"/>
      <point x="586.0" y="179.0"/>
      <point x="586.0" y="127.0" type="qcurve" smooth="yes"/>
      <point x="586.0" y="77.0"/>
      <point x="638.0" y="-1.0"/>
      <point x="725.0" y="-1.0" type="qcurve" smooth="yes"/>
      <point x="818.0" y="-1.0"/>
      <point x="894.0" y="57.0"/>
      <point x="894.0" y="93.0" type="qcurve" smooth="yes"/>
      <point x="894.0" y="135.0"/>
      <point x="795.0" y="204.0"/>
      <point x="797.0" y="285.0" type="qcurve" smooth="yes"/>
      <point x="801.0" y="342.0"/>
      <point x="860.0" y="422.0"/>
      <point x="922.0" y="422.0" type="qcurve" smooth="yes"/>
      <point x="999.0" y="422.0"/>
      <point x="1092.0" y="278.0"/>
    </contour>
  </outline>
</glyph>
<glyph name="Thorn" format="2">
  <advance width="1411"/>
  <unicode hex="00DE"/>
  <outline>
    <contour>
      <point x="-4.0" y="0.0" type="line"/>
      <point x="-4.0" y="175.0" type="line"/>
      <point x="124.0" y="209.0" type="line"/>
      <point x="126.0" y="754.0" type="line"/>
      <point x="124.0" y="1278.0" type="line"/>
      <point x="-4.0" y="1312.0" type="line"/>
      <point x="-4.0" y="1500.0" type="line"/>
      <point x="768.0" y="1500.0" type="line"/>
      <point x="768.0" y="1284.0" type="line"/>
      <point x="658.0" y="1262.0" type="line"/>
      <point x="659.0" y="1201.0" type="line"/>
      <point x="951.0" y="1201.0" type="line" smooth="yes"/>
      <point x="1161.0" y="1201.0"/>
      <point x="1383.0" y="976.0"/>
      <point x="1383.0" y="759.0" type="qcurve" smooth="yes"/>
      <point x="1383.0" y="490.0"/>
      <point x="1093.0" y="231.0"/>
      <point x="832.0" y="230.0" type="qcurve" smooth="yes"/>
      <point x="762.0" y="231.0"/>
      <point x="671.0" y="244.0"/>
      <point x="600.0" y="259.0" type="qcurve"/>
      <point x="606.0" y="452.0" type="line"/>
      <point x="641.0" y="444.0"/>
      <point x="679.0" y="434.0"/>
      <point x="716.0" y="433.0" type="qcurve" smooth="yes"/>
      <point x="777.0" y="434.0"/>
      <point x="849.0" y="570.0"/>
      <point x="845.0" y="742.0" type="qcurve" smooth="yes"/>
      <point x="842.0" y="874.0"/>
      <point x="763.0" y="977.0"/>
      <point x="703.0" y="983.0" type="qcurve" smooth="yes"/>
      <point x="659.0" y="982.0" type="line"/>
      <point x="656.0" y="-15.0" type="line"/>
      <point x="658.0" y="213.0" type="line"/>
      <point x="769.0" y="176.0" type="line"/>
      <point x="769.0" y="0.0" type="line"/>
    </contour>
  </outline>
</glyph>
<glyph name="ae" format="2">
  <advance width="1498"/>
  <unicode hex="00E6"/>
  <outline>
    <contour>
      <point x="-5.0" y="293.0" type="qcurve" smooth="yes"/>
      <point x="-5.0" y="496.0"/>
      <point x="274.0" y="701.0"/>
      <point x="600.0" y="695.0" type="qcurve"/>
      <point x="606.0" y="531.0" type="line"/>
      <point x="513.0" y="531.0"/>
      <point x="475.0" y="420.0"/>
      <point x="475.0" y="369.0" type="qcurve" smooth="yes"/>
      <point x="475.0" y="290.0"/>
      <point x="564.0" y="234.0"/>
      <point x="570.0" y="234.0" type="qcurve" smooth="yes"/>
      <point x="567.0" y="234.0"/>
      <point x="568.0" y="274.0"/>
      <point x="568.0" y="291.0" type="qcurve"/>
      <point x="563.0" y="349.0"/>
      <point x="574.0" y="428.0"/>
      <point x="573.0" y="507.0" type="qcurve" smooth="yes"/>
      <point x="571.0" y="632.0" type="line" smooth="yes"/>
      <point x="569.0" y="740.0"/>
      <point x="486.0" y="900.0"/>
      <point x="384.0" y="900.0" type="qcurve" smooth="yes"/>
      <point x="362.0" y="900.0"/>
      <point x="331.0" y="910.0"/>
      <point x="330.0" y="909.0" type="qcurve"/>
      <point x="359.0" y="895.0"/>
      <point x="396.0" y="843.0"/>
      <point x="396.0" y="791.0" type="qcurve" smooth="yes"/>
      <point x="393.0" y="727.0"/>
      <point x="306.0" y="654.0"/>
      <point x="232.0" y="649.0" type="qcurve" smooth="yes"/>
      <point x="153.0" y="644.0"/>
      <point x="48.0" y="705.0"/>
      <point x="50.0" y="796.0" type="qcurve" smooth="yes"/>
      <point x="53.0" y="955.0"/>
      <point x="302.0" y="1114.0"/>
      <point x="523.0" y="1114.0" type="qcurve" smooth="yes"/>
      <point x="594.0" y="1114.0"/>
      <point x="777.0" y="1077.0"/>
      <point x="828.0" y="1053.0" type="qcurve"/>
      <point x="831.0" y="1053.0" type="line"/>
      <point x="876.0" y="1099.0"/>
      <point x="1013.0" y="1124.0"/>
      <point x="1088.0" y="1124.0" type="qcurve" smooth="yes"/>
      <point x="1282.0" y="1124.0"/>
      <point x="1546.0" y="881.0"/>
      <point x="1548.0" y="647.0" type="qcurve"/>
      <point x="1548.0" y="495.0" type="line"/>
      <point x="994.0" y="495.0" type="line"/>
      <point x="994.0" y="675.0" type="line"/>
      <point x="1132.0" y="675.0" type="line"/>
      <point x="1139.0" y="821.0"/>
      <point x="1156.0" y="926.0"/>
      <point x="1111.0" y="926.0" type="qcurve" smooth="yes"/>
      <point x="1077.0" y="926.0"/>
      <point x="1061.0" y="796.0"/>
      <point x="1062.0" y="584.0" type="qcurve" smooth="yes"/>
      <point x="1062.0" y="389.0"/>
      <point x="1106.0" y="211.0"/>
      <point x="1192.0" y="211.0" type="qcurve" smooth="yes"/>
      <point x="1273.0" y="211.0"/>
      <point x="1399.0" y="291.0"/>
      <point x="1442.0" y="340.0" type="qcurve"/>
      <point x="1532.0" y="187.0" type="line"/>
      <point x="1489.0" y="107.0"/>
      <point x="1258.0" y="-20.0"/>
      <point x="1073.0" y="-20.0" type="qcurve" smooth="yes"/>
      <point x="973.0" y="-20.0"/>
      <point x="727.0" y="28.0"/>
      <point x="650.0" y="121.0" type="qcurve"/>
      <point x="591.0" y="40.0"/>
      <point x="428.0" y="-13.0"/>
      <point x="325.0" y="-13.0" type="qcurve" smooth="yes"/>
      <point x="197.0" y="-13.0"/>
      <point x="-5.0" y="120.0"/>
    </contour>
  </outline>
</glyph>
<glyph name="divide" format="2">
  <advance width="889"/>
  <unicode hex="00F7"/>
  <outline>
    <contour>
      <point x="48.0" y="491.0" type="line"/>
      <point x="48.0" y="773.0" type="line"/>
      <point x="841.0" y="773.0" type="line"/>
      <point x="841.0" y="491.0" type="line"/>
    </contour>
    <contour>
      <point x="249.0" y="262.0" type="qcurve" smooth="yes"/>
      <point x="249.0" y="337.0"/>
      <point x="358.0" y="456.0"/>
      <point x="443.0" y="456.0" type="qcurve" smooth="yes"/>
      <point x="528.0" y="456.0"/>
      <point x="637.0" y="337.0"/>
      <point x="637.0" y="262.0" type="qcurve" smooth="yes"/>
      <point x="637.0" y="185.0"/>
      <point x="528.0" y="67.0"/>
      <point x="443.0" y="67.0" type="qcurve" smooth="yes"/>
      <point x="358.0" y="67.0"/>
      <point x="249.0" y="185.0"/>
    </contour>
    <contour>
      <point x="249.0" y="1002.0" type="qcurve" smooth="yes"/>
      <point x="249.0" y="1079.0"/>
      <point x="358.0" y="1196.0"/>
      <point x="443.0" y="1196.0" type="qcurve" smooth="yes"/>
      <point x="528.0" y="1196.0"/>
      <point x="637.0" y="1079.0"/>
      <point x="637.0" y="1002.0" type="qcurve" smooth="yes"/>
      <point x="637.0" y="927.0"/>
      <point x="528.0" y="808.0"/>
      <point x="443.0" y="808.0" type="qcurve" smooth="yes"/>
      <point x="358.0" y="808.0"/>
      <point x="249.0" y="927.0"/>
    </contour>
  </outline>
</glyph>
<glyph name="kgreenlandic" format="2">
  <advance width="1282"/>
  <unicode hex="0138"/>
  <outline>
    <contour>
      <point x="5.0" y="0.0" type="line"/>
      <point x="5.0" y="177.0" type="line"/>
      <point x="117.0" y="212.0" type="line"/>
      <point x="119.0" y="557.0" type="line"/>
      <point x="117.0" y="867.0" type="line"/>
      <point x="5.0" y="909.0" type="line"/>
      <point x="5.0" y="1100.0" type="line"/>
      <point x="680.0" y="1100.0" type="line"/>
      <point x="680.0" y="903.0" type="line"/>
      <point x="633.0" y="868.0" type="line"/>
      <point x="634.0" y="577.0" type="line"/>
      <point x="630.0" y="212.0" type="line"/>
      <point x="689.0" y="177.0" type="line"/>
      <point x="689.0" y="0.0" type="line"/>
    </contour>
    <contour>
      <point x="602.0" y="389.0" type="line"/>
      <point x="538.0" y="586.0" type="line"/>
      <point x="759.0" y="873.0" type="line"/>
      <point x="722.0" y="903.0" type="line"/>
      <point x="722.0" y="1100.0" type="line"/>
      <point x="1244.0" y="1100.0" type="line"/>
      <point x="1244.0" y="903.0" type="line"/>
      <point x="1051.0" y="868.0" type="line"/>
    </contour>
    <contour>
      <point x="632.0" y="549.0" type="line"/>
      <point x="989.0" y="897.0" type="line"/>
      <point x="1213.0" y="219.0" type="line"/>
      <point x="1321.0" y="177.0" type="line"/>
      <point x="1321.0" y="0.0" type="line"/>
      <point x="654.0" y="0.0" type="line"/>
      <point x="643.0" y="175.0" type="line"/>
      <point x="695.0" y="204.0" type="line"/>
    </contour>
  </outline>
</glyph>
<glyph name="ring" format="2">
  <advance width="1024"/>
  <unicode hex="02DA"/>
  <outline>
    <contour>
      <point x="268.0" y="1375.0" type="qcurve" smooth="yes"/>
      <point x="268.0" y="1478.0"/>
      <point x="406.0" y="1611.0"/>
      <point x="512.0" y="1611.0" type="qcurve" smooth="yes"/>
      <point x="618.0" y="1611.0"/>
      <point x="756.0" y="1478.0"/>
      <point x="756.0" y="1375.0" type="qcurve" smooth="yes"/>
      <point x="756.0" y="1273.0"/>
      <point x="618.0" y="1140.0"/>
      <point x="512.0" y="1140.0" type="qcurve" smooth="yes"/>
      <point x="406.0" y="1140.0"/>
      <point x="268.0" y="1273.0"/>
    </contour>
    <contour>
      <point x="420" y="1375" type="qcurve" smooth="yes"/>
      <point x="420" y="1335"/>
      <point x="471" y="1284"/>
      <point x="512" y="1284" type="qcurve" smooth="yes"/>
      <point x="556" y="1284"/>
      <point x="603" y="1331"/>
      <point x="603" y="1375" type="qcurve" smooth="yes"/>
      <point x="603" y="1415"/>
      <point x="553" y="1467"/>
      <point x="512" y="1467" type="qcurve" smooth="yes"/>
      <point x="469" y="1467"/>
      <point x="420" y="1420"/>
    </contour>
  </outline>
</glyph>
<glyph name="tilde" format="2">
  <advance width="1024"/>
  <unicode hex="02DC"/>
  <outline>
    <contour>
      <point x="180.0" y="1221.0" type="line"/>
      <point x="210.0" y="1285.0"/>
      <point x="283.0" y="1407.0"/>
      <point x="358.0" y="1407.0" type="qcurve" smooth="yes"/>
      <point x="392.0" y="1407.0"/>
      <point x="451.0" y="1392.0"/>
      <point x="485.0" y="1371.0" type="qcurve" smooth="yes"/>
      <point x="511.0" y="1353.0"/>
      <point x="596.0" y="1300.0"/>
      <point x="629.0" y="1300.0" type="qcurve" smooth="yes"/>
      <point x="661.0" y="1300.0"/>
      <point x="710.0" y="1342.0"/>
      <point x="742.0" y="1390.0" type="qcurve"/>
      <point x="834.0" y="1282.0" type="line"/>
      <point x="801.0" y="1209.0"/>
      <point x="710.0" y="1088.0"/>
      <point x="646.0" y="1088.0" type="qcurve" smooth="yes"/>
      <point x="608.0" y="1088.0"/>
      <point x="529.0" y="1110.0"/>
      <point x="498.0" y="1131.0" type="qcurve" smooth="yes"/>
      <point x="467.0" y="1153.0"/>
      <point x="414.0" y="1182.0"/>
      <point x="391.0" y="1182.0" type="qcurve" smooth="yes"/>
      <point x="353.0" y="1182.0"/>
      <point x="282.0" y="1128.0"/>
      <point x="266.0" y="1102.0" type="qcurve"/>
    </contour>
  </outline>
</glyph>
<glyph name="hungarumlaut" format="2">
  <advance width="1024"/>
  <unicode hex="02DD"/>
  <outline>
    <contour>
      <point x="695.0" y="1480.0" type="qcurve" smooth="yes"/>
      <point x="702.0" y="1457.0"/>
      <point x="656.0" y="1345.0"/>
      <point x="615.0" y="1318.0" type="qcurve" smooth="yes"/>
      <point x="387.0" y="1164.0" type="line"/>
      <point x="276.0" y="1241.0" type="line"/>
      <point x="393.0" y="1440.0" type="line" smooth="yes"/>
      <point x="425.0" y="1492.0"/>
      <point x="525.0" y="1567.0"/>
      <point x="564.0" y="1573.0" type="qcurve" smooth="yes"/>
      <point x="620.0" y="1578.0"/>
      <point x="688.0" y="1512.0"/>
    </contour>
    <contour>
      <point x="1028.0" y="1481.0" type="qcurve" smooth="yes"/>
      <point x="1035.0" y="1457.0"/>
      <point x="990.0" y="1344.0"/>
      <point x="948.0" y="1318.0" type="qcurve" smooth="yes"/>
      <point x="714.0" y="1164.0" type="line"/>
      <point x="610.0" y="1241.0" type="line"/>
      <point x="718.0" y="1440.0" type="line" smooth="yes"/>
      <point x="748.0" y="1492.0"/>
      <point x="858.0" y="1568.0"/>
      <point x="897.0" y="1573.0" type="qcurve" smooth="yes"/>
      <point x="953.0" y="1578.0"/>
      <point x="1021.0" y="1512.0"/>
    </contour>
  </outline>
</glyph>
<glyph name="dblgravecomb" format="2">
  <advance width="1024"/>
  <unicode hex="0311"/>
  <outline>
    <contour>
      <point x="-9.0" y="1447.0" type="qcurve"/>
      <point x="-2.0" y="1468.0"/>
      <point x="74.0" y="1530.0"/>
      <point x="126.0" y="1525.0" type="qcurve" smooth="yes"/>
      <point x="155.0" y="1520.0"/>
      <point x="259.0" y="1432.0"/>
      <point x="285.0" y="1392.0" type="qcurve" smooth="yes"/>
      <point x="391.0" y="1235.0" type="line"/>
      <point x="313.0" y="1164.0" type="line"/>
      <point x="47.0" y="1328.0" type="line" smooth="yes"/>
      <point x="-5.0" y="1360.0"/>
      <point x="-16.0" y="1405.0"/>
    </contour>
    <contour>
      <point x="310.0" y="1446.0" type="qcurve"/>
      <point x="317.0" y="1468.0"/>
      <point x="393.0" y="1530.0"/>
      <point x="445.0" y="1525.0" type="qcurve" smooth="yes"/>
      <point x="474.0" y="1519.0"/>
      <point x="568.0" y="1434.0"/>
      <point x="596.0" y="1394.0" type="qcurve" smooth="yes"/>
      <point x="711.0" y="1235.0" type="line"/>
      <point x="626.0" y="1164.0" type="line"/>
      <point x="366.0" y="1328.0" type="line" smooth="yes"/>
      <point x="315.0" y="1361.0"/>
      <point x="303.0" y="1405.0"/>
    </contour>
  </outline>
</glyph>
<glyph name="horncomb" format="2">
  <advance width="1024"/>
  <unicode hex="031B"/>
  <outline>
    <contour>
      <point x="41.0" y="1021.0" type="line"/>
      <point x="132.0" y="994.0"/>
      <point x="294.0" y="965.0"/>
      <point x="327.0" y="965.0" type="qcurve" smooth="yes"/>
      <point x="362.0" y="965.0"/>
      <point x="418.0" y="1051.0"/>
      <point x="418.0" y="1084.0" type="qcurve" smooth="yes"/>
      <point x="418.0" y="1132.0"/>
      <point x="415.0" y="1178.0"/>
      <point x="405.0" y="1239.0" type="qcurve"/>
      <point x="574.0" y="1239.0" type="line"/>
      <point x="595.0" y="1190.0"/>
      <point x="621.0" y="1110.0"/>
      <point x="621.0" y="1042.0" type="qcurve" smooth="yes"/>
      <point x="621.0" y="928.0"/>
      <point x="456.0" y="802.0"/>
      <point x="363.0" y="802.0" type="qcurve" smooth="yes"/>
      <point x="330.0" y="802.0"/>
      <point x="84.0" y="837.0"/>
      <point x="41.0" y="875.0" type="qcurve"/>
    </contour>
  </outline>
</glyph>
<glyph name="commaaccentcomb" format="2">
  <advance width="1024"/>
  <unicode hex="0326"/>
  <outline>
    <contour>
      <point x="380.0" y="-498.0" type="line"/>
      <point x="429.0" y="-460.0"/>
      <point x="467.0" y="-391.0"/>
      <point x="469.0" y="-364.0" type="qcurve"/>
      <point x="387.0" y="-353.0"/>
      <point x="322" y="-286"/>
      <point x="322.0" y="-232.0" type="qcurve" smooth="yes"/>
      <point x="322.0" y="-173.0"/>
      <point x="403.0" y="-98.0"/>
      <point x="484" y="-98.0" type="qcurve" smooth="yes"/>
      <point x="567" y="-98"/>
      <point x="648.0" y="-191.0"/>
      <point x="648.0" y="-264" type="qcurve" smooth="yes"/>
      <point x="648" y="-357"/>
      <point x="521.0" y="-532.0"/>
      <point x="445.0" y="-569.0" type="qcurve"/>
    </contour>
  </outline>
</glyph>
<glyph name="Germandbls" format="2">
  <advance width="1691"/>
  <unicode hex="1E9E"/>
  <outline>
    <contour>
      <point x="196.0" y="690.0" type="line"/>
      <point x="194.0" y="997.0" type="line" smooth="yes"/>
      <point x="193.0" y="1185.0"/>
      <point x="471.0" y="1512.0"/>
      <point x="873.0" y="1517.0" type="qcurve" smooth="yes"/>
      <point x="889.0" y="1518.0"/>
      <point x="1260.0" y="1499.0"/>
      <point x="1293.0" y="1491.0" type="qcurve"/>
      <point x="1293.0" y="1273.0" type="line"/>
      <point x="1232.0" y="1273.0"/>
      <point x="1105.0" y="1219.0"/>
      <point x="1105.0" y="1129.0" type="qcurve" smooth="yes"/>
      <point x="1105.0" y="1063.0"/>
      <point x="1167.0" y="963.0"/>
      <point x="1288.0" y="903.0" type="qcurve" smooth="yes"/>
      <point x="1488.0" y="808.0"/>
      <point x="1613.0" y="624.0"/>
      <point x="1613.0" y="416.0" type="qcurve" smooth="yes"/>
      <point x="1613.0" y="224.0"/>
      <point x="1345.0" y="-30.0"/>
      <point x="1054.0" y="-30.0" type="qcurve" smooth="yes"/>
      <point x="979.0" y="-30.0"/>
      <point x="907.0" y="1.0"/>
      <point x="887.0" y="43.0" type="qcurve"/>
      <point x="878.0" y="0.0" type="line"/>
      <point x="724.0" y="0.0" type="line"/>
      <point x="724.0" y="484.0" type="line"/>
      <point x="898.0" y="484.0" type="line"/>
      <point x="927.0" y="309.0" type="line" smooth="yes"/>
      <point x="971.0" y="279.0"/>
      <point x="1027.0" y="218.0"/>
      <point x="1084.0" y="218.0" type="qcurve" smooth="yes"/>
      <point x="1119.0" y="218.0"/>
      <point x="1196.0" y="298.0"/>
      <point x="1196.0" y="377.0" type="qcurve" smooth="yes"/>
      <point x="1196.0" y="431.0"/>
      <point x="1003.0" y="564.0"/>
      <point x="971.0" y="578.0" type="qcurve" smooth="yes"/>
      <point x="861.0" y="623.0"/>
      <point x="723.0" y="853.0"/>
      <point x="723.0" y="963.0" type="qcurve" smooth="yes"/>
      <point x="723.0" y="1103.0"/>
      <point x="850.0" y="1277.0"/>
      <point x="984.0" y="1282.0" type="qcurve"/>
      <point x="860.0" y="1282.0" type="line" smooth="yes"/>
      <point x="779.0" y="1282.0"/>
      <point x="730.0" y="1133.0"/>
      <point x="728.0" y="1039.0" type="qcurve" smooth="yes"/>
      <point x="727.0" y="760.0" type="line"/>
      <point x="728.0" y="-299.0" type="line"/>
      <point x="895.0" y="-330.0" type="line"/>
      <point x="895.0" y="-480.0" type="line"/>
      <point x="22.0" y="-480.0" type="line"/>
      <point x="22.0" y="-330.0" type="line"/>
      <point x="194.0" y="-299.0" type="line"/>
    </contour>
  </outline>
</glyph>
<glyph name="horizontalbar" format="2">
  <advance width="991"/>
  <unicode hex="2015"/>
  <outline>
    <contour>
      <point x="447.0" y="684.0" type="line"/>
      <point x="79.0" y="674.0" type="line"/>
      <point x="84.0" y="868.0" type="line"/>
      <point x="458.0" y="858.0" type="line"/>
      <point x="806.0" y="858.0" type="line"/>
      <point x="803.0" y="684.0" type="line"/>
    </contour>
  </outline>
</glyph>
<glyph name="quoteright" format="2">
  <advance width="533"/>
  <unicode hex="2019"/>
  <outline>
    <contour>
      <point x="16.0" y="858.0" type="line"/>
      <point x="84.0" y="892.0"/>
      <point x="214.0" y="990.0"/>
      <point x="258.0" y="1077.0" type="qcurve"/>
      <point x="126.0" y="1092.0"/>
      <point x="31.0" y="1208.0"/>
      <point x="31.0" y="1292.0" type="qcurve" smooth="yes"/>
      <point x="31.0" y="1377.0"/>
      <point x="175.0" y="1529.0"/>
      <point x="279.0" y="1529.0" type="qcurve" smooth="yes"/>
      <point x="387.0" y="1529.0"/>
      <point x="507.0" y="1439.0"/>
      <point x="507.0" y="1309.0" type="qcurve" smooth="yes"/>
      <point x="507.0" y="1173.0"/>
      <point x="229.0" y="821.0"/>
      <point x="106.0" y="756.0" type="qcurve"/>
    </contour>
  </outline>
</glyph>
<glyph name="quotesinglbase" format="2">
  <advance width="533"/>
  <unicode hex="201A"/>
  <outline>
    <contour>
      <point x="16.0" y="-209.0" type="line"/>
      <point x="84.0" y="-175.0"/>
      <point x="214.0" y="-77.0"/>
      <point x="258.0" y="10.0" type="qcurve"/>
      <point x="126.0" y="25.0"/>
      <point x="31.0" y="141.0"/>
      <point x="31.0" y="225.0" type="qcurve" smooth="yes"/>
      <point x="31.0" y="310.0"/>
      <point x="175.0" y="462.0"/>
      <point x="279.0" y="462.0" type="qcurve" smooth="yes"/>
      <point x="387.0" y="462.0"/>
      <point x="507.0" y="372.0"/>
      <point x="507.0" y="242.0" type="qcurve" smooth="yes"/>
      <point x="507.0" y="106.0"/>
      <point x="229.0" y="-246.0"/>
      <point x="106.0" y="-311.0" type="qcurve"/>
    </contour>
  </outline>
</glyph>
<glyph name="quotedblright" format="2">
  <advance width="1061"/>
  <unicode hex="201D"/>
  <outline>
    <contour>
      <point x="16.0" y="858.0" type="line"/>
      <point x="84.0" y="892.0"/>
      <point x="214.0" y="990.0"/>
      <point x="258.0" y="1077.0" type="qcurve"/>
      <point x="126.0" y="1092.0"/>
      <point x="31.0" y="1208.0"/>
      <point x="31.0" y="1292.0" type="qcurve" smooth="yes"/>
      <point x="31.0" y="1377.0"/>
      <point x="175.0" y="1529.0"/>
      <point x="279.0" y="1529.0" type="qcurve" smooth="yes"/>
      <point x="387.0" y="1529.0"/>
      <point x="507.0" y="1439.0"/>
      <point x="507.0" y="1309.0" type="qcurve" smooth="yes"/>
      <point x="507.0" y="1173.0"/>
      <point x="229.0" y="821.0"/>
      <point x="106.0" y="756.0" type="qcurve"/>
    </contour>
    <contour>
      <point x="544.0" y="858.0" type="line"/>
      <point x="612.0" y="892.0"/>
      <point x="742.0" y="990.0"/>
      <point x="786.0" y="1077.0" type="qcurve"/>
      <point x="654.0" y="1092.0"/>
      <point x="559.0" y="1208.0"/>
      <point x="559.0" y="1292.0" type="qcurve" smooth="yes"/>
      <point x="559.0" y="1377.0"/>
      <point x="703.0" y="1529.0"/>
      <point x="807.0" y="1529.0" type="qcurve" smooth="yes"/>
      <point x="915.0" y="1529.0"/>
      <point x="1035.0" y="1439.0"/>
      <point x="1035.0" y="1309.0" type="qcurve" smooth="yes"/>
      <point x="1035.0" y="1173.0"/>
      <point x="757.0" y="821.0"/>
      <point x="634.0" y="756.0" type="qcurve"/>
    </contour>
  </outline>
</glyph>
<glyph name="daggerdbl" format="2">
  <advance width="956"/>
  <unicode hex="2021"/>
  <outline>
    <contour>
      <point x="435.0" y="-540.0" type="line"/>
      <point x="297.0" y="-58.0" type="line"/>
      <point x="383.0" y="550.0" type="line"/>
      <point x="381.0" y="930.0" type="line"/>
      <point x="287.0" y="1438.0" type="line"/>
      <point x="357.0" y="1506.0" type="line"/>
      <point x="577.0" y="1506.0" type="line"/>
      <point x="643.0" y="1438.0" type="line"/>
      <point x="557.0" y="930.0" type="line"/>
      <point x="559.0" y="550.0" type="line"/>
      <point x="643.0" y="-58.0" type="line"/>
      <point x="515.0" y="-540.0" type="line"/>
    </contour>
    <contour>
      <point x="38.0" y="812.0" type="line"/>
      <point x="38.0" y="1000.0" type="line"/>
      <point x="471.0" y="992.0" type="line"/>
      <point x="922.0" y="1000.0" type="line"/>
      <point x="922.0" y="812.0" type="line"/>
      <point x="471.0" y="839.0" type="line"/>
    </contour>
    <contour>
      <point x="34.0" y="383.0" type="line"/>
      <point x="34.0" y="571.0" type="line"/>
      <point x="467.0" y="583.0" type="line"/>
      <point x="918.0" y="571.0" type="line"/>
      <point x="918.0" y="383.0" type="line"/>
      <point x="467.0" y="430.0" type="line"/>
    </contour>
  </outline>
</glyph>
<glyph name="minute" format="2">
  <advance width="485"/>
  <unicode hex="2032"/>
  <outline>
    <contour>
      <point x="84.0" y="934.0" type="line"/>
      <point x="160.0" y="1420.0" type="line" smooth="yes"/>
      <point x="182.0" y="1505.0"/>
      <point x="340.0" y="1577.0"/>
      <point x="422.0" y="1547.0" type="qcurve" smooth="yes"/>
      <point x="497.0" y="1517.0"/>
      <point x="488.0" y="1330.0"/>
      <point x="432.0" y="1266.0" type="qcurve" smooth="yes"/>
      <point x="238.0" y="934.0" type="line"/>
    </contour>
  </outline>
</glyph>
<glyph name="second" format="2">
  <advance width="935"/>
  <unicode hex="2033"/>
  <outline>
    <contour>
      <point x="84.0" y="932.0" type="line"/>
      <point x="160.0" y="1408.0" type="line" smooth="yes"/>
      <point x="185.0" y="1502.0"/>
      <point x="340.0" y="1575.0"/>
      <point x="422.0" y="1545.0" type="qcurve" smooth="yes"/>
      <point x="497.0" y="1515.0"/>
      <point x="488.0" y="1328.0"/>
      <point x="432.0" y="1264.0" type="qcurve" smooth="yes"/>
      <point x="238.0" y="932.0" type="line"/>
    </contour>
    <contour>
      <point x="534.0" y="932.0" type="line"/>
      <point x="610.0" y="1408.0" type="line" smooth="yes"/>
      <point x="635.0" y="1502.0"/>
      <point x="790.0" y="1575.0"/>
      <point x="872.0" y="1545.0" type="qcurve" smooth="yes"/>
      <point x="947.0" y="1515.0"/>
      <point x="938.0" y="1328.0"/>
      <point x="882.0" y="1264.0" type="qcurve" smooth="yes"/>
      <point x="688.0" y="932.0" type="line"/>
    </contour>
  </outline>
</glyph>
<glyph name="guilsinglright" format="2">
  <advance width="743"/>
  <unicode hex="203A"/>
  <outline>
    <contour>
      <point x="703.0" y="569.0" type="line"/>
      <point x="568.0" y="478.0"/>
      <point x="306.0" y="167.0"/>
      <point x="248.0" y="141.0" type="qcurve" smooth="yes"/>
      <point x="160.0" y="102.0"/>
      <point x="102.0" y="295.0"/>
      <point x="180.0" y="365.0" type="qcurve" smooth="yes"/>
      <point x="157.0" y="379.0"/>
      <point x="349.0" y="626.0"/>
      <point x="349.0" y="626.0" type="qcurve"/>
      <point x="349.0" y="626.0"/>
      <point x="341.0" y="717.0"/>
      <point x="191.0" y="844.0" type="qcurve" smooth="yes"/>
      <point x="106.0" y="915.0"/>
      <point x="225.0" y="1111.0"/>
      <point x="310.0" y="1036.0" type="qcurve" smooth="yes"/>
      <point x="377.0" y="975.0"/>
      <point x="778.0" y="600.0"/>
      <point x="702.0" y="646.0" type="qcurve"/>
    </contour>
  </outline>
</glyph>
<glyph name="foursuperior" format="2">
  <advance width="828"/>
  <unicode hex="2074"/>
  <outline>
    <contour>
      <point x="-36.0" y="1035.0" type="line"/>
      <point x="364.0" y="1550.0" type="line"/>
      <point x="606.0" y="1527.0" type="line"/>
      <point x="645.0" y="1489.0" type="line"/>
      <point x="648.0" y="958.0" type="line"/>
      <point x="648.0" y="784.0" type="line"/>
      <point x="772.0" y="752.0" type="line"/>
      <point x="772.0" y="621.0" type="line"/>
      <point x="224.0" y="621.0" type="line"/>
      <point x="224.0" y="752.0" type="line"/>
      <point x="342.0" y="784.0" type="line"/>
      <point x="352.0" y="957.0" type="line"/>
      <point x="359.0" y="1336.0" type="line"/>
      <point x="153.0" y="1046.0" type="line"/>
      <point x="154.0" y="1033.0" type="line"/>
      <point x="815.0" y="1024.0" type="line"/>
      <point x="815.0" y="891.0" type="line"/>
      <point x="-11.0" y="889.0" type="line"/>
    </contour>
  </outline>
</glyph>
<glyph name="franc" format="2">
  <advance width="1347"/>
  <unicode hex="20A3"/>
  <outline>
    <contour>
      <point x="67.0" y="0.0" type="line"/>
      <point x="67.0" y="176.0" type="line"/>
      <point x="195.0" y="209.0" type="line"/>
      <point x="197.0" y="748.0" type="line"/>
      <point x="195.0" y="1278.0" type="line"/>
      <point x="67.0" y="1312.0" type="line"/>
      <point x="67.0" y="1500.0" type="line"/>
      <point x="1391.0" y="1500.0" type="line"/>
      <point x="1331.0" y="1110.0" type="line"/>
      <point x="1132.0" y="1110.0" type="line"/>
      <point x="1157.0" y="1292.0" type="line"/>
      <point x="794.0" y="1292.0" type="line"/>
      <point x="730.0" y="1268.0" type="line"/>
      <point x="734.0" y="748.0" type="line"/>
      <point x="736.0" y="213.0" type="line"/>
      <point x="850.0" y="177.0" type="line"/>
      <point x="850.0" y="0.0" type="line"/>
    </contour>
    <contour>
      <point x="458.0" y="651.0" type="line"/>
      <point x="458.0" y="837.0" type="line"/>
      <point x="1009.0" y="847.0" type="line"/>
      <point x="1036.0" y="971.0" type="line"/>
      <point x="1198.0" y="971.0" type="line"/>
      <point x="1198.0" y="526.0" type="line"/>
      <point x="1036.0" y="526.0" type="line"/>
      <point x="1009.0" y="641.0" type="line"/>
    </contour>
    <contour>
      <point x="95.0" y="288.0" type="line"/>
      <point x="61.0" y="519.0" type="line"/>
      <point x="1012.0" y="519.0" type="line"/>
      <point x="972.0" y="288.0" type="line"/>
    </contour>
  </outline>
</glyph>
<glyph name="peso" format="2">
  <advance width="1760"/>
  <unicode hex="20B1"/>
  <outline>
    <contour>
      <point x="89.0" y="0.0" type="line"/>
      <point x="89.0" y="180.0" type="line"/>
      <point x="246.0" y="216.0" type="line"/>
      <point x="248.0" y="734.0" type="line"/>
      <point x="246.0" y="1282.0" type="line"/>
      <point x="89.0" y="1306.0" type="line"/>
      <point x="89.0" y="1500.0" type="line"/>
      <point x="1087.0" y="1513.0" type="line" smooth="yes"/>
      <point x="1283.0" y="1519.0"/>
      <point x="1546.0" y="1243.0"/>
      <point x="1546.0" y="1048.0" type="qcurve" smooth="yes"/>
      <point x="1546.0" y="805.0"/>
      <point x="1257.0" y="529.0"/>
      <point x="1020.0" y="529.0" type="qcurve" smooth="yes"/>
      <point x="940.0" y="529.0"/>
      <point x="795.0" y="537.0"/>
      <point x="706.0" y="548.0" type="qcurve"/>
      <point x="714.0" y="736.0" type="line"/>
      <point x="766.0" y="727.0"/>
      <point x="801.0" y="727.0"/>
      <point x="865.0" y="727.0" type="qcurve" smooth="yes"/>
      <point x="924.0" y="727.0"/>
      <point x="1001.0" y="886.0"/>
      <point x="997.0" y="1031.0" type="qcurve" smooth="yes"/>
      <point x="994.0" y="1120.0"/>
      <point x="900.0" y="1293.0"/>
      <point x="854.0" y="1306.0" type="qcurve" smooth="yes"/>
      <point x="793.0" y="1306.0" type="line"/>
      <point x="769.0" y="1286.0" type="line"/>
      <point x="767.0" y="744.0" type="line"/>
      <point x="769.0" y="215.0" type="line"/>
      <point x="918.0" y="180.0" type="line"/>
      <point x="918.0" y="0.0" type="line"/>
    </contour>
    <contour>
      <point x="1652.0" y="782.0" type="line"/>
      <point x="1313.0" y="782.0" type="line"/>
      <point x="1313.0" y="793.0" type="line"/>
      <point x="916.0" y="793.0" type="line"/>
      <point x="838.0" y="951.0" type="line"/>
      <point x="1307.0" y="951.0" type="line"/>
      <point x="1307.0" y="965.0" type="line"/>
      <point x="1664.0" y="965.0" type="line"/>
    </contour>
    <contour>
      <point x="63.0" y="787.0" type="line"/>
      <point x="52.0" y="966.0" type="line"/>
      <point x="414.0" y="966.0" type="line"/>
      <point x="414.0" y="951.0" type="line"/>
      <point x="838.0" y="951.0" type="line"/>
      <point x="916.0" y="795.0" type="line"/>
      <point x="414.0" y="795.0" type="line"/>
      <point x="414.0" y="787.0" type="line"/>
    </contour>
    <contour>
      <point x="1646.0" y="1005.0" type="line"/>
      <point x="1301.0" y="1005.0" type="line"/>
      <point x="1301.0" y="1014.0" type="line"/>
      <point x="931.0" y="1014.0" type="line"/>
      <point x="853.0" y="1178.0" type="line"/>
      <point x="1305.0" y="1178.0" type="line"/>
      <point x="1305.0" y="1189.0" type="line"/>
      <point x="1658.0" y="1189.0" type="line"/>
    </contour>
    <contour>
      <point x="63.0" y="1007.0" type="line"/>
      <point x="52.0" y="1189.0" type="line"/>
      <point x="414.0" y="1189.0" type="line"/>
      <point x="414.0" y="1178.0" type="line"/>
      <point x="853.0" y="1178.0" type="line"/>
      <point x="931.0" y="1016.0" type="line"/>
      <point x="414.0" y="1016.0" type="line"/>
      <point x="414.0" y="1007.0" type="line"/>
    </contour>
  </outline>
</glyph>
<glyph name="guarani" format="2">
  <advance width="1423"/>
  <unicode hex="20B2"/>
  <outline>
    <contour>
      <point x="90.0" y="744.0" type="qcurve" smooth="yes"/>
      <point x="96.0" y="1143.0"/>
      <point x="535.0" y="1520.0"/>
      <point x="896.0" y="1520.0" type="qcurve" smooth="yes"/>
      <point x="1115.0" y="1520.0"/>
      <point x="1335.0" y="1244.0"/>
      <point x="1336.0" y="1013.0" type="qcurve"/>
      <point x="1091.0" y="1013.0" type="line"/>
      <point x="1082.0" y="1130.0"/>
      <point x="996.0" y="1274.0"/>
      <point x="878.0" y="1274.0" type="qcurve" smooth="yes"/>
      <point x="772.0" y="1274.0"/>
      <point x="601.0" y="1033.0"/>
      <point x="598.0" y="764.0" type="qcurve" smooth="yes"/>
      <point x="594.0" y="494.0"/>
      <point x="666.0" y="181.0"/>
      <point x="892.0" y="182.0" type="qcurve" smooth="yes"/>
      <point x="938.0" y="182.0"/>
      <point x="971.0" y="272.0"/>
      <point x="974.0" y="324.0" type="qcurve" smooth="yes"/>
      <point x="975.0" y="425.0" type="line" smooth="yes"/>
      <point x="976.0" y="502.0"/>
      <point x="933.0" y="515.0"/>
      <point x="949.0" y="527.0" type="qcurve"/>
      <point x="943.0" y="697.0" type="line"/>
      <point x="1331.0" y="697.0" type="line"/>
      <point x="1334.0" y="169.0" type="line"/>
      <point x="1278.0" y="81.0"/>
      <point x="1049.0" y="-44.0"/>
      <point x="853.0" y="-44.0" type="qcurve" smooth="yes"/>
      <point x="442.0" y="-44.0"/>
      <point x="84.0" y="354.0"/>
    </contour>
    <contour>
      <point x="476.0" y="-190.0" type="line"/>
      <point x="539.0" y="106.0" type="line"/>
      <point x="572.0" y="101.0" type="line"/>
      <point x="716.0" y="891.0" type="line"/>
      <point x="882.0" y="823.0" type="line"/>
      <point x="749.0" y="74.0" type="line"/>
      <point x="783.0" y="70.0" type="line"/>
      <point x="730.0" y="-177.0" type="line"/>
    </contour>
    <contour>
      <point x="829.0" y="1654.0" type="line"/>
      <point x="1059.0" y="1654.0" type="line"/>
      <point x="1018.0" y="1444.0" type="line"/>
      <point x="994.0" y="1448.0" type="line"/>
      <point x="882.0" y="823.0" type="line"/>
      <point x="716.0" y="891.0" type="line"/>
      <point x="820.0" y="1475.0" type="line"/>
      <point x="796.0" y="1480.0" type="line"/>
    </contour>
  </outline>
</glyph>
<glyph name="rupeeIndian" format="2">
  <advance width="1052"/>
  <unicode hex="20B9"/>
  <outline>
    <contour>
      <point x="31.0" y="1514.0" type="line"/>
      <point x="473.0" y="1495.0" type="line"/>
      <point x="1070.0" y="1507.0" type="line"/>
      <point x="1042.0" y="1265.0" type="line"/>
      <point x="784.0" y="1277.0" type="line"/>
      <point x="825.0" y="1251.0"/>
      <point x="885.0" y="1140.0"/>
      <point x="885.0" y="1079.0" type="qcurve" smooth="yes"/>
      <point x="885.0" y="934.0"/>
      <point x="776.0" y="718.0"/>
      <point x="700.0" y="669.0" type="qcurve"/>
      <point x="747.0" y="622.0"/>
      <point x="795.0" y="503.0"/>
      <point x="850.0" y="386.0" type="qcurve" smooth="yes"/>
      <point x="908.0" y="250.0"/>
      <point x="976.0" y="170.0"/>
      <point x="1055.0" y="170.0" type="qcurve"/>
      <point x="1055.0" y="0.0" type="line"/>
      <point x="751.0" y="-15.0" type="line"/>
      <point x="707.0" y="-8.0"/>
      <point x="560.0" y="73.0"/>
      <point x="527.0" y="170.0" type="qcurve" smooth="yes"/>
      <point x="496.0" y="259.0"/>
      <point x="409.0" y="508.0"/>
      <point x="393.0" y="638.0" type="qcurve"/>
      <point x="146.0" y="622.0" type="line"/>
      <point x="115.0" y="831.0" type="line"/>
      <point x="264.0" y="831.0" type="line" smooth="yes"/>
      <point x="373.0" y="831.0"/>
      <point x="472.0" y="971.0"/>
      <point x="472.0" y="1088.0" type="qcurve" smooth="yes"/>
      <point x="472.0" y="1157.0"/>
      <point x="422.0" y="1260.0"/>
      <point x="367.0" y="1288.0" type="qcurve"/>
      <point x="58.0" y="1272.0" type="line"/>
    </contour>
    <contour>
      <point x="653.0" y="1175.0" type="line"/>
      <point x="653.0" y="1190.0" type="line"/>
      <point x="1017.0" y="1200.0" type="line"/>
      <point x="989.0" y="961.0" type="line"/>
      <point x="632.0" y="969.0" type="line"/>
      <point x="632.0" y="983.0" type="line"/>
      <point x="82.0" y="983.0" type="line"/>
      <point x="65.0" y="1179.0" type="line"/>
    </contour>
  </outline>
</glyph>
<glyph name="liraTurkish" format="2">
  <advance width="1418"/>
  <unicode hex="20BA"/>
  <outline>
    <contour>
      <point x="263.0" y="-12.0" type="line"/>
      <point x="163.0" y="140.0" type="line"/>
      <point x="270.0" y="245.0" type="line"/>
      <point x="272.0" y="754.0" type="line"/>
      <point x="270.0" y="1291.0" type="line"/>
      <point x="52.0" y="1325.0" type="line"/>
      <point x="52.0" y="1500.0" type="line"/>
      <point x="500.0" y="1500.0" type="line"/>
      <point x="882.0" y="1492.0" type="line"/>
      <point x="882.0" y="1317.0" type="line"/>
      <point x="774.0" y="1291.0" type="line"/>
      <point x="772.0" y="754.0" type="line"/>
      <point x="774.0" y="289.0" type="line"/>
      <point x="815.0" y="255.0" type="line"/>
      <point x="930.0" y="286.0"/>
      <point x="1111.0" y="394.0"/>
      <point x="1129.0" y="533.0" type="qcurve" smooth="yes"/>
      <point x="1162.0" y="697.0" type="line"/>
      <point x="1339.0" y="697.0" type="line"/>
      <point x="1285.0" y="252.0" type="line"/>
      <point x="1233.0" y="126.0"/>
      <point x="807.0" y="41.0"/>
      <point x="525.0" y="15.0" type="qcurve" smooth="yes"/>
    </contour>
    <contour>
      <point x="134.0" y="363.0" type="line"/>
      <point x="98.0" y="551.0" type="line"/>
      <point x="533.0" y="690.0" type="line"/>
      <point x="533.0" y="686.0" type="line"/>
      <point x="1024.0" y="837.0" type="line"/>
      <point x="1009.0" y="635.0" type="line"/>
      <point x="532.0" y="493.0" type="line"/>
      <point x="532.0" y="489.0" type="line"/>
    </contour>
    <contour>
      <point x="114.0" y="709.0" type="line"/>
      <point x="78.0" y="895.0" type="line"/>
      <point x="514.0" y="1027.0" type="line"/>
      <point x="514.0" y="1034.0" type="line"/>
      <point x="1044.0" y="1198.0" type="line"/>
      <point x="1025.0" y="993.0" type="line"/>
      <point x="513.0" y="837.0" type="line"/>
      <point x="513.0" y="835.0" type="line"/>
    </contour>
  </outline>
</glyph>
<glyph name="manat" format="2">
  <advance width="1519"/>
  <unicode hex="20BC"/>
  <outline>
    <contour>
      <point x="1511.0" y="156.0" type="line"/>
      <point x="1511.0" y="0.0" type="line"/>
      <point x="791.0" y="0.0" type="line"/>
      <point x="791.0" y="156.0" type="line"/>
      <point x="928.0" y="186.0" type="line"/>
      <point x="933.0" y="596.0" type="line"/>
      <point x="929.0" y="811.0" type="line" smooth="yes"/>
      <point x="926.0" y="996.0"/>
      <point x="884.0" y="1204.0"/>
      <point x="717.0" y="1204.0" type="qcurve" smooth="yes"/>
      <point x="571.0" y="1204.0"/>
      <point x="494.0" y="1003.0"/>
      <point x="493.0" y="792.0" type="qcurve" smooth="yes"/>
      <point x="491.0" y="596.0" type="line"/>
      <point x="493.0" y="186.0" type="line"/>
      <point x="651.0" y="156.0" type="line"/>
      <point x="651.0" y="0.0" type="line"/>
      <point x="-14.0" y="0.0" type="line"/>
      <point x="-14.0" y="156.0" type="line"/>
      <point x="167.0" y="186.0" type="line"/>
      <point x="169.0" y="596.0" type="line"/>
      <point x="166.0" y="872.0" type="line" smooth="yes"/>
      <point x="163.0" y="1132.0"/>
      <point x="491.0" y="1421.0"/>
      <point x="755.0" y="1421.0" type="qcurve" smooth="yes"/>
      <point x="1103.0" y="1421.0"/>
      <point x="1317.0" y="1137.0"/>
      <point x="1323.0" y="894.0" type="qcurve" smooth="yes"/>
      <point x="1321.0" y="596.0" type="line"/>
      <point x="1323.0" y="186.0" type="line"/>
    </contour>
    <contour>
      <point x="622.0" y="270.0" type="line"/>
      <point x="634.0" y="662.0" type="line"/>
      <point x="636.0" y="1350.0" type="line"/>
      <point x="632.0" y="1534.0" type="line"/>
      <point x="857.0" y="1600.0" type="line"/>
      <point x="834.0" y="1350.0" type="line"/>
      <point x="838.0" y="762.0" type="line"/>
      <point x="857.0" y="330.0" type="line"/>
    </contour>
  </outline>
</glyph>
<glyph name="trademark" format="2">
  <advance width="1964"/>
  <unicode hex="2122"/>
  <outline>
    <contour>
      <point x="45.0" y="1175.0" type="line"/>
      <point x="45.0" y="1500.0" type="line"/>
      <point x="771.0" y="1500.0" type="line"/>
      <point x="771.0" y="1175.0" type="line"/>
      <point x="665.0" y="1175.0" type="line"/>
      <point x="633.0" y="1347.0" type="line"/>
      <point x="527.0" y="1347.0" type="line"/>
      <point x="501.0" y="1326.0" type="line"/>
      <point x="499.0" y="1025.0" type="line"/>
      <point x="499.0" y="813.0" type="line"/>
      <point x="606.0" y="775.0" type="line"/>
      <point x="606.0" y="648.0" type="line"/>
      <point x="209.0" y="648.0" type="line"/>
      <point x="209.0" y="775.0" type="line"/>
      <point x="317.0" y="813.0" type="line"/>
      <point x="317.0" y="1025.0" type="line"/>
      <point x="315.0" y="1326.0" type="line"/>
      <point x="298.0" y="1347.0" type="line"/>
      <point x="184.0" y="1347.0" type="line"/>
      <point x="151.0" y="1175.0" type="line"/>
    </contour>
    <contour>
      <point x="807.0" y="650.0" type="line"/>
      <point x="807.0" y="774.0" type="line"/>
      <point x="915.0" y="811.0" type="line"/>
      <point x="917.0" y="1027.0" type="line"/>
      <point x="915.0" y="1319.0" type="line"/>
      <point x="812.0" y="1355.0" type="line"/>
      <point x="812.0" y="1500.0" type="line"/>
      <point x="1180.0" y="1500.0" type="line"/>
      <point x="1388.0" y="905.0" type="line"/>
      <point x="1589.0" y="1500.0" type="line"/>
      <point x="1920.0" y="1500.0" type="line"/>
      <point x="1920.0" y="1355.0" type="line"/>
      <point x="1821.0" y="1319.0" type="line"/>
      <point x="1820.0" y="1025.0" type="line"/>
      <point x="1821.0" y="809.0" type="line"/>
      <point x="1920.0" y="772.0" type="line"/>
      <point x="1920.0" y="648.0" type="line"/>
      <point x="1555.0" y="648.0" type="line"/>
      <point x="1555.0" y="772.0" type="line"/>
      <point x="1644.0" y="809.0" type="line"/>
      <point x="1646.0" y="1025.0" type="line"/>
      <point x="1644.0" y="1294.0" type="line"/>
      <point x="1430.0" y="639.0" type="line"/>
      <point x="1289.0" y="639.0" type="line"/>
      <point x="1059.0" y="1285.0" type="line"/>
      <point x="1057.0" y="1027.0" type="line"/>
      <point x="1059.0" y="811.0" type="line"/>
      <point x="1156.0" y="774.0" type="line"/>
      <point x="1156.0" y="650.0" type="line"/>
    </contour>
  </outline>
</glyph>
<glyph name="minus" format="2">
  <advance width="889"/>
  <unicode hex="2212"/>
  <outline>
    <contour>
      <point x="38.0" y="481.0" type="line"/>
      <point x="38.0" y="783.0" type="line"/>
      <point x="851.0" y="783.0" type="line"/>
      <point x="851.0" y="481.0" type="line"/>
    </contour>
  </outline>
</glyph>
<glyph name="bulletoperator" format="2">
  <advance width="1024"/>
  <unicode hex="2219"/>
  <outline>
    <contour>
      <point x="266.0" y="633.0" type="qcurve" smooth="yes"/>
      <point x="266.0" y="728.0"/>
      <point x="405.0" y="867.0"/>
      <point x="511.0" y="867.0" type="qcurve" smooth="yes"/>
      <point x="618.0" y="867.0"/>
      <point x="758.0" y="728.0"/>
      <point x="758.0" y="633.0" type="qcurve" smooth="yes"/>
      <point x="758.0" y="540.0"/>
      <point x="618.0" y="400.0"/>
      <point x="511.0" y="400.0" type="qcurve" smooth="yes"/>
      <point x="405.0" y="400.0"/>
      <point x="266.0" y="540.0"/>
    </contour>
  </outline>
</glyph>
<glyph name="notequal" format="2">
  <advance width="889"/>
  <unicode hex="2260"/>
  <outline>
    <contour>
      <point x="86.0" y="317.0" type="line"/>
      <point x="86.0" y="576.0" type="line"/>
      <point x="444.0" y="572.0" type="line"/>
      <point x="803.0" y="576.0" type="line"/>
      <point x="803.0" y="317.0" type="line"/>
      <point x="444.0" y="321.0" type="line"/>
    </contour>
    <contour>
      <point x="86.0" y="676.0" type="line"/>
      <point x="86.0" y="935.0" type="line"/>
      <point x="444.0" y="931.0" type="line"/>
      <point x="803.0" y="935.0" type="line"/>
      <point x="803.0" y="676.0" type="line"/>
      <point x="444.0" y="680.0" type="line"/>
    </contour>
    <contour>
      <point x="148.0" y="170.0" type="line"/>
      <point x="535.0" y="1133.0" type="line"/>
      <point x="742.0" y="1060.0" type="line"/>
      <point x="355.0" y="97.0" type="line"/>
    </contour>
  </outline>
</glyph>
<glyph name="greaterequal" format="2">
  <advance width="889"/>
  <unicode hex="2265"/>
  <outline>
    <contour>
      <point x="38.0" y="-85.0" type="line"/>
      <point x="38.0" y="170.0" type="line"/>
      <point x="941.0" y="170.0" type="line"/>
      <point x="941.0" y="-85.0" type="line"/>
    </contour>
    <contour>
      <point x="970.0" y="722.0" type="qcurve"/>
      <point x="966.0" y="715.0"/>
      <point x="405.0" y="312.0"/>
      <point x="339.0" y="254.0" type="qcurve" smooth="yes"/>
      <point x="283.0" y="204.0"/>
      <point x="128.0" y="366.0"/>
      <point x="201.0" y="436.0" type="qcurve" smooth="yes"/>
      <point x="305.0" y="541.0"/>
      <point x="520.0" y="744.0"/>
      <point x="430.0" y="725.0" type="qcurve"/>
      <point x="515.0" y="703.0"/>
      <point x="336.0" y="925.0"/>
      <point x="218.0" y="1049.0" type="qcurve"/>
      <point x="148.0" y="1124.0"/>
      <point x="297.0" y="1298.0"/>
      <point x="374.0" y="1226.0" type="qcurve" smooth="yes"/>
      <point x="441.0" y="1164.0"/>
      <point x="964.0" y="730.0"/>
    </contour>
  </outline>
</glyph>
<glyph name="fi" format="2">
  <advance width="1458"/>
  <unicode hex="FB01"/>
  <outline>
    <contour>
      <point x="33.0" y="0.0" type="line"/>
      <point x="33.0" y="177.0" type="line"/>
      <point x="125.0" y="212.0" type="line"/>
      <point x="135.0" y="577.0" type="line"/>
      <point x="138.0" y="865.0" type="line"/>
      <point x="16.0" y="869.0" type="line"/>
      <point x="24.0" y="1028.0" type="line"/>
      <point x="138.0" y="1074.0" type="line"/>
      <point x="130.0" y="1207.0" type="line" smooth="yes"/>
      <point x="123.0" y="1319.0"/>
      <point x="212.0" y="1517.0"/>
      <point x="426.0" y="1519.0" type="qcurve" smooth="yes"/>
      <point x="484.0" y="1521.0"/>
      <point x="604.0" y="1527.0"/>
      <point x="651.0" y="1508.0" type="qcurve" smooth="yes"/>
      <point x="679.0" y="1498.0" type="line"/>
      <point x="655.0" y="1291.0" type="line"/>
      <point x="645.0" y="1293.0" type="line" smooth="yes"/>
      <point x="648.0" y="1289.0"/>
      <point x="697.0" y="1265.0"/>
      <point x="701.0" y="1265.0" type="qcurve" smooth="yes"/>
      <point x="648.0" y="1265.0"/>
      <point x="665.0" y="1212.0"/>
      <point x="665.0" y="1268.0" type="qcurve" smooth="yes"/>
      <point x="665.0" y="1063.0" type="line"/>
      <point x="1245.0" y="1084.0" type="line"/>
      <point x="1323.0" y="1084.0" type="line"/>
      <point x="1366.0" y="1040.0" type="line"/>
      <point x="1359.0" y="577.0" type="line"/>
      <point x="1361.0" y="212.0" type="line"/>
      <point x="1438.0" y="177.0" type="line"/>
      <point x="1438.0" y="0.0" type="line"/>
      <point x="760.0" y="0.0" type="line"/>
      <point x="760.0" y="177.0" type="line"/>
      <point x="841.0" y="212.0" type="line"/>
      <point x="843.0" y="577.0" type="line"/>
      <point x="846.0" y="829.0" type="line"/>
      <point x="817.0" y="859.0" type="line"/>
      <point x="663.0" y="867.0" type="line"/>
      <point x="660.0" y="577.0" type="line"/>
      <point x="647.0" y="212.0" type="line"/>
      <point x="728.0" y="177.0" type="line"/>
      <point x="728.0" y="0.0" type="line"/>
    </contour>
    <contour>
      <point x="772.0" y="1337.0" type="qcurve" smooth="yes"/>
      <point x="772.0" y="1417.0"/>
      <point x="924.0" y="1525.0"/>
      <point x="1065.0" y="1525.0" type="qcurve" smooth="yes"/>
      <point x="1199.0" y="1525.0"/>
      <point x="1363.0" y="1421.0"/>
      <point x="1362.0" y="1337.0" type="qcurve" smooth="yes"/>
      <point x="1362.0" y="1263.0"/>
      <point x="1210.0" y="1164.0"/>
      <point x="1067.0" y="1164.0" type="qcurve" smooth="yes"/>
      <point x="933.0" y="1164.0"/>
      <point x="772.0" y="1266.0"/>
    </contour>
  </outline>
</glyph>
<glyph name="fl" format="2">
  <advance width="1444"/>
  <unicode hex="FB02"/>
  <outline>
    <contour>
      <point x="33.0" y="0.0" type="line"/>
      <point x="33.0" y="177.0" type="line"/>
      <point x="125.0" y="212.0" type="line"/>
      <point x="135.0" y="577.0" type="line"/>
      <point x="138.0" y="865.0" type="line"/>
      <point x="16.0" y="869.0" type="line"/>
      <point x="24.0" y="1028.0" type="line"/>
      <point x="138.0" y="1074.0" type="line"/>
      <point x="128.0" y="1133.0" type="line" smooth="yes"/>
      <point x="124.0" y="1293.0"/>
      <point x="291.0" y="1497.0"/>
      <point x="494.0" y="1497.0" type="qcurve" smooth="yes"/>
      <point x="580.0" y="1497.0"/>
      <point x="720.0" y="1472.0"/>
      <point x="783.0" y="1448.0" type="qcurve" smooth="yes"/>
      <point x="778.0" y="1443.0" type="line"/>
      <point x="1261.0" y="1534.0" type="line"/>
      <point x="1298.0" y="1536.0" type="line"/>
      <point x="1360.0" y="1488.0" type="line"/>
      <point x="1358.0" y="527.0" type="line"/>
      <point x="1360.0" y="212.0" type="line"/>
      <point x="1446.0" y="177.0" type="line"/>
      <point x="1446.0" y="0.0" type="line"/>
      <point x="741.0" y="0.0" type="line"/>
      <point x="741.0" y="177.0" type="line"/>
      <point x="839.0" y="212.0" type="line"/>
      <point x="842.0" y="527.0" type="line"/>
      <point x="839.0" y="1266.0" type="line"/>
      <point x="900.0" y="1237.0" type="line" smooth="yes"/>
      <point x="865.0" y="1240.0"/>
      <point x="742.0" y="1255.0"/>
      <point x="713.0" y="1255.0" type="qcurve" smooth="yes"/>
      <point x="688.0" y="1255.0"/>
      <point x="664.0" y="1194.0"/>
      <point x="665.0" y="1152.0" type="qcurve" smooth="yes"/>
      <point x="665.0" y="1063.0" type="line"/>
      <point x="841.0" y="1063.0" type="line"/>
      <point x="841.0" y="856.0" type="line"/>
      <point x="663.0" y="867.0" type="line"/>
      <point x="660.0" y="577.0" type="line"/>
      <point x="647.0" y="212.0" type="line"/>
      <point x="708.0" y="177.0" type="line"/>
      <point x="708.0" y="0.0" type="line"/>
    </contour>
  </outline>
</glyph>
<glyph name="f_f_l" format="2">
  <advance width="2199"/>
  <unicode hex="FB04"/>
  <outline>
    <contour>
      <point x="33.0" y="0.0" type="line"/>
      <point x="33.0" y="177.0" type="line"/>
      <point x="125.0" y="212.0" type="line"/>
      <point x="135.0" y="577.0" type="line"/>
      <point x="138.0" y="865.0" type="line"/>
      <point x="16.0" y="869.0" type="line"/>
      <point x="24.0" y="1028.0" type="line"/>
      <point x="138.0" y="1074.0" type="line"/>
      <point x="128.0" y="1238.0" type="line" smooth="yes"/>
      <point x="120.0" y="1348.0"/>
      <point x="281.0" y="1520.0"/>
      <point x="499.0" y="1520.0" type="qcurve" smooth="yes"/>
      <point x="634.0" y="1520.0"/>
      <point x="801.0" y="1485.0"/>
      <point x="859.0" y="1448.0" type="qcurve" smooth="yes"/>
      <point x="880.0" y="1430.0" type="line"/>
      <point x="856.0" y="1239.0" type="line"/>
      <point x="840.0" y="1249.0" type="line" smooth="yes"/>
      <point x="823.0" y="1258.0"/>
      <point x="746.0" y="1279.0"/>
      <point x="692.0" y="1279.0" type="qcurve" smooth="yes"/>
      <point x="675.0" y="1279.0"/>
      <point x="666.0" y="1235.0"/>
      <point x="665.0" y="1294.0" type="qcurve" smooth="yes"/>
      <point x="665.0" y="1055.0" type="line"/>
      <point x="893.0" y="1054.0" type="line"/>
      <point x="883.0" y="1133.0" type="line" smooth="yes"/>
      <point x="879.0" y="1293.0"/>
      <point x="1046.0" y="1497.0"/>
      <point x="1249.0" y="1497.0" type="qcurve" smooth="yes"/>
      <point x="1335.0" y="1497.0"/>
      <point x="1475.0" y="1472.0"/>
      <point x="1538.0" y="1448.0" type="qcurve" smooth="yes"/>
      <point x="1533.0" y="1443.0" type="line"/>
      <point x="2016.0" y="1534.0" type="line"/>
      <point x="2053.0" y="1536.0" type="line"/>
      <point x="2115.0" y="1488.0" type="line"/>
      <point x="2113.0" y="527.0" type="line"/>
      <point x="2115.0" y="212.0" type="line"/>
      <point x="2201.0" y="177.0" type="line"/>
      <point x="2201.0" y="0.0" type="line"/>
      <point x="1490.0" y="0.0" type="line"/>
      <point x="1490.0" y="177.0" type="line"/>
      <point x="1594.0" y="212.0" type="line"/>
      <point x="1597.0" y="527.0" type="line"/>
      <point x="1594.0" y="1228.0" type="line"/>
      <point x="1655.0" y="1237.0" type="line" smooth="yes"/>
      <point x="1620.0" y="1242.0"/>
      <point x="1497.0" y="1255.0"/>
      <point x="1468.0" y="1255.0" type="qcurve" smooth="yes"/>
      <point x="1443.0" y="1255.0"/>
      <point x="1419.0" y="1194.0"/>
      <point x="1420.0" y="1152.0" type="qcurve" smooth="yes"/>
      <point x="1420.0" y="1063.0" type="line"/>
      <point x="1576.0" y="1063.0" type="line"/>
      <point x="1576.0" y="856.0" type="line"/>
      <point x="1418.0" y="867.0" type="line"/>
      <point x="1416.0" y="577.0" type="line"/>
      <point x="1403.0" y="212.0" type="line"/>
      <point x="1469.0" y="177.0" type="line"/>
      <point x="1469.0" y="0.0" type="line"/>
      <point x="762.0" y="0.0" type="line"/>
      <point x="762.0" y="177.0" type="line"/>
      <point x="881.0" y="212.0" type="line"/>
      <point x="891.0" y="577.0" type="line"/>
      <point x="894.0" y="867.0" type="line"/>
      <point x="844.0" y="877.0" type="line"/>
      <point x="663.0" y="863.0" type="line"/>
      <point x="660.0" y="577.0" type="line"/>
      <point x="647.0" y="212.0" type="line"/>
      <point x="725.0" y="177.0" type="line"/>
      <point x="725.0" y="0.0" type="line"/>
    </contour>
  </outline>
</glyph>
<glyph name="acutecombstack.case" format="2">
  <advance width="1024"/>
  <outline>
    <contour>
      <point x="892.0" y="1863.0" type="qcurve" smooth="yes"/>
      <point x="888.0" y="1816.0"/>
      <point x="787.0" y="1742.0"/>
      <point x="712.0" y="1721.0" type="qcurve" smooth="yes"/>
      <point x="313.0" y="1619.0" type="line"/>
      <point x="258.0" y="1754.0" type="line"/>
      <point x="570.0" y="1973.0" type="line" smooth="yes"/>
      <point x="637.0" y="2011.0"/>
      <point x="746.0" y="2035.0"/>
      <point x="774.0" y="2023.0" type="qcurve" smooth="yes"/>
      <point x="839.0" y="2013.0"/>
      <point x="899.0" y="1897.0"/>
    </contour>
  </outline>
</glyph>
<glyph name="brevecomb.case" format="2">
  <advance width="1024"/>
  <outline>
    <contour>
      <point x="711.0" y="1922.0" type="qcurve"/>
      <point x="849.0" y="1897.0" type="line"/>
      <point x="844.0" y="1774.0"/>
      <point x="677.0" y="1571.0"/>
      <point x="513.0" y="1571.0" type="qcurve" smooth="yes"/>
      <point x="329.0" y="1571.0"/>
      <point x="168.0" y="1765.0"/>
      <point x="174.0" y="1893.0" type="qcurve"/>
      <point x="309.0" y="1923.0" type="line"/>
      <point x="325.0" y="1866.0"/>
      <point x="415.0" y="1774.0"/>
      <point x="513.0" y="1774.0" type="qcurve" smooth="yes"/>
      <point x="609.0" y="1774.0"/>
      <point x="698.0" y="1873.0"/>
    </contour>
  </outline>
</glyph>
<glyph name="breveinvertedcomb.case" format="2">
  <advance width="1024"/>
  <outline>
    <contour>
      <point x="317.0" y="1616.0" type="qcurve"/>
      <point x="181.0" y="1640.0" type="line"/>
      <point x="201.0" y="1783.0"/>
      <point x="381.0" y="1964.0"/>
      <point x="510.0" y="1964.0" type="qcurve" smooth="yes"/>
      <point x="662.0" y="1964.0"/>
      <point x="836.0" y="1791.0"/>
      <point x="842.0" y="1644.0" type="qcurve"/>
      <point x="709.0" y="1615.0" type="line"/>
      <point x="682.0" y="1695.0"/>
      <point x="586.0" y="1764.0"/>
      <point x="507.0" y="1765.0" type="qcurve" smooth="yes"/>
      <point x="438.0" y="1764.0"/>
      <point x="343.0" y="1688.0"/>
    </contour>
  </outline>
</glyph>
<glyph name="caroncomb.alt" format="2">
  <advance width="1024"/>
  <outline>
    <contour>
      <point x="365.0" y="1161.0" type="line"/>
      <point x="434.0" y="1518.0" type="line" smooth="yes"/>
      <point x="450.0" y="1591.0"/>
      <point x="539.0" y="1670.0"/>
      <point x="618.0" y="1670.0" type="qcurve" smooth="yes"/>
      <point x="683.0" y="1670.0"/>
      <point x="770.0" y="1598.0"/>
      <point x="770.0" y="1557.0" type="qcurve" smooth="yes"/>
      <point x="770.0" y="1528.0"/>
      <point x="742.0" y="1457.0"/>
      <point x="711.0" y="1417.0" type="qcurve" smooth="yes"/>
      <point x="502.0" y="1119.0" type="line"/>
    </contour>
  </outline>
</glyph>
<glyph name="cedillacomb.case" format="2">
  <advance width="1024"/>
  <outline>
    <contour>
      <point x="567.0" y="9.0" type="line"/>
      <point x="521.0" y="-95.0" type="line"/>
      <point x="543.0" y="-87.0"/>
      <point x="592.0" y="-85.0"/>
      <point x="616.0" y="-85.0" type="qcurve" smooth="yes"/>
      <point x="722.0" y="-85.0"/>
      <point x="887.0" y="-188.0"/>
      <point x="887.0" y="-304.0" type="qcurve" smooth="yes"/>
      <point x="887.0" y="-404.0"/>
      <point x="696.0" y="-535.0"/>
      <point x="506.0" y="-535.0" type="qcurve" smooth="yes"/>
      <point x="423.0" y="-535.0"/>
      <point x="282.0" y="-486.0"/>
      <point x="222.0" y="-463.0" type="qcurve"/>
      <point x="277.0" y="-354.0" type="line"/>
      <point x="330.0" y="-378.0"/>
      <point x="425.0" y="-388.0"/>
      <point x="501.0" y="-388.0" type="qcurve" smooth="yes"/>
      <point x="580.0" y="-388.0"/>
      <point x="643.0" y="-347.0"/>
      <point x="643.0" y="-299.0" type="qcurve" smooth="yes"/>
      <point x="643.0" y="-263.0"/>
      <point x="585.0" y="-222.0"/>
      <point x="545.0" y="-222.0" type="qcurve" smooth="yes"/>
      <point x="521.0" y="-222.0"/>
      <point x="469.0" y="-233.0"/>
      <point x="447.0" y="-242.0" type="qcurve"/>
      <point x="354.0" y="-149.0" type="line"/>
      <point x="418.0" y="9.0" type="line"/>
    </contour>
  </outline>
</glyph>
<glyph name="circumflexcomb.case" format="2">
  <advance width="1024"/>
  <outline>
    <contour>
      <point x="513.0" y="2035.0" type="qcurve" smooth="yes"/>
      <point x="556.0" y="2035.0"/>
      <point x="662" y="1940"/>
      <point x="717.0" y="1876.0" type="qcurve" smooth="yes"/>
      <point x="903.0" y="1658.0" type="line"/>
      <point x="762.0" y="1563.0" type="line"/>
      <point x="513.0" y="1767.0" type="line"/>
      <point x="258.0" y="1549.0" type="line"/>
      <point x="123.0" y="1658.0" type="line"/>
      <point x="309.0" y="1876.0" type="line" smooth="yes"/>
      <point x="360" y="1935"/>
      <point x="469.0" y="2035.0"/>
    </contour>
  </outline>
</glyph>
<glyph name="circumflexcombstack.case" format="2">
  <advance width="1024"/>
  <outline>
    <contour>
      <point x="513.0" y="2062.0" type="qcurve" smooth="yes"/>
      <point x="558.0" y="2062.0"/>
      <point x="667.0" y="1994.0"/>
      <point x="724.0" y="1928.0" type="qcurve" smooth="yes"/>
      <point x="926.0" y="1668.0" type="line"/>
      <point x="810.0" y="1567.0" type="line"/>
      <point x="513.0" y="1797.0" type="line"/>
      <point x="210.0" y="1560.0" type="line"/>
      <point x="100.0" y="1668.0" type="line"/>
      <point x="302.0" y="1928.0" type="line" smooth="yes"/>
      <point x="353.0" y="1991.0"/>
      <point x="467.0" y="2062.0"/>
    </contour>
  </outline>
</glyph>
<glyph name="commaaccentcomb.case" format="2">
  <advance width="1024"/>
  <outline>
    <contour>
      <point x="406.0" y="-571.0" type="line"/>
      <point x="451.0" y="-528.0"/>
      <point x="476.0" y="-479.0"/>
      <point x="503.0" y="-428.0" type="qcurve"/>
      <point x="435.0" y="-416.0"/>
      <point x="380.0" y="-353.0"/>
      <point x="380.0" y="-298.0" type="qcurve" smooth="yes"/>
      <point x="380.0" y="-249.0"/>
      <point x="457.0" y="-168.0"/>
      <point x="526.0" y="-168.0" type="qcurve" smooth="yes"/>
      <point x="596.0" y="-168.0"/>
      <point x="694.0" y="-248.0"/>
      <point x="694.0" y="-337.0" type="qcurve" smooth="yes"/>
      <point x="694.0" y="-420.0"/>
      <point x="554.0" y="-605.0"/>
      <point x="474.0" y="-645.0" type="qcurve"/>
    </contour>
  </outline>
</glyph>
<glyph name="dblgravecomb.case" format="2">
  <advance width="1024"/>
  <outline>
    <contour>
      <point x="42.0" y="1884.0" type="qcurve" smooth="yes"/>
      <point x="42" y="1943"/>
      <point x="108.0" y="1990.0"/>
      <point x="161" y="1991" type="qcurve" smooth="yes"/>
      <point x="207" y="1992"/>
      <point x="310" y="1915"/>
      <point x="347.0" y="1860.0" type="qcurve" smooth="yes"/>
      <point x="499.0" y="1634.0" type="line"/>
      <point x="400.0" y="1544.0" type="line"/>
      <point x="136.0" y="1725.0" type="line" smooth="yes"/>
      <point x="94" y="1754"/>
      <point x="42" y="1825.0"/>
    </contour>
    <contour>
      <point x="429.0" y="1881.0" type="qcurve" smooth="yes"/>
      <point x="429" y="1931"/>
      <point x="496" y="1990.0"/>
      <point x="546" y="1990.0" type="qcurve" smooth="yes"/>
      <point x="597" y="1990"/>
      <point x="691" y="1911"/>
      <point x="728.0" y="1859.0" type="qcurve" smooth="yes"/>
      <point x="888.0" y="1634.0" type="line"/>
      <point x="784.0" y="1544.0" type="line"/>
      <point x="526.0" y="1724.0" type="line" smooth="yes"/>
      <point x="483" y="1754"/>
      <point x="429.0" y="1831.0"/>
    </contour>
  </outline>
</glyph>
<glyph name="diagonalbarl" format="2">
  <advance width="1214"/>
  <outline>
    <contour>
      <point x="519.0" y="790.0" type="line"/>
      <point x="971.0" y="1023.0" type="line"/>
      <point x="1026.0" y="862.0" type="line"/>
      <point x="580.0" y="643.0" type="line"/>
      <point x="95.0" y="402.0" type="line"/>
      <point x="36.0" y="564.0" type="line"/>
    </contour>
  </outline>
</glyph>
<glyph name="dieresiscombstack.case" format="2">
  <advance width="1024"/>
  <outline>
    <contour>
      <point x="177.0" y="1743.0" type="qcurve" smooth="yes"/>
      <point x="177.0" y="1818.0"/>
      <point x="258.0" y="1899.0"/>
      <point x="335.0" y="1899.0" type="qcurve" smooth="yes"/>
      <point x="408.0" y="1899.0"/>
      <point x="493.0" y="1812.0"/>
      <point x="493.0" y="1743.0" type="qcurve" smooth="yes"/>
      <point x="493.0" y="1666.0"/>
      <point x="413.0" y="1586.0"/>
      <point x="335.0" y="1586.0" type="qcurve" smooth="yes"/>
      <point x="262.0" y="1586.0"/>
      <point x="177.0" y="1671.0"/>
    </contour>
    <contour>
      <point x="532.0" y="1743.0" type="qcurve" smooth="yes"/>
      <point x="532.0" y="1818.0"/>
      <point x="614.0" y="1899.0"/>
      <point x="690.0" y="1899.0" type="qcurve" smooth="yes"/>
      <point x="763.0" y="1899.0"/>
      <point x="848.0" y="1812.0"/>
      <point x="848.0" y="1743.0" type="qcurve" smooth="yes"/>
      <point x="848.0" y="1666.0"/>
      <point x="769.0" y="1586.0"/>
      <point x="690.0" y="1586.0" type="qcurve" smooth="yes"/>
      <point x="617.0" y="1586.0"/>
      <point x="532.0" y="1671.0"/>
    </contour>
  </outline>
</glyph>
<glyph name="dotaccentcombstack.case" format="2">
  <advance width="1024"/>
  <outline>
    <contour>
      <point x="342.0" y="1721.0" type="qcurve" smooth="yes"/>
      <point x="342.0" y="1800.0"/>
      <point x="431.0" y="1891.0"/>
      <point x="513.0" y="1891.0" type="qcurve" smooth="yes"/>
      <point x="593.0" y="1891.0"/>
      <point x="684.0" y="1795.0"/>
      <point x="684.0" y="1721.0" type="qcurve" smooth="yes"/>
      <point x="684.0" y="1645.0"/>
      <point x="599.0" y="1555.0"/>
      <point x="513.0" y="1555.0" type="qcurve" smooth="yes"/>
      <point x="434.0" y="1555.0"/>
      <point x="342.0" y="1647.0"/>
    </contour>
  </outline>
</glyph>
<glyph name="eight.lf" format="2">
  <advance width="1273"/>
  <outline>
    <contour>
      <point x="68.0" y="341.0" type="qcurve" smooth="yes"/>
      <point x="68.0" y="501.0"/>
      <point x="300.0" y="747.0"/>
      <point x="540.0" y="827.0" type="qcurve"/>
      <point x="647.0" y="748.0" type="line"/>
      <point x="605.0" y="662.0"/>
      <point x="579.0" y="439.0"/>
      <point x="579.0" y="316.0" type="qcurve" smooth="yes"/>
      <point x="579.0" y="216.0"/>
      <point x="589.0" y="159.0"/>
      <point x="605.0" y="159.0" type="qcurve" smooth="yes"/>
      <point x="652.0" y="159.0"/>
      <point x="668.0" y="250.0"/>
      <point x="668.0" y="336.0" type="qcurve" smooth="yes"/>
      <point x="668.0" y="424.0"/>
      <point x="600.0" y="573.0"/>
      <point x="488.0" y="639.0" type="qcurve" smooth="yes"/>
      <point x="302.0" y="732.0"/>
      <point x="149.0" y="963.0"/>
      <point x="153.0" y="1137.0" type="qcurve" smooth="yes"/>
      <point x="157.0" y="1308.0"/>
      <point x="351.0" y="1506.0"/>
      <point x="609.0" y="1506.0" type="qcurve" smooth="yes"/>
      <point x="848.0" y="1506.0"/>
      <point x="1085.0" y="1355.0"/>
      <point x="1085.0" y="1189.0" type="qcurve" smooth="yes"/>
      <point x="1085.0" y="1056.0"/>
      <point x="875.0" y="851.0"/>
      <point x="713.0" y="783.0" type="qcurve"/>
      <point x="577.0" y="855.0" type="line"/>
      <point x="628.0" y="918.0"/>
      <point x="664.0" y="1098.0"/>
      <point x="664.0" y="1189.0" type="qcurve" smooth="yes"/>
      <point x="664.0" y="1260.0"/>
      <point x="637.0" y="1304.0"/>
      <point x="601.0" y="1304.0" type="qcurve" smooth="yes"/>
      <point x="572.0" y="1304.0"/>
      <point x="591.0" y="1273.0"/>
      <point x="591.0" y="1207.0" type="qcurve" smooth="yes"/>
      <point x="591.0" y="1125.0"/>
      <point x="636.0" y="1012.0"/>
      <point x="796.0" y="935.0" type="qcurve" smooth="yes"/>
      <point x="964.0" y="857.0"/>
      <point x="1176.0" y="597.0"/>
      <point x="1176.0" y="404.0" type="qcurve" smooth="yes"/>
      <point x="1176.0" y="213.0"/>
      <point x="892.0" y="-30.0"/>
      <point x="608.0" y="-30.0" type="qcurve" smooth="yes"/>
      <point x="369.0" y="-30.0"/>
      <point x="68.0" y="140.0"/>
    </contour>
  </outline>
</glyph>
<glyph name="five.tab" format="2">
  <advance width="1283"/>
  <outline>
    <contour>
      <point x="66.0" y="83.0" type="qcurve"/>
      <point x="150.0" y="270.0" type="line"/>
      <point x="224.0" y="198.0"/>
      <point x="293.0" y="204.0"/>
      <point x="332.0" y="196.0" type="qcurve" smooth="yes"/>
      <point x="424.0" y="188.0"/>
      <point x="521.0" y="342.0"/>
      <point x="521.0" y="491.0" type="qcurve" smooth="yes"/>
      <point x="521.0" y="613.0"/>
      <point x="451.0" y="746.0"/>
      <point x="299.0" y="726.0" type="qcurve" smooth="yes"/>
      <point x="296.0" y="722.0" type="line"/>
      <point x="228.0" y="806.0" type="line"/>
      <point x="247.0" y="1467.0" type="line"/>
      <point x="270.0" y="1500.0" type="line"/>
      <point x="1042.0" y="1500.0" type="line"/>
      <point x="1026.0" y="1146.0" type="line"/>
      <point x="429.0" y="1146.0" type="line"/>
      <point x="417.0" y="1128.0" type="line"/>
      <point x="455.0" y="899.0" type="line"/>
      <point x="528.0" y="926.0" type="line"/>
      <point x="862.0" y="970.0"/>
      <point x="1070.0" y="680.0"/>
      <point x="1070.0" y="440.0" type="qcurve" smooth="yes"/>
      <point x="1070.0" y="207.0"/>
      <point x="774.0" y="-30.0"/>
      <point x="490.0" y="-30.0" type="qcurve" smooth="yes"/>
      <point x="307.0" y="-30.0"/>
      <point x="117.0" y="35.0"/>
    </contour>
  </outline>
</glyph>
<glyph name="four.lf" format="2">
  <advance width="1127"/>
  <outline>
    <contour>
      <point x="-44.0" y="536.0" type="line"/>
      <point x="540.0" y="1448.0" type="line"/>
      <point x="892.0" y="1450.0" type="line"/>
      <point x="962.0" y="1380.0" type="line"/>
      <point x="946.0" y="523.0" type="line"/>
      <point x="957.0" y="204.0" type="line"/>
      <point x="1101.0" y="169.0" type="line"/>
      <point x="1101.0" y="0.0" type="line"/>
      <point x="314.0" y="0.0" type="line"/>
      <point x="314.0" y="169.0" type="line"/>
      <point x="455.0" y="204.0" type="line"/>
      <point x="457.0" y="521.0" type="line"/>
      <point x="451.0" y="1046.0" type="line"/>
      <point x="200.0" y="607.0" type="line"/>
      <point x="198.0" y="588.0" type="line"/>
      <point x="1090.0" y="624.0" type="line"/>
      <point x="1090.0" y="422.0" type="line"/>
      <point x="-28.0" y="371.0" type="line"/>
    </contour>
  </outline>
</glyph>
<glyph name="gravecomb.case" format="2">
  <advance width="1024"/>
  <outline>
    <contour>
      <point x="211.0" y="1962.0" type="qcurve" smooth="yes"/>
      <point x="215.0" y="1999.0"/>
      <point x="296.0" y="2091.0"/>
      <point x="361.0" y="2091.0" type="qcurve" smooth="yes"/>
      <point x="409.0" y="2091.0"/>
      <point x="490.0" y="2022.0"/>
      <point x="534.0" y="1959.0" type="qcurve" smooth="yes"/>
      <point x="701.0" y="1728.0" type="line"/>
      <point x="606.0" y="1614.0" type="line"/>
      <point x="301.0" y="1799.0" type="line" smooth="yes"/>
      <point x="248.0" y="1831.0"/>
      <point x="205.0" y="1926.0"/>
    </contour>
  </outline>
</glyph>
<glyph name="gravecombstack.case" format="2">
  <advance width="1024"/>
  <outline>
    <contour>
      <point x="198.0" y="1889.0" type="qcurve" smooth="yes"/>
      <point x="198.0" y="1960.0"/>
      <point x="290.0" y="2030.0"/>
      <point x="356.0" y="2030.0" type="qcurve" smooth="yes"/>
      <point x="388.0" y="2030.0"/>
      <point x="477.0" y="1990.0"/>
      <point x="541.0" y="1948.0" type="qcurve" smooth="yes"/>
      <point x="833.0" y="1754.0" type="line"/>
      <point x="778.0" y="1619.0" type="line"/>
      <point x="399.0" y="1715.0" type="line" smooth="yes"/>
      <point x="312.0" y="1737.0"/>
      <point x="198.0" y="1828.0"/>
    </contour>
  </outline>
</glyph>
<glyph name="horizontalbarH" format="2">
  <advance width="1726"/>
  <outline>
    <contour>
      <point x="1646.0" y="993.0" type="line"/>
      <point x="1404.0" y="995.0" type="line"/>
      <point x="1404.0" y="1212.0" type="line"/>
      <point x="1656.0" y="1210.0" type="line"/>
    </contour>
    <contour>
      <point x="89.0" y="995.0" type="line"/>
      <point x="80.0" y="1212.0" type="line"/>
      <point x="329.0" y="1212.0" type="line"/>
      <point x="329.0" y="995.0" type="line"/>
    </contour>
    <contour>
      <point x="329.0" y="1039" type="line"/>
      <point x="329.0" y="1169" type="line"/>
      <point x="1404.0" y="1169" type="line"/>
      <point x="1404.0" y="1039" type="line"/>
    </contour>
  </outline>
</glyph>
<glyph name="horncomb.case" format="2">
  <advance width="1024"/>
  <outline>
    <contour>
      <point x="-27.0" y="1501.0" type="line"/>
      <point x="20.0" y="1487.0"/>
      <point x="188" y="1463"/>
      <point x="223.0" y="1463.0" type="qcurve" smooth="yes"/>
      <point x="261" y="1463.0"/>
      <point x="309.0" y="1496"/>
      <point x="309.0" y="1537" type="qcurve" smooth="yes"/>
      <point x="309.0" y="1578.0"/>
      <point x="279.0" y="1687"/>
      <point x="262.0" y="1729.0" type="qcurve"/>
      <point x="367.0" y="1729.0" type="line"/>
      <point x="402.0" y="1701.0"/>
      <point x="453.0" y="1606"/>
      <point x="453.0" y="1533" type="qcurve" smooth="yes"/>
      <point x="453" y="1455"/>
      <point x="343" y="1336"/>
      <point x="240.0" y="1336.0" type="qcurve" smooth="yes"/>
      <point x="185.0" y="1336.0"/>
      <point x="14.0" y="1380.0"/>
      <point x="-27.0" y="1402.0" type="qcurve"/>
    </contour>
  </outline>
</glyph>
<glyph name="hungarumlautcomb.case" format="2">
  <advance width="1024"/>
  <outline>
    <contour>
      <point x="759.0" y="1973.0" type="qcurve" smooth="yes"/>
      <point x="759" y="1937"/>
      <point x="702" y="1850"/>
      <point x="662.0" y="1816.0" type="qcurve" smooth="yes"/>
      <point x="424.0" y="1614.0" type="line"/>
      <point x="320.0" y="1704.0" type="line"/>
      <point x="460.0" y="1951.0" type="line" smooth="yes"/>
      <point x="491" y="2005"/>
      <point x="571" y="2081.0"/>
      <point x="630.0" y="2081.0" type="qcurve" smooth="yes"/>
      <point x="689" y="2081"/>
      <point x="759.0" y="2016"/>
    </contour>
    <contour>
      <point x="1126.0" y="1946.0" type="qcurve" smooth="yes"/>
      <point x="1126.0" y="1900"/>
      <point x="1075" y="1816"/>
      <point x="1031.0" y="1787.0" type="qcurve" smooth="yes"/>
      <point x="768.0" y="1614.0" type="line"/>
      <point x="669.0" y="1704.0" type="line"/>
      <point x="817.0" y="1932.0" type="line" smooth="yes"/>
      <point x="853" y="1987"/>
      <point x="945" y="2062.0"/>
      <point x="1000.0" y="2062.0" type="qcurve" smooth="yes"/>
      <point x="1057" y="2062"/>
      <point x="1126" y="1988"/>
    </contour>
  </outline>
</glyph>
<glyph name="macroncomb.case" format="2">
  <advance width="1024"/>
  <outline>
    <contour>
      <point x="125.0" y="1683.0" type="line"/>
      <point x="125.0" y="1871.0" type="line"/>
      <point x="899.0" y="1871.0" type="line"/>
      <point x="899.0" y="1683.0" type="line"/>
    </contour>
  </outline>
</glyph>
<glyph name="macroncombstack.case" format="2">
  <advance width="1024"/>
  <outline>
    <contour>
      <point x="135.0" y="1659.0" type="line"/>
      <point x="135.0" y="1863.0" type="line"/>
      <point x="889.0" y="1863.0" type="line"/>
      <point x="889.0" y="1659.0" type="line"/>
    </contour>
  </outline>
</glyph>
<glyph name="ogonekcomb.case" format="2">
  <advance width="1024"/>
  <outline>
    <contour>
      <point x="427.0" y="-303" type="qcurve" smooth="yes"/>
      <point x="427.0" y="-192.0"/>
      <point x="563.0" y="-31.0"/>
      <point x="636.0" y="42.0" type="qcurve" smooth="yes"/>
      <point x="657.0" y="63.0" type="line"/>
      <point x="736.0" y="3.0" type="line"/>
      <point x="724.0" y="-12.0" type="line" smooth="yes"/>
      <point x="661" y="-91"/>
      <point x="619.0" y="-179.0"/>
      <point x="619.0" y="-226.0" type="qcurve" smooth="yes"/>
      <point x="619.0" y="-284.0"/>
      <point x="684" y="-347"/>
      <point x="748.0" y="-347.0" type="qcurve" smooth="yes"/>
      <point x="798.0" y="-347.0"/>
      <point x="871.0" y="-308.0"/>
      <point x="913.0" y="-264.0" type="qcurve"/>
      <point x="962.0" y="-345.0" type="line"/>
      <point x="922.0" y="-391.0"/>
      <point x="761" y="-484"/>
      <point x="658.0" y="-484.0" type="qcurve" smooth="yes"/>
      <point x="548" y="-484.0"/>
      <point x="427" y="-398"/>
    </contour>
  </outline>
</glyph>
<glyph name="one.lf" format="2">
  <advance width="956"/>
  <outline>
    <contour>
      <point x="38.0" y="0.0" type="line"/>
      <point x="38.0" y="169.0" type="line"/>
      <point x="236.0" y="204.0" type="line"/>
      <point x="236.0" y="754.0" type="line"/>
      <point x="234.0" y="1275.0" type="line"/>
      <point x="46.0" y="1304.0" type="line"/>
      <point x="46.0" y="1483.0" type="line"/>
      <point x="727.0" y="1506.0" type="line"/>
      <point x="759.0" y="1471.0" type="line"/>
      <point x="753.0" y="754.0" type="line"/>
      <point x="753.0" y="204.0" type="line"/>
      <point x="951.0" y="169.0" type="line"/>
      <point x="951.0" y="0.0" type="line"/>
    </contour>
  </outline>
</glyph>
<glyph name="seven.lf" format="2">
  <advance width="1129"/>
  <outline>
    <contour>
      <point x="81.0" y="951.0" type="line"/>
      <point x="55.0" y="1500.0" type="line"/>
      <point x="1032.0" y="1500.0" type="line"/>
      <point x="1032.0" y="1321.0" type="line"/>
      <point x="777.0" y="611.0" type="line"/>
      <point x="518.0" y="-52.0" type="line"/>
      <point x="220.0" y="-52.0" type="line"/>
      <point x="220.0" y="30.0" type="line"/>
      <point x="554.0" y="737.0" type="line"/>
      <point x="691.0" y="1126.0" type="line"/>
      <point x="676.0" y="1161.0" type="line"/>
      <point x="238.0" y="1161.0" type="line"/>
      <point x="214.0" y="951.0" type="line"/>
    </contour>
  </outline>
</glyph>
<glyph name="tildecomb.case" format="2">
  <advance width="1024"/>
  <outline>
    <contour>
      <point x="171.0" y="1757.0" type="line"/>
      <point x="206.0" y="1813.0"/>
      <point x="326" y="1898.0"/>
      <point x="368" y="1898.0" type="qcurve" smooth="yes"/>
      <point x="404" y="1898"/>
      <point x="479" y="1871"/>
      <point x="513" y="1851" type="qcurve" smooth="yes"/>
      <point x="545" y="1832"/>
      <point x="618" y="1789"/>
      <point x="652" y="1789.0" type="qcurve" smooth="yes"/>
      <point x="688.0" y="1789.0"/>
      <point x="754" y="1817"/>
      <point x="787.0" y="1849.0" type="qcurve"/>
      <point x="878.0" y="1718.0" type="line"/>
      <point x="840.0" y="1669.0"/>
      <point x="713.0" y="1578.0"/>
      <point x="652.0" y="1578.0" type="qcurve" smooth="yes"/>
      <point x="602.0" y="1578.0"/>
      <point x="527.0" y="1601.0"/>
      <point x="500.0" y="1617.0" type="qcurve" smooth="yes"/>
      <point x="468" y="1636"/>
      <point x="406" y="1664"/>
      <point x="380" y="1664.0" type="qcurve" smooth="yes"/>
      <point x="351.0" y="1664.0"/>
      <point x="281.0" y="1633.0"/>
      <point x="256.0" y="1609.0" type="qcurve"/>
    </contour>
  </outline>
</glyph>
<glyph name="tildecombstack.case" format="2">
  <advance width="1024"/>
  <outline>
    <contour>
      <point x="121.0" y="1708.0" type="line"/>
      <point x="158.0" y="1763.0"/>
      <point x="253.0" y="1870.0"/>
      <point x="343.0" y="1870.0" type="qcurve" smooth="yes"/>
      <point x="382.0" y="1870.0"/>
      <point x="452.0" y="1869.0"/>
      <point x="490.0" y="1856.0" type="qcurve" smooth="yes"/>
      <point x="520.0" y="1841.0"/>
      <point x="614.0" y="1807.0"/>
      <point x="654.0" y="1807.0" type="qcurve" smooth="yes"/>
      <point x="692.0" y="1807.0"/>
      <point x="753.0" y="1814.0"/>
      <point x="790.0" y="1859.0" type="qcurve"/>
      <point x="878.0" y="1741.0" type="line"/>
      <point x="842.0" y="1683.0"/>
      <point x="744.0" y="1595.0"/>
      <point x="669.0" y="1595.0" type="qcurve" smooth="yes"/>
      <point x="609.0" y="1595.0"/>
      <point x="520.0" y="1604.0"/>
      <point x="486.0" y="1620.0" type="qcurve" smooth="yes"/>
      <point x="441.0" y="1640.0"/>
      <point x="383.0" y="1651.0"/>
      <point x="355.0" y="1651.0" type="qcurve" smooth="yes"/>
      <point x="309.0" y="1651.0"/>
      <point x="227.0" y="1622.0"/>
      <point x="209.0" y="1600.0" type="qcurve"/>
    </contour>
  </outline>
</glyph>
